<?xml version="1.0" encoding="UTF-8" standalone="no"?><!DOCTYPE svg PUBLIC "-//W3C//DTD SVG 1.1//EN" "http://www.w3.org/Graphics/SVG/1.1/DTD/svg11.dtd"><svg width="100%" height="100%" viewBox="0 0 5767 1013" version="1.1" xmlns="http://www.w3.org/2000/svg" xmlns:xlink="http://www.w3.org/1999/xlink" xml:space="preserve" xmlns:serif="http://www.serif.com/" style="fill-rule:evenodd;clip-rule:evenodd;stroke-linejoin:round;stroke-miterlimit:2;"><path d="M349.025,156.972c46.536,-0 90.746,8.997 132.629,26.991c41.883,17.994 78.957,42.659 111.222,73.993c32.266,31.335 57.861,68.254 76.786,110.758c18.925,42.503 28.387,88.264 28.387,137.283c0,46.536 -8.997,90.746 -26.991,132.629c-17.994,41.883 -42.659,78.957 -73.993,111.222c-31.335,32.266 -68.254,57.861 -110.757,76.786c-42.504,18.925 -88.265,28.387 -137.283,28.387c-46.537,0 -90.902,-8.997 -133.095,-26.991c-42.193,-17.994 -79.267,-42.814 -111.223,-74.459c-31.955,-31.645 -57.395,-68.719 -76.32,-111.222c-18.925,-42.504 -28.387,-87.954 -28.387,-136.352c-0,-47.158 8.997,-91.678 26.991,-133.561c17.994,-41.883 42.659,-78.646 73.993,-110.291c31.335,-31.645 68.254,-56.775 110.758,-75.39c42.503,-18.614 88.264,-28.542 137.283,-29.783Zm0.465,581.708c30.346,-0 59.606,-6.038 87.78,-18.113c28.174,-12.076 52.942,-28.64 74.306,-49.693c21.363,-21.053 38.392,-45.669 51.088,-73.848c12.696,-28.178 19.044,-58.367 19.044,-90.564c-0,-30.966 -6.038,-60.536 -18.113,-88.711c-12.076,-28.174 -28.64,-52.942 -49.693,-74.305c-21.053,-21.364 -45.669,-38.393 -73.847,-51.089c-28.179,-12.696 -58.368,-19.044 -90.565,-19.044c-30.966,0 -60.536,6.038 -88.71,18.113c-28.174,12.076 -52.943,28.64 -74.306,49.693c-21.364,21.053 -38.393,45.824 -51.089,74.313c-12.696,28.489 -19.043,58.832 -19.043,91.03c-0,31.577 6.037,61.145 18.112,88.703c12.076,27.558 28.64,51.864 49.693,72.917c21.053,21.053 45.669,37.772 73.848,50.158c28.179,12.385 58.677,19.199 91.495,20.44Z" style="fill:url(#_Linear1);fill-rule:nonzero;"/><path d="M930.975,565.563l0,289.458l-116.341,0l-0,-698.049l350.886,-0l-0,0.931c35.988,1.861 68.253,10.238 96.796,25.129c11.789,6.205 23.578,14.117 35.368,23.734c11.789,9.618 22.182,21.562 31.179,35.833c8.997,14.272 16.288,31.025 21.872,50.26c5.585,19.235 8.377,41.573 8.377,67.013c0,26.06 -2.792,48.708 -8.377,67.943c-5.584,19.235 -12.875,36.143 -21.872,50.725c-8.997,14.581 -19.39,26.836 -31.179,36.764c-11.79,9.928 -23.579,17.994 -35.368,24.199c-28.543,15.512 -60.808,24.199 -96.796,26.06l-234.545,0Zm0,-292.25l0,175.909l226.168,-0c0.621,-0 5.585,-0.468 14.892,-1.404c9.307,-0.935 19.08,-4.21 29.318,-9.823c10.238,-5.614 19.7,-14.346 28.387,-26.199c8.687,-11.852 13.031,-29.005 13.031,-51.459c-0,-21.834 -4.499,-38.521 -13.496,-50.063c-8.997,-11.542 -18.77,-20.12 -29.318,-25.734c-12.41,-6.864 -26.681,-10.606 -42.814,-11.227l-226.168,0Z" style="fill:url(#_Linear2);fill-rule:nonzero;"/><path d="M1475.7,855.021l-0,-116.341l466.296,-0l0,116.341l-466.296,0Zm466.296,-407.826l0,116.342l-466.296,0.165l-0,-116.342l466.296,-0.165Zm-466.296,-290.223l466.296,-0l0,116.341l-466.296,0l-0,-116.341Z" style="fill:url(#_Linear3);fill-rule:nonzero;"/><path d="M2525.81,156.041l116.341,0l0,698.98l-467.228,-433.721l0,433.721l-116.341,0l-0,-698.98l467.228,433.721l-0,-433.721Z" style="fill:url(#_Linear4);fill-rule:nonzero;"/><path d="M3365.57,467.837l-0,285.051c-21.097,19.186 -44.675,36.206 -70.736,51.059c-22.337,13.001 -49.328,24.764 -80.973,35.288c-31.645,10.524 -67.013,15.786 -106.104,15.786c-45.916,0 -89.816,-9.152 -131.698,-27.456c-41.883,-18.305 -78.958,-43.28 -111.223,-74.924c-32.265,-31.645 -58.016,-68.72 -77.251,-111.223c-19.235,-42.503 -28.852,-87.954 -28.852,-136.352c-0,-45.296 9.152,-88.885 27.456,-130.768c18.305,-41.883 43.279,-78.957 74.924,-111.223c31.645,-32.265 68.719,-58.015 111.223,-77.25c42.503,-19.236 87.644,-28.853 135.421,-28.853c55.224,-0 104.087,10.393 146.59,31.179c42.504,20.787 79.578,49.174 111.223,85.162c-0,0.621 -4.654,4.344 -13.961,11.169c-9.307,6.826 -19.545,14.271 -30.714,22.338c-13.03,9.307 -28.232,19.855 -45.606,31.645c-19.235,-19.856 -43.744,-35.678 -73.528,-47.468c-29.783,-11.789 -61.118,-17.684 -94.004,-17.684c-28.542,0 -56.619,6.205 -84.231,18.615c-27.612,12.41 -52.431,29.008 -74.459,49.794c-22.027,20.787 -39.866,45.296 -53.517,73.528c-13.651,28.232 -20.476,58.171 -20.476,89.816c0,29.163 6.205,57.705 18.615,85.627c12.409,27.922 29.163,52.897 50.259,74.924c21.097,22.027 45.761,39.711 73.993,53.052c28.233,13.34 58.171,20.011 89.816,20.011c26.681,-0 52.276,-3.413 76.786,-10.238c24.509,-6.826 46.691,-16.443 66.547,-28.853l-0,-115.411l-143.333,0l0,-116.341l257.813,-0Z" style="fill:url(#_Linear5);fill-rule:nonzero;"/><rect x="3482.15" y="156.972" width="116.342" height="698.049" style="fill:url(#_Linear6);fill-rule:nonzero;"/><path d="M4182.31,156.041l116.342,0l-0,698.98l-467.228,-433.721l0,433.721l-116.341,0l-0,-698.98l467.227,433.721l0,-433.721Z" style="fill:url(#_Linear7);fill-rule:nonzero;"/><path d="M4881.53,273.313l-349.955,0l-0,174.047l297.834,0l-0,116.342l-297.834,-0l-0,174.978l349.955,-0l-0,116.341l-466.297,0l0,-698.049l466.297,-0l-0,116.341Z" style="fill:url(#_Linear8);fill-rule:nonzero;"/><path d="M5100.91,156.041l666.067,856.104l-104.833,-0l-664.03,-856.104l102.796,0Zm-104.388,-156.041l103.426,0l665.949,855.952l-105.463,-0l-663.912,-855.952Zm280.736,541.193l77.327,99.641l-167.568,215.118l-154.502,-0l244.743,-314.759Zm131.721,-169.328l167.084,-214.893l155.432,-0l-244.955,314.463l-77.561,-99.57Z" style="fill:url(#_Linear9);"/><defs><linearGradient id="_Linear1" x1="0" y1="0" x2="1" y2="0" gradientUnits="userSpaceOnUse" gradientTransform="matrix(6.56276e-14,1071.78,-1071.78,6.56276e-14,2750.04,-29.8935)"><stop offset="0" style="stop-color:#ef4136;stop-opacity:1"/><stop offset="1" style="stop-color:#692d8f;stop-opacity:1"/></linearGradient><linearGradient id="_Linear2" x1="0" y1="0" x2="1" y2="0" gradientUnits="userSpaceOnUse" gradientTransform="matrix(6.56276e-14,1071.78,-1071.78,6.56276e-14,2707.47,-29.8935)"><stop offset="0" style="stop-color:#ef4136;stop-opacity:1"/><stop offset="1" style="stop-color:#692d8f;stop-opacity:1"/></linearGradient><linearGradient id="_Linear3" x1="0" y1="0" x2="1" y2="0" gradientUnits="userSpaceOnUse" gradientTransform="matrix(6.56276e-14,1071.78,-1071.78,6.56276e-14,2650,-29.8935)"><stop offset="0" style="stop-color:#ef4136;stop-opacity:1"/><stop offset="1" style="stop-color:#692d8f;stop-opacity:1"/></linearGradient><linearGradient id="_Linear4" x1="0" y1="0" x2="1" y2="0" gradientUnits="userSpaceOnUse" gradientTransform="matrix(6.56276e-14,1071.78,-1071.78,6.56276e-14,2573,-29.8935)"><stop offset="0" style="stop-color:#ef4136;stop-opacity:1"/><stop offset="1" style="stop-color:#692d8f;stop-opacity:1"/></linearGradient><linearGradient id="_Linear5" x1="0" y1="0" x2="1" y2="0" gradientUnits="userSpaceOnUse" gradientTransform="matrix(6.56276e-14,1071.78,-1071.78,6.56276e-14,2531.36,-29.8935)"><stop offset="0" style="stop-color:#ef4136;stop-opacity:1"/><stop offset="1" style="stop-color:#692d8f;stop-opacity:1"/></linearGradient><linearGradient id="_Linear6" x1="0" y1="0" x2="1" y2="0" gradientUnits="userSpaceOnUse" gradientTransform="matrix(6.56276e-14,1071.78,-1071.78,6.56276e-14,2488.79,-29.8935)"><stop offset="0" style="stop-color:#ef4136;stop-opacity:1"/><stop offset="1" style="stop-color:#692d8f;stop-opacity:1"/></linearGradient><linearGradient id="_Linear7" x1="0" y1="0" x2="1" y2="0" gradientUnits="userSpaceOnUse" gradientTransform="matrix(6.56276e-14,1071.78,-1071.78,6.56276e-14,2412.71,-29.8935)"><stop offset="0" style="stop-color:#ef4136;stop-opacity:1"/><stop offset="1" style="stop-color:#692d8f;stop-opacity:1"/></linearGradient><linearGradient id="_Linear8" x1="0" y1="0" x2="1" y2="0" gradientUnits="userSpaceOnUse" gradientTransform="matrix(6.56276e-14,1071.78,-1071.78,6.56276e-14,2335.7,-29.8935)"><stop offset="0" style="stop-color:#ef4136;stop-opacity:1"/><stop offset="1" style="stop-color:#692d8f;stop-opacity:1"/></linearGradient><linearGradient id="_Linear9" x1="0" y1="0" x2="1" y2="0" gradientUnits="userSpaceOnUse" gradientTransform="matrix(-16.7954,1071.78,-1071.78,-16.7954,5367.88,-29.8935)"><stop offset="0" style="stop-color:#ef4136;stop-opacity:1"/><stop offset="1" style="stop-color:#692d8f;stop-opacity:1"/></linearGradient></defs></svg>