# Blender v2.83.0 OBJ File: ''
# www.blender.org
o barricade_beam_Mesh.327
v 0.271271 0.481495 0.080004
v 0.271271 0.658827 0.025496
v -0.345042 0.635089 0.071705
v -0.345042 0.460044 0.014892
v 0.271271 0.651324 -0.073086
v 0.271271 0.446258 -0.005537
v -0.345042 0.488459 -0.080004
v -0.345042 0.661689 -0.030575
v 0.271271 0.675723 -0.005797
v 0.271271 0.671835 -0.050143
v -0.345042 0.688419 -0.002742
v -0.345042 0.662886 0.045766
v -0.345042 0.435857 -0.014703
v -0.345042 0.468446 -0.075052
v 0.271271 0.441272 0.036376
v 0.271271 0.465640 0.075305
v 0.888358 0.451463 0.048343
v 0.888358 0.672914 0.048343
v -0.888358 0.672914 0.048343
v -0.888358 0.451463 0.048342
v 0.888358 0.672914 -0.043928
v 0.888358 0.473674 -0.043928
v -0.888358 0.473674 -0.043929
v -0.888358 0.672914 -0.043929
v 0.888358 0.685217 0.036040
v 0.888358 0.685217 -0.031625
v -0.888358 0.685217 -0.031626
v -0.888358 0.685217 0.036040
v -0.888358 0.439160 0.036040
v -0.888358 0.439160 -0.031626
v 0.888358 0.439161 -0.031626
v 0.888358 0.439160 0.036040
vt 0.214653 0.818436
vt 0.214653 0.726609
vt 0.417275 0.726601
vt 0.417275 0.817584
vt 0.214653 0.975924
vt 0.214653 0.868969
vt 0.417275 0.879530
vt 0.417275 0.968474
vt 0.214653 0.708950
vt 0.214653 0.677826
vt 0.417275 0.677826
vt 0.417275 0.707765
vt 0.417275 0.836749
vt 0.417275 0.870075
vt 0.214653 0.848818
vt 0.214653 0.826759
vt 0.011516 0.825750
vt 0.011516 0.716363
vt 0.619973 0.710281
vt 0.619973 0.819414
vt 0.011516 0.980915
vt 0.011516 0.882527
vt 0.619973 0.878263
vt 0.619973 0.976748
vt 0.011516 0.707856
vt 0.011516 0.677826
vt 0.619973 0.677826
vt 0.619973 0.701793
vt 0.619973 0.827539
vt 0.619973 0.860284
vt 0.011516 0.866710
vt 0.011516 0.833891
vt 0.619973 0.988080
vt 0.417275 0.988080
vt 0.214653 0.988080
vt 0.011516 0.988080
vn 0.0489 0.2426 0.9689
vn 0.0508 0.2618 0.9638
vn -0.0633 -0.2574 0.9642
vn -0.0603 -0.2708 0.9607
vn 0.0616 -0.2636 -0.9627
vn 0.0623 -0.2815 -0.9575
vn -0.0508 0.2155 -0.9752
vn -0.0559 0.2439 -0.9682
vn 0.0055 0.9973 -0.0728
vn 0.0047 0.9964 -0.0842
vn -0.0046 0.8904 0.4551
vn -0.0024 0.8936 0.4489
vn -0.0023 -0.8889 -0.4581
vn 0.0014 -0.8893 -0.4573
vn 0.0111 -0.8622 0.5064
vn 0.0073 -0.8579 0.5138
vn -0.0183 0.0555 0.9983
vn -0.0370 -0.0000 0.9993
vn 0.0357 -0.0655 0.9972
vn 0.0615 -0.0000 0.9981
vn -0.0371 -0.0678 -0.9970
vn -0.0621 0.0000 -0.9981
vn 0.0050 0.0564 -0.9984
vn 0.0246 0.0000 -0.9997
vn -0.0211 0.9998 -0.0041
vn -0.0217 0.9998 0.0000
vn 0.0367 0.9989 0.0306
vn 0.0411 0.9992 0.0000
vn 0.0457 -0.9982 -0.0396
vn 0.0538 -0.9986 -0.0000
vn -0.0383 -0.9989 0.0265
vn -0.0429 -0.9991 -0.0000
vn 0.0612 -0.7090 0.7026
vn 0.0616 -0.7057 0.7058
vn -0.0006 -0.7736 0.6336
vn -0.0033 -0.7714 0.6363
vn -0.0580 0.7133 0.6984
vn -0.0587 0.7059 0.7059
vn -0.0086 0.8786 0.4774
vn -0.0074 0.8770 0.4804
vn 0.0333 0.7074 -0.7061
vn 0.0334 0.7067 -0.7067
vn -0.0006 0.7211 -0.6928
vn -0.0016 0.7216 -0.6923
vn -0.1006 -0.3716 -0.9229
vn -0.1044 -0.3339 -0.9368
vn 0.0054 -0.9906 -0.1364
vn 0.0077 -0.9918 -0.1273
vn -0.0214 -0.2941 0.9555
vn -0.0215 -0.2883 0.9573
vn 0.0027 -0.7011 0.7131
vn 0.0019 -0.7071 0.7071
vn 0.0217 0.6862 0.7271
vn 0.0218 0.6824 0.7307
vn 0.0186 0.7059 0.7081
vn 0.0188 0.7070 0.7070
vn -0.0150 0.7450 -0.6669
vn -0.0147 0.7451 -0.6668
vn 0.0085 0.7084 -0.7058
vn 0.0087 0.7071 -0.7071
vn 0.0171 -0.2586 -0.9658
vn 0.0168 -0.2423 -0.9701
vn -0.0536 -0.3329 -0.9414
vn -0.0533 -0.3353 -0.9406
s 1
f 1/1/1 2/2/2 3/3/3
f 3/3/3 4/4/4 1/1/1
f 5/5/5 6/6/6 7/7/7
f 7/7/7 8/8/8 5/5/5
f 9/9/9 10/10/10 11/11/11
f 11/11/11 12/12/12 9/9/9
f 13/13/13 14/14/14 15/15/15
f 15/15/15 16/16/16 13/13/13
f 17/17/17 18/18/18 2/2/2
f 2/2/2 1/1/1 17/17/17
f 19/19/19 20/20/20 4/4/4
f 4/4/4 3/3/3 19/19/19
f 21/21/21 22/22/22 6/6/6
f 6/6/6 5/5/5 21/21/21
f 23/23/23 24/24/24 8/8/8
f 8/8/8 7/7/7 23/23/23
f 25/25/25 26/26/26 10/10/10
f 10/10/10 9/9/9 25/25/25
f 27/27/27 28/28/28 12/12/12
f 12/12/12 11/11/11 27/27/27
f 29/29/29 30/30/30 14/14/14
f 14/14/14 13/13/13 29/29/29
f 31/31/31 32/32/32 16/16/16
f 16/16/16 15/15/15 31/31/31
f 20/20/33 29/29/34 13/13/35
f 13/13/35 4/4/36 20/20/33
f 18/18/37 25/25/38 9/9/39
f 9/9/39 2/2/40 18/18/37
f 24/24/41 27/33/42 11/34/43
f 11/34/43 8/8/44 24/24/41
f 22/22/45 31/31/46 15/15/47
f 15/15/47 6/6/48 22/22/45
f 4/4/36 13/13/35 16/16/49
f 16/16/49 1/1/50 4/4/36
f 1/1/50 16/16/49 32/32/51
f 32/32/51 17/17/52 1/1/50
f 2/2/40 9/9/39 12/12/53
f 12/12/53 3/3/54 2/2/40
f 3/3/54 12/12/53 28/28/55
f 28/28/55 19/19/56 3/3/54
f 8/8/44 11/34/43 10/35/57
f 10/35/57 5/5/58 8/8/44
f 5/5/58 10/35/57 26/36/59
f 26/36/59 21/21/60 5/5/58
f 6/6/48 15/15/47 14/14/61
f 14/14/61 7/7/62 6/6/48
f 7/7/62 14/14/61 30/30/63
f 30/30/63 23/23/64 7/7/62
