# Blender v2.83.0 OBJ File: ''
# www.blender.org
o Fence_#3_Mesh.297
v -0.054792 0.399988 -0.408671
v -0.092823 0.799976 -0.441741
v -0.071570 0.799975 -0.521468
v -0.079017 0.399988 -0.532932
v 0.044987 0.399988 -0.417090
v 0.039989 0.799976 -0.405769
v -0.066136 0.799976 -0.405990
v -0.042170 0.399988 -0.401722
v 0.061715 0.399988 -0.555356
v 0.091570 0.799976 -0.535025
v 0.075848 0.799976 -0.427717
v 0.058317 0.399988 -0.434338
v -0.067006 0.399988 -0.550085
v -0.053963 0.799976 -0.552831
v 0.074998 0.799976 -0.553810
v 0.044562 0.399988 -0.567366
v -0.086577 1.199963 -0.414876
v -0.086577 1.199963 -0.552014
v -0.086577 0.000000 -0.533861
v -0.086577 0.000000 -0.436095
v 0.067704 1.199963 -0.397734
v -0.069434 1.199963 -0.397734
v -0.060933 0.000000 -0.397733
v 0.067704 0.000000 -0.397733
v 0.084847 1.199963 -0.552014
v 0.084847 1.199963 -0.414876
v 0.084847 0.000000 -0.414876
v 0.084847 0.000000 -0.525755
v -0.069434 1.199963 -0.569157
v 0.067704 1.199963 -0.569157
v 0.032455 0.000000 -0.569157
v -0.054987 0.000000 -0.569157
v -0.087746 1.158981 -0.564600
v 0.087974 1.158981 -0.564600
v 0.087974 1.158981 -0.388880
v -0.087746 1.158981 -0.388880
v -0.101722 1.461927 -0.579888
v -0.097631 1.467853 -0.375452
v 0.093950 1.461927 -0.386044
v 0.073077 1.448035 -0.571289
v -0.097789 1.246870 -0.378481
v -0.093751 1.322341 -0.381453
v -0.095316 1.319992 -0.572698
v -0.098180 1.246283 -0.575166
v 0.097752 1.246283 -0.379573
v 0.092918 1.319992 -0.385821
v 0.095626 1.244872 -0.574275
v 0.084417 1.314350 -0.569133
v -0.103972 1.391575 -0.369453
v -0.120611 1.438559 -0.351052
v -0.126072 1.430360 -0.604767
v -0.107494 1.386290 -0.585535
v -0.109902 1.187281 -0.586765
v -0.109875 1.187322 -0.366726
v 0.101813 1.386290 -0.379281
v 0.117135 1.430360 -0.366294
v 0.110084 1.187281 -0.366802
v 0.082686 1.373596 -0.577515
v 0.087469 1.410672 -0.592329
v 0.109936 1.187183 -0.586704
vt 0.275911 0.274999
vt 0.276369 0.224677
vt 0.531501 0.218189
vt 0.531019 0.303386
vt 0.276284 0.369830
vt 0.276028 0.303901
vt 0.531116 0.315689
vt 0.531282 0.375070
vt 0.276187 0.092851
vt 0.276176 0.024459
vt 0.531224 0.024459
vt 0.531242 0.110817
vt 0.276282 0.196438
vt 0.276227 0.111701
vt 0.531348 0.125137
vt 0.531420 0.203192
vt 0.276176 0.397304
vt 0.531224 0.397304
vt 0.020970 0.286193
vt 0.020970 0.216363
vt 0.786477 0.216363
vt 0.786477 0.286193
vt 0.020970 0.379562
vt 0.020970 0.306390
vt 0.786477 0.306390
vt 0.786477 0.379562
vt 0.020970 0.100392
vt 0.020970 0.024459
vt 0.786477 0.024459
vt 0.786477 0.100392
vt 0.020970 0.196281
vt 0.020970 0.122261
vt 0.786477 0.122262
vt 0.786477 0.196281
vt 0.020970 0.397304
vt 0.786477 0.397304
vt 0.974391 0.368318
vt 0.806764 0.368318
vt 0.806764 0.213004
vt 0.974391 0.213004
vt 0.806764 0.213004
vt 0.974391 0.213004
vt 0.974391 0.368318
vt 0.806764 0.368318
vt 0.810489 0.856223
vt 0.972647 0.856223
vt 0.972647 0.790956
vt 0.810489 0.790956
vt 0.640705 0.856223
vt 0.640705 0.790956
vt 0.810489 0.857010
vt 0.971455 0.857010
vt 0.971455 0.791744
vt 0.810489 0.791744
vt 0.643497 0.857010
vt 0.643497 0.791744
vt 0.810489 0.951519
vt 0.972647 0.951519
vt 0.972647 0.914364
vt 0.810489 0.914364
vt 0.972647 0.741202
vt 0.810489 0.741202
vt 0.640705 0.951519
vt 0.640705 0.914364
vt 0.640705 0.741202
vt 0.810489 0.952307
vt 0.971455 0.952307
vt 0.971455 0.915151
vt 0.810489 0.915151
vt 0.971455 0.741989
vt 0.810489 0.741989
vt 0.643497 0.952307
vt 0.643497 0.915151
vt 0.643497 0.741989
vt 0.972647 0.983147
vt 0.810489 0.983147
vt 0.640705 0.983147
vt 0.971455 0.983934
vt 0.810489 0.983934
vt 0.643497 0.983934
vt 0.643497 0.712058
vt 0.810489 0.712058
vt 0.971455 0.712058
vt 0.640705 0.711271
vt 0.810489 0.711271
vt 0.972647 0.711271
vn -0.9977 -0.0010 0.0675
vn -0.9283 -0.0851 -0.3619
vn -0.9730 0.1183 -0.1981
vn -0.8035 0.1101 0.5850
vn 0.1920 -0.0189 0.9812
vn -0.4474 -0.1045 0.8882
vn -0.1425 0.1097 0.9837
vn 0.4980 0.1270 0.8578
vn 0.9736 -0.0176 -0.2277
vn 0.8341 -0.1334 0.5352
vn 0.9439 0.0951 0.3163
vn 0.8830 0.0684 -0.4643
vn -0.4103 -0.0177 -0.9118
vn 0.4142 -0.0768 -0.9069
vn 0.2194 0.0386 -0.9749
vn -0.5312 0.0676 -0.8445
vn -0.9465 0.0419 0.3201
vn -0.8966 0.0331 -0.4415
vn -0.9561 -0.0139 -0.2928
vn -0.9172 -0.0625 0.3935
vn 0.3942 -0.0455 0.9179
vn -0.4214 0.0097 0.9068
vn -0.4292 -0.0040 0.9032
vn 0.4225 0.0364 0.9056
vn 0.9374 0.0266 -0.3473
vn 0.8928 0.0188 0.4500
vn 0.9215 0.0668 0.3827
vn 0.9058 0.0024 -0.4238
vn -0.3858 -0.0489 -0.9213
vn 0.3918 -0.0136 -0.9200
vn 0.2837 -0.0314 -0.9584
vn -0.4275 0.0021 -0.9040
vn -0.3476 -0.8709 -0.3475
vn 0.3487 -0.8707 -0.3469
vn 0.3479 -0.8705 0.3482
vn -0.3481 -0.8706 0.3476
vn -0.3146 0.8753 -0.3673
vn -0.3152 0.8815 0.3516
vn 0.4265 0.8556 0.2934
vn 0.4677 0.7670 -0.4393
vn -0.7690 -0.0929 0.6324
vn -0.7277 -0.2374 -0.6435
vn -0.7446 0.2317 -0.6260
vn -0.6766 0.2677 0.6859
vn 0.6612 -0.0261 0.7498
vn 0.6879 0.2822 0.6687
vn 0.7880 0.0455 -0.6140
vn 0.6790 0.3120 -0.6646
vn -0.6763 0.1549 0.7201
vn -0.6900 0.1146 -0.7147
vn -0.7355 -0.4236 -0.5287
vn -0.6575 -0.2679 0.7042
vn -0.6894 -0.2302 -0.6868
vn -0.6890 -0.2226 0.6898
vn 0.7531 0.1457 0.6416
vn 0.7363 -0.2083 0.6437
vn 0.6927 -0.2092 0.6902
vn 0.6780 0.0787 -0.7308
vn 0.6890 -0.1093 -0.7165
vn 0.6958 -0.2068 -0.6878
s 1
f 2/1/1 3/2/2 4/3/3
f 4/3/3 1/4/4 2/1/1
f 6/5/5 7/6/6 8/7/7
f 8/7/7 5/8/8 6/5/5
f 10/9/9 11/10/10 12/11/11
f 12/11/11 9/12/12 10/9/9
f 14/13/13 15/14/14 16/15/15
f 16/15/15 13/16/16 14/13/13
f 7/6/6 2/1/1 1/4/4
f 1/4/4 8/7/7 7/6/6
f 13/16/16 4/3/3 3/2/2
f 3/2/2 14/13/13 13/16/16
f 11/17/10 6/5/5 5/8/8
f 5/8/8 12/18/11 11/17/10
f 15/14/14 10/9/9 9/12/12
f 9/12/12 16/15/15 15/14/14
f 17/19/17 18/20/18 3/2/2
f 3/2/2 2/1/1 17/19/17
f 19/21/19 20/22/20 1/4/4
f 1/4/4 4/3/3 19/21/19
f 21/23/21 22/24/22 7/6/6
f 7/6/6 6/5/5 21/23/21
f 23/25/23 24/26/24 5/8/8
f 5/8/8 8/7/7 23/25/23
f 25/27/25 26/28/26 11/10/10
f 11/10/10 10/9/9 25/27/25
f 27/29/27 28/30/28 9/12/12
f 9/12/12 12/11/11 27/29/27
f 29/31/29 30/32/30 15/14/14
f 15/14/14 14/13/13 29/31/29
f 31/33/31 32/34/32 13/16/16
f 13/16/16 16/15/15 31/33/31
f 22/24/22 17/19/17 2/1/1
f 2/1/1 7/6/6 22/24/22
f 20/22/20 23/25/23 8/7/7
f 8/7/7 1/4/4 20/22/20
f 32/34/32 19/21/19 4/3/3
f 4/3/3 13/16/16 32/34/32
f 18/20/18 29/31/29 14/13/13
f 14/13/13 3/2/2 18/20/18
f 26/35/26 21/23/21 6/5/5
f 6/5/5 11/17/10 26/35/26
f 24/26/24 27/36/27 12/18/11
f 12/18/11 5/8/8 24/26/24
f 30/32/30 25/27/25 10/9/9
f 10/9/9 15/14/14 30/32/30
f 28/30/28 31/33/31 16/15/15
f 16/15/15 9/12/12 28/30/28
f 33/37/33 34/38/34 35/39/35
f 35/39/35 36/40/36 33/37/33
f 37/41/37 38/42/38 39/43/39
f 39/43/39 40/44/40 37/41/37
f 42/45/41 43/46/42 44/47/43
f 44/47/43 41/48/44 42/45/41
f 46/49/45 42/45/41 41/48/44
f 41/48/44 45/50/46 46/49/45
f 48/51/47 46/52/45 45/53/46
f 45/53/46 47/54/48 48/51/47
f 43/55/42 48/51/47 47/54/48
f 47/54/48 44/56/43 43/55/42
f 50/57/49 51/58/50 52/59/51
f 52/59/51 49/60/52 50/57/49
f 49/60/52 52/59/51 43/46/42
f 43/46/42 42/45/41 49/60/52
f 53/61/53 54/62/54 41/48/44
f 41/48/44 44/47/43 53/61/53
f 56/63/55 50/57/49 49/60/52
f 49/60/52 55/64/56 56/63/55
f 55/64/56 49/60/52 42/45/41
f 42/45/41 46/49/45 55/64/56
f 54/62/54 57/65/57 45/50/46
f 45/50/46 41/48/44 54/62/54
f 59/66/58 56/67/55 55/68/56
f 55/68/56 58/69/59 59/66/58
f 58/69/59 55/68/56 46/52/45
f 46/52/45 48/51/47 58/69/59
f 57/70/57 60/71/60 47/54/48
f 47/54/48 45/53/46 57/70/57
f 51/72/50 59/66/58 58/69/59
f 58/69/59 52/73/51 51/72/50
f 52/73/51 58/69/59 48/51/47
f 48/51/47 43/55/42 52/73/51
f 60/71/60 53/74/53 44/56/43
f 44/56/43 47/54/48 60/71/60
f 37/75/37 51/58/50 50/57/49
f 50/57/49 38/76/38 37/75/37
f 38/76/38 50/57/49 56/63/55
f 56/63/55 39/77/39 38/76/38
f 39/78/39 56/67/55 59/66/58
f 59/66/58 40/79/40 39/78/39
f 40/79/40 59/66/58 51/72/50
f 51/72/50 37/80/37 40/79/40
f 33/81/33 53/74/53 60/71/60
f 60/71/60 34/82/34 33/81/33
f 34/82/34 60/71/60 57/70/57
f 57/70/57 35/83/35 34/82/34
f 35/84/35 57/65/57 54/62/54
f 54/62/54 36/85/36 35/84/35
f 36/85/36 54/62/54 53/61/53
f 53/61/53 33/86/33 36/85/36
