# Blender v2.83.0 OBJ File: ''
# www.blender.org
o Fence_#1_-_Post_Mesh.272
v 0.046117 0.399659 -0.038964
v 0.482300 0.424459 -0.035334
v 0.482300 0.251915 -0.035334
v 0.046117 0.281014 -0.034259
v 0.046117 0.269324 0.033434
v 0.482300 0.251915 0.033925
v 0.482300 0.407154 0.033925
v 0.046117 0.407272 0.024954
v 0.046117 0.265387 -0.016247
v 0.482300 0.242329 -0.026100
v 0.482300 0.242329 0.024690
v 0.046117 0.260446 0.014296
v 0.046117 0.417296 -0.002352
v 0.482300 0.434045 0.024690
v 0.482300 0.434045 -0.026100
v 0.046117 0.408681 -0.032943
v 0.482300 0.353690 -0.035334
v 0.482300 0.309430 -0.035334
v 0.482300 0.303661 0.033925
v 0.482300 0.342153 0.033925
v 0.350385 0.324682 -0.028614
v 0.350385 0.317329 0.026355
v 0.439413 0.380772 -0.032580
v 0.482300 0.372862 -0.035334
v 0.482300 0.359402 0.033925
v 0.439413 0.366280 0.030822
v 0.263970 0.402380 -0.029428
v 0.263970 0.276128 -0.027540
v 0.263970 0.270459 0.025434
v 0.263970 0.399179 0.022030
v 0.263970 0.264732 -0.016870
v 0.263970 0.262336 0.014312
v 0.263970 0.414750 0.007629
v 0.263970 0.410573 -0.023571
v 0.079034 0.966674 -0.039525
v 0.461127 0.976934 -0.033556
v 0.461127 0.822653 -0.033556
v 0.079034 0.837511 -0.034821
v 0.079034 0.824785 0.032873
v 0.461127 0.822653 0.030728
v 0.461127 0.961460 0.030728
v 0.079034 0.974962 0.024393
v 0.079034 0.820499 -0.016809
v 0.461127 0.814082 -0.024985
v 0.461127 0.814082 0.022156
v 0.079034 0.815119 0.013735
v 0.079034 0.985875 -0.002913
v 0.461127 0.985505 0.022156
v 0.461127 0.985505 -0.024985
v 0.079034 0.976497 -0.033505
v 0.270081 0.961460 -0.036541
v 0.270081 0.839887 -0.034188
v 0.270081 0.834429 0.031800
v 0.270081 0.958378 0.027560
v 0.270081 0.828914 -0.020897
v 0.270081 0.826607 0.017946
v 0.270081 0.973372 0.009621
v 0.270081 0.969350 -0.029245
v 0.076108 0.394528 0.054509
v 0.043038 0.794516 0.092541
v -0.036689 0.794516 0.071288
v -0.048152 0.394528 0.078734
v 0.067689 0.394528 -0.045269
v 0.079011 0.794516 -0.040272
v 0.078789 0.794516 0.065853
v 0.083057 0.394528 0.041887
v -0.070576 0.394528 -0.061997
v -0.050246 0.794516 -0.091853
v 0.057062 0.794516 -0.076130
v 0.050441 0.394528 -0.058600
v -0.065305 0.394528 0.066724
v -0.068051 0.794516 0.053681
v -0.069031 0.794516 -0.075280
v -0.082587 0.394528 -0.044844
v 0.069904 1.194504 0.086294
v -0.067235 1.194504 0.086294
v -0.049081 -0.005459 0.086294
v 0.048685 -0.005459 0.086294
v 0.087046 1.194503 -0.067987
v 0.087046 1.194504 0.069152
v 0.087046 -0.005459 0.060651
v 0.087046 -0.005459 -0.067987
v -0.067235 1.194504 -0.085129
v 0.069904 1.194504 -0.085129
v 0.069904 -0.005459 -0.085129
v -0.040975 -0.005459 -0.085129
v -0.084377 1.194504 0.069152
v -0.084377 1.194504 -0.067987
v -0.084377 -0.005459 -0.032738
v -0.084377 -0.005459 0.054704
v -0.088846 1.153522 0.083278
v -0.088846 1.153522 -0.092442
v 0.086875 1.153522 -0.092442
v 0.086875 1.153522 0.083278
v -0.104134 1.456468 0.097253
v 0.100303 1.462393 0.093162
v 0.089711 1.456468 -0.098418
v -0.095534 1.442576 -0.077546
v 0.097273 1.241410 0.093321
v 0.094302 1.316882 0.089283
v -0.096943 1.314533 0.090848
v -0.099412 1.240823 0.093712
v 0.096181 1.240823 -0.102220
v 0.089934 1.314533 -0.097386
v -0.098520 1.239413 -0.100095
v -0.093379 1.308891 -0.088885
v 0.106301 1.386116 0.099504
v 0.124703 1.433099 0.116142
v -0.129013 1.424901 0.121604
v -0.109780 1.380830 0.103025
v -0.111011 1.181822 0.105434
v 0.109028 1.181862 0.105407
v 0.096474 1.380830 -0.106281
v 0.109461 1.424901 -0.121603
v 0.108952 1.181822 -0.114553
v -0.101761 1.368136 -0.087154
v -0.116575 1.405212 -0.091938
v -0.110949 1.181723 -0.114405
vt 0.190959 0.481501
vt 0.190959 0.600304
vt 0.016925 0.596743
vt 0.016925 0.485302
vt 0.016925 0.594811
vt 0.190959 0.592988
vt 0.190959 0.475126
vt 0.016925 0.470261
vt 0.190959 0.612871
vt 0.190959 0.650894
vt 0.016925 0.650894
vt 0.016925 0.615778
vt 0.016925 0.453356
vt 0.190959 0.444880
vt 0.190959 0.471831
vt 0.016925 0.477798
vt 0.360133 0.614162
vt 0.360735 0.604104
vt 0.368978 0.467027
vt 0.190959 0.456479
vt 0.366876 0.488056
vt 0.016925 0.611245
vt 0.190959 0.611245
vt 0.441345 0.632305
vt 0.435623 0.640773
vt 0.397204 0.647466
vt 0.386675 0.628341
vt 0.381243 0.536320
vt 0.386515 0.433226
vt 0.429089 0.434068
vt 0.435136 0.537727
vt 0.385016 0.636904
vt 0.438066 0.633251
vt 0.431499 0.641078
vt 0.392595 0.643759
vt 0.435337 0.593614
vt 0.381981 0.592850
vt 0.437176 0.552305
vt 0.434510 0.585750
vt 0.384658 0.582835
vt 0.383078 0.549437
vt 0.430132 0.491754
vt 0.387558 0.490912
vt 0.367779 0.482425
vt 0.330451 0.511606
vt 0.359349 0.597982
vt 0.360489 0.557868
vt 0.258292 0.544352
vt 0.356518 0.650894
vt 0.368978 0.434332
vt 0.368510 0.473404
vt 0.016925 0.448003
vt 0.356518 0.611245
vt 0.329746 0.514904
vt 0.363027 0.535192
vt 0.363519 0.521565
vt 0.363402 0.534033
vt 0.258612 0.546925
vt 0.363933 0.518999
vt 0.361042 0.559467
vt 0.660758 0.642453
vt 0.660758 0.489557
vt 0.858202 0.489557
vt 0.858202 0.642453
vt 0.460889 0.638642
vt 0.658333 0.638642
vt 0.658333 0.495002
vt 0.460889 0.495002
vt 0.660758 0.469344
vt 0.660758 0.425888
vt 0.858202 0.425888
vt 0.858202 0.469344
vt 0.460889 0.468158
vt 0.658333 0.468158
vt 0.658333 0.427234
vt 0.460889 0.427234
vt 0.460889 0.469344
vt 0.460889 0.489557
vt 0.858202 0.468158
vt 0.858202 0.495002
vt 0.858202 0.654841
vt 0.660758 0.654841
vt 0.460889 0.655752
vt 0.658333 0.655752
vt 0.460889 0.642453
vt 0.858202 0.638642
vt 0.460889 0.425888
vt 0.858202 0.427234
vt 0.460889 0.654841
vt 0.858202 0.655752
vt 0.943443 0.641906
vt 0.932227 0.653122
vt 0.870541 0.653122
vt 0.859325 0.621658
vt 0.943443 0.440024
vt 0.859326 0.440024
vt 0.870541 0.428809
vt 0.932227 0.428809
vt 0.275911 0.274999
vt 0.276369 0.224677
vt 0.531501 0.218189
vt 0.531019 0.303386
vt 0.276284 0.369830
vt 0.276028 0.303901
vt 0.531116 0.315689
vt 0.531282 0.375070
vt 0.276187 0.092851
vt 0.276176 0.024459
vt 0.531224 0.024459
vt 0.531242 0.110817
vt 0.276282 0.196438
vt 0.276227 0.111701
vt 0.531348 0.125137
vt 0.531420 0.203192
vt 0.276176 0.397304
vt 0.531224 0.397304
vt 0.020970 0.286193
vt 0.020970 0.216363
vt 0.786477 0.216363
vt 0.786477 0.286193
vt 0.020970 0.379562
vt 0.020970 0.306390
vt 0.786477 0.306390
vt 0.786477 0.379562
vt 0.020970 0.100392
vt 0.020970 0.024459
vt 0.786477 0.024459
vt 0.786477 0.100392
vt 0.020970 0.196281
vt 0.020970 0.122261
vt 0.786477 0.122262
vt 0.786477 0.196281
vt 0.020970 0.397304
vt 0.786477 0.397304
vt 0.974391 0.368318
vt 0.806764 0.368318
vt 0.806764 0.213004
vt 0.974391 0.213004
vt 0.806764 0.213004
vt 0.974391 0.213004
vt 0.974391 0.368318
vt 0.806764 0.368318
vt 0.810489 0.856223
vt 0.972647 0.856223
vt 0.972647 0.790956
vt 0.810489 0.790956
vt 0.640705 0.856223
vt 0.640705 0.790956
vt 0.810489 0.857010
vt 0.971455 0.857010
vt 0.971455 0.791744
vt 0.810489 0.791744
vt 0.643497 0.857010
vt 0.643497 0.791744
vt 0.810489 0.951519
vt 0.972647 0.951519
vt 0.972647 0.914364
vt 0.810489 0.914364
vt 0.972647 0.741202
vt 0.810489 0.741202
vt 0.640705 0.951519
vt 0.640705 0.914364
vt 0.640705 0.741202
vt 0.810489 0.952307
vt 0.971455 0.952307
vt 0.971455 0.915151
vt 0.810489 0.915151
vt 0.971455 0.741989
vt 0.810489 0.741989
vt 0.643497 0.952307
vt 0.643497 0.915151
vt 0.643497 0.741989
vt 0.972647 0.983147
vt 0.810489 0.983147
vt 0.640705 0.983147
vt 0.971455 0.983934
vt 0.810489 0.983934
vt 0.643497 0.983934
vt 0.643497 0.712058
vt 0.810489 0.712058
vt 0.971455 0.712058
vt 0.640705 0.711271
vt 0.810489 0.711271
vt 0.972647 0.711271
vn -0.0081 0.2355 -0.9718
vn -0.0755 -0.3497 -0.9338
vn 0.0149 -0.4160 -0.9093
vn 0.0388 0.2663 -0.9631
vn 0.0112 -0.5196 0.8543
vn -0.0259 -0.3501 0.9364
vn -0.1096 0.3152 0.9427
vn -0.1615 0.5169 0.8407
vn -0.0562 -0.9254 -0.3748
vn -0.1167 -0.9551 0.2723
vn -0.0665 -0.9860 0.1531
vn -0.0276 -0.8932 -0.4489
vn -0.0472 0.9972 0.0588
vn -0.0525 0.9818 0.1824
vn -0.1333 0.8527 -0.5051
vn 0.0070 0.8071 -0.5904
vn 0.5681 -0.7562 -0.3246
vn 0.6025 -0.3177 -0.7322
vn 0.4616 0.7270 0.5084
vn 0.7035 -0.2318 0.6718
vn 0.6711 0.0835 -0.7367
vn 0.6014 0.7517 -0.2708
vn 0.5804 -0.5736 0.5780
vn 0.0341 0.0748 0.9966
vn 0.0687 -0.0395 -0.9969
vn 0.6363 -0.4727 -0.6097
vn 0.6058 -0.3085 0.7333
vn 0.6042 -0.7494 0.2706
vn 0.6014 0.4998 0.6233
vn 0.5948 0.5753 -0.5614
vn 0.5797 0.5904 -0.5616
vn 0.2972 0.0596 -0.9530
vn 0.2145 0.1340 0.9675
vn 0.6004 0.4645 0.6510
vn 0.0075 0.2868 -0.9580
vn -0.0560 -0.4194 -0.9061
vn 0.0054 -0.4079 -0.9130
vn 0.0221 0.2578 -0.9659
vn 0.0158 -0.5198 0.8541
vn -0.0085 -0.4029 0.9152
vn -0.1227 0.3527 0.9277
vn -0.0962 0.5487 0.8305
vn -0.0200 -0.9531 -0.3020
vn -0.0803 -0.9706 0.2270
vn 0.0027 -0.9881 0.1538
vn 0.0069 -0.8913 -0.4534
vn -0.0218 0.9972 0.0719
vn -0.0128 0.9856 0.1686
vn -0.0937 0.8919 -0.4424
vn -0.0286 0.8119 -0.5831
vn 0.5692 -0.7598 -0.3142
vn 0.6177 -0.3156 -0.7203
vn 0.4503 0.7383 0.5021
vn 0.6668 0.1412 0.7317
vn 0.6232 0.3061 -0.7196
vn 0.6230 -0.3096 0.7183
vn 0.5500 -0.7740 0.3137
vn 0.5763 0.7596 -0.3015
vn 0.0675 -0.0010 0.9977
vn -0.3619 -0.0851 0.9283
vn -0.1981 0.1183 0.9730
vn 0.5850 0.1101 0.8035
vn 0.9812 -0.0189 -0.1920
vn 0.8882 -0.1044 0.4475
vn 0.9837 0.1097 0.1425
vn 0.8578 0.1270 -0.4980
vn -0.2277 -0.0176 -0.9736
vn 0.5352 -0.1334 -0.8341
vn 0.3163 0.0951 -0.9439
vn -0.4643 0.0684 -0.8830
vn -0.9118 -0.0177 0.4103
vn -0.9069 -0.0768 -0.4142
vn -0.9749 0.0386 -0.2194
vn -0.8445 0.0676 0.5313
vn 0.3201 0.0419 0.9465
vn -0.4415 0.0331 0.8966
vn -0.2928 -0.0139 0.9561
vn 0.3935 -0.0625 0.9172
vn 0.9179 -0.0455 -0.3941
vn 0.9068 0.0097 0.4214
vn 0.9032 -0.0040 0.4292
vn 0.9056 0.0364 -0.4225
vn -0.3473 0.0266 -0.9374
vn 0.4500 0.0188 -0.8928
vn 0.3827 0.0668 -0.9215
vn -0.4238 0.0024 -0.9058
vn -0.9213 -0.0489 0.3858
vn -0.9200 -0.0136 -0.3918
vn -0.9584 -0.0314 -0.2837
vn -0.9040 0.0021 0.4275
vn -0.3475 -0.8709 0.3476
vn -0.3469 -0.8707 -0.3487
vn 0.3482 -0.8705 -0.3479
vn 0.3476 -0.8706 0.3481
vn -0.3661 0.8757 0.3147
vn 0.3528 0.8864 0.2996
vn 0.2740 0.8703 -0.4092
vn -0.4443 0.7756 -0.4484
vn 0.6324 -0.0929 0.7690
vn -0.6435 -0.2374 0.7277
vn -0.6260 0.2317 0.7446
vn 0.6859 0.2677 0.6766
vn 0.7498 -0.0261 -0.6612
vn 0.6687 0.2822 -0.6879
vn -0.6140 0.0455 -0.7880
vn -0.6646 0.3120 -0.6790
vn 0.7192 0.1550 0.6772
vn -0.7160 0.0971 0.6913
vn -0.5287 -0.4236 0.7355
vn 0.7042 -0.2679 0.6575
vn -0.6868 -0.2302 0.6894
vn 0.6898 -0.2224 0.6890
vn 0.6511 0.1483 -0.7443
vn 0.6437 -0.2083 -0.7363
vn 0.6902 -0.2092 -0.6927
vn -0.7119 0.0835 -0.6973
vn -0.7165 -0.1093 -0.6890
vn -0.6878 -0.2068 -0.6958
s 1
f 27/1/1 28/2/2 4/3/3
f 4/3/3 1/4/4 27/1/1
f 5/5/5 29/6/6 30/7/7
f 30/7/7 8/8/8 5/5/5
f 31/9/9 32/10/10 12/11/11
f 12/11/11 9/12/12 31/9/9
f 13/13/13 33/14/14 34/15/15
f 34/15/15 16/16/16 13/13/13
f 10/17/17 31/9/9 28/2/2
f 28/2/2 3/18/18 10/17/17
f 14/19/19 33/20/14 30/7/7
f 30/7/7 7/21/20 14/19/19
f 16/16/16 34/15/15 27/1/1
f 27/1/1 1/4/4 16/16/16
f 12/22/11 32/23/10 29/6/6
f 29/6/6 5/5/5 12/22/11
f 2/24/21 15/25/22 14/26/19
f 14/26/19 7/27/20 2/24/21
f 20/28/23 22/29/24 21/30/25
f 21/30/25 17/31/26 20/28/23
f 3/32/18 6/33/27 11/34/28
f 11/34/28 10/35/17 3/32/18
f 19/36/29 6/33/27 3/32/18
f 3/32/18 18/37/30 19/36/29
f 24/38/31 23/39/32 26/40/33
f 26/40/33 25/41/34 24/38/31
f 22/42/24 19/36/29 18/37/30
f 18/37/30 21/43/25 22/42/24
f 23/39/32 2/24/21 7/27/20
f 7/27/20 26/40/33 23/39/32
f 25/41/34 20/28/23 17/31/26
f 17/31/26 24/38/31 25/41/34
f 27/1/1 2/44/21 23/45/32
f 29/6/6 6/46/27 19/47/29
f 19/47/29 22/48/24 29/6/6
f 10/17/17 11/49/28 32/10/10
f 32/10/10 31/9/9 10/17/17
f 33/14/14 14/50/19 15/51/22
f 15/51/22 34/15/15 33/14/14
f 9/12/12 4/3/3 28/2/2
f 28/2/2 31/9/9 9/12/12
f 33/20/14 13/52/13 8/8/8
f 8/8/8 30/7/7 33/20/14
f 34/15/15 15/51/22 2/44/21
f 2/44/21 27/1/1 34/15/15
f 11/53/28 6/46/27 29/6/6
f 29/6/6 32/23/10 11/53/28
f 26/54/33 7/21/20 30/7/7
f 22/48/24 20/55/23 30/7/7
f 26/54/33 30/7/7 20/55/23
f 20/55/23 25/56/34 26/54/33
f 30/7/7 29/6/6 22/48/24
f 17/57/26 21/58/25 27/1/1
f 23/45/32 24/59/31 17/57/26
f 17/57/26 27/1/1 23/45/32
f 21/58/25 28/2/2 27/1/1
f 21/58/25 18/60/30 3/18/18
f 3/18/18 28/2/2 21/58/25
f 51/61/35 52/62/36 38/63/37
f 38/63/37 35/64/38 51/61/35
f 39/65/39 53/66/40 54/67/41
f 54/67/41 42/68/42 39/65/39
f 55/69/43 56/70/44 46/71/45
f 46/71/45 43/72/46 55/69/43
f 47/73/47 57/74/48 58/75/49
f 58/75/49 50/76/50 47/73/47
f 44/77/51 55/69/43 52/62/36
f 52/62/36 37/78/52 44/77/51
f 48/79/53 57/74/48 54/67/41
f 54/67/41 41/80/54 48/79/53
f 50/81/50 58/82/49 51/61/35
f 51/61/35 35/64/38 50/81/50
f 46/83/45 56/84/44 53/66/40
f 53/66/40 39/65/39 46/83/45
f 36/85/55 37/78/52 52/62/36
f 52/62/36 51/61/35 36/85/55
f 53/66/40 40/86/56 41/80/54
f 41/80/54 54/67/41 53/66/40
f 44/77/51 45/87/57 56/70/44
f 56/70/44 55/69/43 44/77/51
f 57/74/48 48/79/53 49/88/58
f 49/88/58 58/75/49 57/74/48
f 43/72/46 38/63/37 52/62/36
f 52/62/36 55/69/43 43/72/46
f 57/74/48 47/73/47 42/68/42
f 42/68/42 54/67/41 57/74/48
f 49/89/58 36/85/55 51/61/35
f 51/61/35 58/82/49 49/89/58
f 45/90/57 40/86/56 53/66/40
f 53/66/40 56/84/44 45/90/57
f 36/91/55 49/92/58 48/93/53
f 48/93/53 41/94/54 36/91/55
f 37/95/52 40/96/56 45/97/57
f 45/97/57 44/98/51 37/95/52
f 41/94/54 40/96/56 37/95/52
f 37/95/52 36/91/55 41/94/54
f 60/99/59 61/100/60 62/101/61
f 62/101/61 59/102/62 60/99/59
f 64/103/63 65/104/64 66/105/65
f 66/105/65 63/106/66 64/103/63
f 68/107/67 69/108/68 70/109/69
f 70/109/69 67/110/70 68/107/67
f 72/111/71 73/112/72 74/113/73
f 74/113/73 71/114/74 72/111/71
f 65/104/64 60/99/59 59/102/62
f 59/102/62 66/105/65 65/104/64
f 71/114/74 62/101/61 61/100/60
f 61/100/60 72/111/71 71/114/74
f 69/115/68 64/103/63 63/106/66
f 63/106/66 70/116/69 69/115/68
f 73/112/72 68/107/67 67/110/70
f 67/110/70 74/113/73 73/112/72
f 75/117/75 76/118/76 61/100/60
f 61/100/60 60/99/59 75/117/75
f 77/119/77 78/120/78 59/102/62
f 59/102/62 62/101/61 77/119/77
f 79/121/79 80/122/80 65/104/64
f 65/104/64 64/103/63 79/121/79
f 81/123/81 82/124/82 63/106/66
f 63/106/66 66/105/65 81/123/81
f 83/125/83 84/126/84 69/108/68
f 69/108/68 68/107/67 83/125/83
f 85/127/85 86/128/86 67/110/70
f 67/110/70 70/109/69 85/127/85
f 87/129/87 88/130/88 73/112/72
f 73/112/72 72/111/71 87/129/87
f 89/131/89 90/132/90 71/114/74
f 71/114/74 74/113/73 89/131/89
f 80/122/80 75/117/75 60/99/59
f 60/99/59 65/104/64 80/122/80
f 78/120/78 81/123/81 66/105/65
f 66/105/65 59/102/62 78/120/78
f 90/132/90 77/119/77 62/101/61
f 62/101/61 71/114/74 90/132/90
f 76/118/76 87/129/87 72/111/71
f 72/111/71 61/100/60 76/118/76
f 84/133/84 79/121/79 64/103/63
f 64/103/63 69/115/68 84/133/84
f 82/124/82 85/134/85 70/116/69
f 70/116/69 63/106/66 82/124/82
f 88/130/88 83/125/83 68/107/67
f 68/107/67 73/112/72 88/130/88
f 86/128/86 89/131/89 74/113/73
f 74/113/73 67/110/70 86/128/86
f 91/135/91 92/136/92 93/137/93
f 93/137/93 94/138/94 91/135/91
f 95/139/95 96/140/96 97/141/97
f 97/141/97 98/142/98 95/139/95
f 100/143/99 101/144/100 102/145/101
f 102/145/101 99/146/102 100/143/99
f 104/147/103 100/143/99 99/146/102
f 99/146/102 103/148/104 104/147/103
f 106/149/105 104/150/103 103/151/104
f 103/151/104 105/152/106 106/149/105
f 101/153/100 106/149/105 105/152/106
f 105/152/106 102/154/101 101/153/100
f 108/155/107 109/156/108 110/157/109
f 110/157/109 107/158/110 108/155/107
f 107/158/110 110/157/109 101/144/100
f 101/144/100 100/143/99 107/158/110
f 111/159/111 112/160/112 99/146/102
f 99/146/102 102/145/101 111/159/111
f 114/161/113 108/155/107 107/158/110
f 107/158/110 113/162/114 114/161/113
f 113/162/114 107/158/110 100/143/99
f 100/143/99 104/147/103 113/162/114
f 112/160/112 115/163/115 103/148/104
f 103/148/104 99/146/102 112/160/112
f 117/164/116 114/165/113 113/166/114
f 113/166/114 116/167/117 117/164/116
f 116/167/117 113/166/114 104/150/103
f 104/150/103 106/149/105 116/167/117
f 115/168/115 118/169/118 105/152/106
f 105/152/106 103/151/104 115/168/115
f 109/170/108 117/164/116 116/167/117
f 116/167/117 110/171/109 109/170/108
f 110/171/109 116/167/117 106/149/105
f 106/149/105 101/153/100 110/171/109
f 118/169/118 111/172/111 102/154/101
f 102/154/101 105/152/106 118/169/118
f 95/173/95 109/156/108 108/155/107
f 108/155/107 96/174/96 95/173/95
f 96/174/96 108/155/107 114/161/113
f 114/161/113 97/175/97 96/174/96
f 97/176/97 114/165/113 117/164/116
f 117/164/116 98/177/98 97/176/97
f 98/177/98 117/164/116 109/170/108
f 109/170/108 95/178/95 98/177/98
f 91/179/91 111/172/111 118/169/118
f 118/169/118 92/180/92 91/179/91
f 92/180/92 118/169/118 115/168/115
f 115/168/115 93/181/93 92/180/92
f 93/182/93 115/163/115 112/160/112
f 112/160/112 94/183/94 93/182/93
f 94/183/94 112/160/112 111/159/111
f 111/159/111 91/184/91 94/183/94
