# Blender v2.83.0 OBJ File: ''
# www.blender.org
o Fence_#1_-_Bars_Mesh.056
v 0.052552 0.422889 -0.024207
v 0.052552 0.260036 -0.032778
v 1.290359 0.414317 -0.032778
v 1.290359 0.251465 -0.024207
v 0.052552 0.398844 0.031506
v 0.052552 0.251465 0.022934
v 1.290358 0.422889 0.022935
v 1.290358 0.260036 0.031506
v 0.431071 0.424558 -0.004252
v 0.860445 0.404058 -0.038747
v 0.860445 0.257882 -0.016031
v 0.431071 0.277412 -0.039433
v 0.431071 0.249828 0.018096
v 0.860445 0.262168 0.033651
v 0.860445 0.423259 -0.002135
v 0.431071 0.396368 0.046915
v 0.052552 0.414317 -0.032778
v 0.052552 0.251465 -0.024207
v 1.290359 0.422889 -0.024207
v 1.290359 0.260036 -0.032778
v 0.052552 0.422889 0.022934
v 0.052552 0.260036 0.031506
v 1.290358 0.398844 0.031506
v 1.290358 0.251465 0.022935
v 0.431071 0.404383 -0.021631
v 0.860445 0.413881 -0.032726
v 0.860445 0.274895 -0.034042
v 0.431071 0.261478 -0.018274
v 0.431071 0.271535 0.033959
v 0.860445 0.252503 0.014513
v 0.860445 0.412346 0.025171
v 0.431071 0.409500 0.041096
v -0.084594 -0.005460 -0.049347
v -0.084594 -0.005460 0.048419
v 0.034438 -0.005460 -0.084643
v 0.069687 -0.005460 0.086780
v -0.084594 1.194503 -0.067501
v -0.067452 1.194503 0.086780
v 0.069687 1.194503 -0.084643
v 0.086829 1.194503 0.069638
v -0.053004 -0.005460 -0.084643
v -0.058951 -0.005460 0.086780
v 0.086829 -0.005460 -0.041241
v 0.086829 -0.005460 0.069638
v -0.067452 1.194503 -0.084643
v -0.084594 1.194503 0.069638
v 0.086829 1.194503 -0.067500
v 0.069687 1.194503 0.086780
v -0.052809 0.394528 0.075842
v -0.090841 0.794516 0.042773
v -0.069588 0.794515 -0.036954
v -0.077034 0.394528 -0.048418
v 0.046969 0.394528 0.067424
v 0.041972 0.794516 0.078745
v 0.063697 0.394528 -0.070842
v 0.093553 0.794516 -0.050511
v -0.040187 0.394528 0.082792
v -0.064153 0.794516 0.078524
v -0.051981 0.794516 -0.068317
v -0.065023 0.394528 -0.065571
v 0.060300 0.394528 0.050175
v 0.077830 0.794516 0.056797
v 0.046544 0.394528 -0.082852
v 0.076980 0.794516 -0.069296
v -0.110339 1.181821 -0.108856
v -0.088183 1.153521 0.089029
v 0.109500 1.181723 -0.108794
v 0.087537 1.153521 0.089030
v -0.102159 1.456467 -0.101979
v -0.121048 1.433099 0.126857
v 0.072640 1.442575 -0.093380
v 0.116698 1.424900 0.111615
v -0.098226 1.241410 0.099428
v -0.094188 1.316881 0.096456
v -0.104409 1.386115 0.108456
v -0.107930 1.380830 -0.107625
v -0.095753 1.314532 -0.094788
v -0.098617 1.240823 -0.097257
v 0.097315 1.240823 0.098336
v 0.092481 1.314532 0.092089
v 0.101376 1.380830 0.098629
v 0.095190 1.239412 -0.096366
v 0.083980 1.308890 -0.091224
v 0.082249 1.368136 -0.099606
v -0.126509 1.424900 -0.126858
v -0.098068 1.462393 0.102457
v 0.087033 1.405212 -0.114420
v 0.093513 1.456467 0.091865
v -0.088183 1.153521 -0.086691
v -0.110312 1.181862 0.111183
v 0.087537 1.153521 -0.086691
v 0.109648 1.181821 0.111107
v 0.431071 0.837175 0.009560
v 0.860445 0.852120 0.054923
v 0.860445 0.975664 0.016948
v 0.431071 0.959126 0.049141
v 0.431071 0.977657 -0.022116
v 0.860445 0.970436 -0.051733
v 0.860445 0.827571 -0.004672
v 0.431071 0.856971 -0.056552
v 0.431071 0.978491 0.031070
v 0.860445 0.987435 -0.004853
v 0.860445 0.984726 -0.035748
v 0.431071 0.996280 -0.002725
v 0.860445 0.841073 0.051649
v 0.431071 0.820324 -0.011058
v 0.431071 0.843028 -0.053102
v 0.860445 0.824097 0.024528
v 1.290359 0.831197 0.032865
v 1.290359 0.985478 0.032865
v 0.052552 0.985478 0.032865
v 0.052552 0.831197 0.032865
v 1.290359 0.985478 -0.031419
v 1.290359 0.846671 -0.031419
v 0.052552 0.846670 -0.031419
v 0.052552 0.985478 -0.031419
v 1.290359 0.994049 0.024294
v 1.290359 0.994049 -0.022847
v 0.052552 0.994049 -0.022848
v 0.052552 0.994049 0.024294
v 0.052552 0.822626 0.024294
v 0.052552 0.822626 -0.022848
v 1.290359 0.822626 -0.022847
v 1.290359 0.822626 0.024294
vt 0.416836 0.818436
vt 0.416836 0.726609
vt 0.214214 0.726601
vt 0.214214 0.817584
vt 0.416836 0.975924
vt 0.416836 0.868969
vt 0.214214 0.879530
vt 0.214214 0.968474
vt 0.416836 0.708950
vt 0.416836 0.677826
vt 0.214214 0.677826
vt 0.214214 0.707765
vt 0.214214 0.836749
vt 0.214214 0.870075
vt 0.416836 0.848818
vt 0.416836 0.826759
vt 0.619973 0.825750
vt 0.619973 0.716363
vt 0.011516 0.710281
vt 0.011516 0.819414
vt 0.619973 0.980915
vt 0.619973 0.882527
vt 0.011516 0.878263
vt 0.011516 0.976748
vt 0.619973 0.707856
vt 0.619973 0.677826
vt 0.011516 0.677826
vt 0.011516 0.701793
vt 0.011516 0.827539
vt 0.011516 0.860284
vt 0.619973 0.866710
vt 0.619973 0.833891
vt 0.011516 0.988080
vt 0.214214 0.988080
vt 0.416836 0.988080
vt 0.619973 0.988080
vt 0.275911 0.274999
vt 0.276369 0.224677
vt 0.531501 0.218189
vt 0.531019 0.303386
vt 0.276284 0.369830
vt 0.276028 0.303901
vt 0.531116 0.315689
vt 0.531282 0.375070
vt 0.276187 0.092851
vt 0.276176 0.024459
vt 0.531224 0.024459
vt 0.531242 0.110817
vt 0.276282 0.196438
vt 0.276227 0.111701
vt 0.531348 0.125137
vt 0.531420 0.203192
vt 0.276176 0.397304
vt 0.531224 0.397304
vt 0.020970 0.286193
vt 0.020970 0.216363
vt 0.786477 0.216363
vt 0.786477 0.286193
vt 0.020970 0.379562
vt 0.020970 0.306390
vt 0.786477 0.306390
vt 0.786477 0.379562
vt 0.020970 0.100392
vt 0.020970 0.024459
vt 0.786477 0.024459
vt 0.786477 0.100392
vt 0.020970 0.196281
vt 0.020970 0.122261
vt 0.786477 0.122262
vt 0.786477 0.196281
vt 0.020970 0.397304
vt 0.786477 0.397304
vt 0.974391 0.368318
vt 0.806764 0.368318
vt 0.806764 0.213004
vt 0.974391 0.213004
vt 0.806764 0.213004
vt 0.974391 0.213004
vt 0.974391 0.368318
vt 0.806764 0.368318
vt 0.810489 0.856223
vt 0.972647 0.856223
vt 0.972647 0.790956
vt 0.810489 0.790956
vt 0.640705 0.856223
vt 0.640705 0.790956
vt 0.810489 0.857010
vt 0.971455 0.857010
vt 0.971455 0.791744
vt 0.810489 0.791744
vt 0.643497 0.857010
vt 0.643497 0.791744
vt 0.810489 0.951519
vt 0.972647 0.951519
vt 0.972647 0.914364
vt 0.810489 0.914364
vt 0.972647 0.741202
vt 0.810489 0.741202
vt 0.640705 0.951519
vt 0.640705 0.914364
vt 0.640705 0.741202
vt 0.810489 0.952307
vt 0.971455 0.952307
vt 0.971455 0.915151
vt 0.810489 0.915151
vt 0.971455 0.741989
vt 0.810489 0.741989
vt 0.643497 0.952307
vt 0.643497 0.915151
vt 0.643497 0.741989
vt 0.972647 0.983147
vt 0.810489 0.983147
vt 0.640705 0.983147
vt 0.971455 0.983934
vt 0.810489 0.983934
vt 0.643497 0.983934
vt 0.643497 0.712058
vt 0.810489 0.712058
vt 0.971455 0.712058
vt 0.640705 0.711271
vt 0.810489 0.711271
vt 0.972647 0.711271
vt 0.214653 0.818436
vt 0.214653 0.726609
vt 0.417275 0.726601
vt 0.417275 0.817584
vt 0.214653 0.975924
vt 0.214653 0.868969
vt 0.417275 0.879530
vt 0.417275 0.968474
vt 0.214653 0.708950
vt 0.214653 0.677826
vt 0.417275 0.677826
vt 0.417275 0.707765
vt 0.417275 0.836749
vt 0.417275 0.870075
vt 0.214653 0.848818
vt 0.214653 0.826759
vt 0.011516 0.825750
vt 0.011516 0.716363
vt 0.619973 0.710281
vt 0.619973 0.819414
vt 0.011516 0.980915
vt 0.011516 0.882527
vt 0.619973 0.878263
vt 0.619973 0.976748
vt 0.011516 0.707856
vt 0.011516 0.677826
vt 0.619973 0.677826
vt 0.619973 0.701793
vt 0.619973 0.827539
vt 0.619973 0.860284
vt 0.011516 0.866710
vt 0.011516 0.833891
vt 0.619973 0.988080
vt 0.417275 0.988080
vt 0.214653 0.988080
vt 0.011516 0.988080
vn -0.0026 0.1765 -0.9843
vn -0.0299 -0.3991 -0.9164
vn 0.0602 -0.3636 -0.9296
vn 0.0608 0.4026 -0.9134
vn 0.0045 -0.4185 0.9082
vn -0.1450 0.5773 0.8036
vn 0.0523 0.1409 0.9886
vn 0.1066 -0.3531 0.9295
vn -0.0104 -0.9092 -0.4163
vn -0.1315 -0.9798 0.1505
vn 0.0588 -0.9506 0.3048
vn 0.0773 -0.9028 -0.4230
vn -0.0046 0.9944 -0.1053
vn 0.2096 0.7335 0.6465
vn -0.2555 0.9660 0.0390
vn -0.0953 0.7882 -0.6080
vn 0.0102 0.3772 -0.9261
vn -0.0040 -0.3974 -0.9176
vn -0.0236 -0.3476 -0.9374
vn 0.0115 0.3988 -0.9170
vn 0.0122 -0.3654 0.9308
vn 0.1814 0.3761 0.9086
vn -0.0555 0.1373 0.9890
vn -0.0478 -0.4162 0.9080
vn 0.0395 -0.9344 -0.3540
vn 0.0965 -0.8918 0.4421
vn -0.0693 -0.9513 0.3004
vn -0.0180 -0.9126 -0.4084
vn -0.0552 0.9510 -0.3043
vn -0.0236 0.8203 0.5714
vn 0.0408 0.8561 0.5151
vn 0.0482 0.8993 -0.4346
vn -0.9977 -0.0010 0.0675
vn -0.9283 -0.0851 -0.3619
vn -0.9730 0.1183 -0.1981
vn -0.8035 0.1101 0.5850
vn 0.1920 -0.0189 0.9812
vn -0.4474 -0.1045 0.8882
vn -0.1425 0.1097 0.9837
vn 0.4980 0.1270 0.8578
vn 0.9736 -0.0176 -0.2277
vn 0.8341 -0.1334 0.5352
vn 0.9439 0.0951 0.3163
vn 0.8830 0.0684 -0.4643
vn -0.4103 -0.0177 -0.9118
vn 0.4142 -0.0768 -0.9069
vn 0.2194 0.0386 -0.9749
vn -0.5312 0.0676 -0.8445
vn -0.9465 0.0419 0.3201
vn -0.8966 0.0331 -0.4415
vn -0.9561 -0.0139 -0.2928
vn -0.9172 -0.0625 0.3935
vn 0.3941 -0.0454 0.9180
vn -0.4214 0.0097 0.9068
vn -0.4292 -0.0040 0.9032
vn 0.4225 0.0364 0.9056
vn 0.9374 0.0266 -0.3473
vn 0.8928 0.0188 0.4500
vn 0.9215 0.0668 0.3827
vn 0.9058 0.0024 -0.4238
vn -0.3858 -0.0490 -0.9213
vn 0.3918 -0.0136 -0.9200
vn 0.2837 -0.0314 -0.9584
vn -0.4275 0.0021 -0.9040
vn 0.0003 -0.9288 -0.3706
vn 0.3715 -0.9277 0.0379
vn 0.1117 -0.9874 0.1120
vn -0.3710 -0.9279 -0.0369
vn -0.3147 0.8757 -0.3662
vn -0.2996 0.8864 0.3528
vn 0.4092 0.8703 0.2740
vn 0.4484 0.7756 -0.4443
vn -0.7690 -0.0929 0.6324
vn -0.7277 -0.2374 -0.6435
vn -0.7446 0.2317 -0.6260
vn -0.6766 0.2677 0.6859
vn 0.6612 -0.0261 0.7498
vn 0.6879 0.2822 0.6687
vn 0.7880 0.0455 -0.6140
vn 0.6789 0.3120 -0.6646
vn -0.6772 0.1550 0.7193
vn -0.6913 0.0971 -0.7160
vn -0.7355 -0.4236 -0.5288
vn -0.6575 -0.2679 0.7042
vn -0.6894 -0.2302 -0.6869
vn -0.6890 -0.2224 0.6898
vn 0.7443 0.1483 0.6511
vn 0.7363 -0.2083 0.6437
vn 0.6927 -0.2093 0.6902
vn 0.6973 0.0835 -0.7119
vn 0.6890 -0.1094 -0.7164
vn 0.6958 -0.2068 -0.6878
vn 0.0159 0.2208 0.9752
vn -0.1090 0.6155 0.7806
vn 0.1082 0.1899 0.9758
vn 0.1585 -0.5340 0.8305
vn 0.0311 0.1269 -0.9914
vn -0.2674 -0.7294 -0.6297
vn 0.1495 0.0379 -0.9880
vn 0.0468 0.4939 -0.8683
vn -0.0013 0.9995 0.0319
vn -0.0407 0.9139 -0.4040
vn 0.1332 0.9836 -0.1214
vn 0.1602 0.7950 0.5850
vn -0.0020 -0.9812 -0.1930
vn 0.3626 -0.6024 -0.7110
vn -0.3968 -0.9015 0.1727
vn -0.2567 -0.6037 0.7547
vn 0.0842 -0.3002 0.9502
vn 0.0266 0.4579 0.8886
vn -0.0711 0.2958 0.9526
vn 0.0392 -0.4066 0.9128
vn 0.0862 0.2861 -0.9543
vn 0.2001 -0.4331 -0.8789
vn -0.1065 -0.0817 -0.9909
vn 0.0259 0.3900 -0.9205
vn -0.0197 0.9279 0.3723
vn 0.0099 0.9229 -0.3848
vn -0.0966 0.9607 -0.2603
vn 0.0231 0.9229 0.3844
vn -0.0820 -0.9613 0.2631
vn -0.0257 -0.8207 -0.5708
vn 0.0729 -0.8869 -0.4563
vn 0.1119 -0.8678 0.4842
s 1
f 10/1/1 27/2/2 12/3/3
f 12/3/3 25/4/4 10/1/1
f 14/5/5 31/6/6 16/7/7
f 16/7/7 29/8/8 14/5/5
f 11/9/9 30/10/10 13/11/11
f 13/11/11 28/12/12 11/9/9
f 9/13/13 32/14/14 15/15/15
f 15/15/15 26/16/16 9/13/13
f 3/17/17 20/18/18 27/2/2
f 27/2/2 10/1/1 3/17/17
f 2/19/19 17/20/20 25/4/4
f 25/4/4 12/3/3 2/19/19
f 8/21/21 23/22/22 31/6/6
f 31/6/6 14/5/5 8/21/21
f 5/23/23 22/24/24 29/8/8
f 29/8/8 16/7/7 5/23/23
f 4/25/25 24/26/26 30/10/10
f 30/10/10 11/9/9 4/25/25
f 6/27/27 18/28/28 28/12/12
f 28/12/12 13/11/11 6/27/27
f 1/29/29 21/30/30 32/14/14
f 32/14/14 9/13/13 1/29/29
f 7/31/31 19/32/32 26/16/16
f 26/16/16 15/15/15 7/31/31
f 17/20/20 1/29/29 9/13/13
f 9/13/13 25/4/4 17/20/20
f 20/18/18 4/25/25 11/9/9
f 11/9/9 27/2/2 20/18/18
f 22/24/24 6/33/27 13/34/11
f 13/34/11 29/8/8 22/24/24
f 23/22/22 7/31/31 15/15/15
f 15/15/15 31/6/6 23/22/22
f 25/4/4 9/13/13 26/16/16
f 26/16/16 10/1/1 25/4/4
f 10/1/1 26/16/16 19/32/32
f 19/32/32 3/17/17 10/1/1
f 27/2/2 11/9/9 28/12/12
f 28/12/12 12/3/3 27/2/2
f 12/3/3 28/12/12 18/28/28
f 18/28/28 2/19/19 12/3/3
f 29/8/8 13/34/11 30/35/10
f 30/35/10 14/5/5 29/8/8
f 14/5/5 30/35/10 24/36/26
f 24/36/26 8/21/21 14/5/5
f 31/6/6 15/15/15 32/14/14
f 32/14/14 16/7/7 31/6/6
f 16/7/7 32/14/14 21/30/30
f 21/30/30 5/23/23 16/7/7
f 50/37/33 51/38/34 52/39/35
f 52/39/35 49/40/36 50/37/33
f 54/41/37 58/42/38 57/43/39
f 57/43/39 53/44/40 54/41/37
f 56/45/41 62/46/42 61/47/43
f 61/47/43 55/48/44 56/45/41
f 59/49/45 64/50/46 63/51/47
f 63/51/47 60/52/48 59/49/45
f 58/42/38 50/37/33 49/40/36
f 49/40/36 57/43/39 58/42/38
f 60/52/48 52/39/35 51/38/34
f 51/38/34 59/49/45 60/52/48
f 62/53/42 54/41/37 53/44/40
f 53/44/40 61/54/43 62/53/42
f 64/50/46 56/45/41 55/48/44
f 55/48/44 63/51/47 64/50/46
f 46/55/49 37/56/50 51/38/34
f 51/38/34 50/37/33 46/55/49
f 33/57/51 34/58/52 49/40/36
f 49/40/36 52/39/35 33/57/51
f 48/59/53 38/60/54 58/42/38
f 58/42/38 54/41/37 48/59/53
f 42/61/55 36/62/56 53/44/40
f 53/44/40 57/43/39 42/61/55
f 47/63/57 40/64/58 62/46/42
f 62/46/42 56/45/41 47/63/57
f 44/65/59 43/66/60 55/48/44
f 55/48/44 61/47/43 44/65/59
f 45/67/61 39/68/62 64/50/46
f 64/50/46 59/49/45 45/67/61
f 35/69/63 41/70/64 60/52/48
f 60/52/48 63/51/47 35/69/63
f 38/60/54 46/55/49 50/37/33
f 50/37/33 58/42/38 38/60/54
f 34/58/52 42/61/55 57/43/39
f 57/43/39 49/40/36 34/58/52
f 41/70/64 33/57/51 52/39/35
f 52/39/35 60/52/48 41/70/64
f 37/56/50 45/67/61 59/49/45
f 59/49/45 51/38/34 37/56/50
f 40/71/58 48/59/53 54/41/37
f 54/41/37 62/53/42 40/71/58
f 36/62/56 44/72/59 61/54/43
f 61/54/43 53/44/40 36/62/56
f 39/68/62 47/63/57 56/45/41
f 56/45/41 64/50/46 39/68/62
f 43/66/60 35/69/63 63/51/47
f 63/51/47 55/48/44 43/66/60
f 89/73/65 91/74/66 68/75/67
f 68/75/67 66/76/68 89/73/65
f 69/77/69 86/78/70 88/79/71
f 88/79/71 71/80/72 69/77/69
f 74/81/73 77/82/74 78/83/75
f 78/83/75 73/84/76 74/81/73
f 80/85/77 74/81/73 73/84/76
f 73/84/76 79/86/78 80/85/77
f 83/87/79 80/88/77 79/89/78
f 79/89/78 82/90/80 83/87/79
f 77/91/74 83/87/79 82/90/80
f 82/90/80 78/92/75 77/91/74
f 70/93/81 85/94/82 76/95/83
f 76/95/83 75/96/84 70/93/81
f 75/96/84 76/95/83 77/82/74
f 77/82/74 74/81/73 75/96/84
f 65/97/85 90/98/86 73/84/76
f 73/84/76 78/83/75 65/97/85
f 72/99/87 70/93/81 75/96/84
f 75/96/84 81/100/88 72/99/87
f 81/100/88 75/96/84 74/81/73
f 74/81/73 80/85/77 81/100/88
f 90/98/86 92/101/89 79/86/78
f 79/86/78 73/84/76 90/98/86
f 87/102/90 72/103/87 81/104/88
f 81/104/88 84/105/91 87/102/90
f 84/105/91 81/104/88 80/88/77
f 80/88/77 83/87/79 84/105/91
f 92/106/89 67/107/92 82/90/80
f 82/90/80 79/89/78 92/106/89
f 85/108/82 87/102/90 84/105/91
f 84/105/91 76/109/83 85/108/82
f 76/109/83 84/105/91 83/87/79
f 83/87/79 77/91/74 76/109/83
f 67/107/92 65/110/85 78/92/75
f 78/92/75 82/90/80 67/107/92
f 69/111/69 85/94/82 70/93/81
f 70/93/81 86/112/70 69/111/69
f 86/112/70 70/93/81 72/99/87
f 72/99/87 88/113/71 86/112/70
f 88/114/71 72/103/87 87/102/90
f 87/102/90 71/115/72 88/114/71
f 71/115/72 87/102/90 85/108/82
f 85/108/82 69/116/69 71/115/72
f 89/117/65 65/110/85 67/107/92
f 67/107/92 91/118/66 89/117/65
f 91/118/66 67/107/92 92/106/89
f 92/106/89 68/119/67 91/118/66
f 68/120/67 92/101/89 90/98/86
f 90/98/86 66/121/68 68/120/67
f 66/121/68 90/98/86 65/97/85
f 65/97/85 89/122/65 66/121/68
f 94/123/93 95/124/94 96/125/95
f 96/125/95 93/126/96 94/123/93
f 98/127/97 99/128/98 100/129/99
f 100/129/99 97/130/100 98/127/97
f 102/131/101 103/132/102 104/133/103
f 104/133/103 101/134/104 102/131/101
f 106/135/105 107/136/106 108/137/107
f 108/137/107 105/138/108 106/135/105
f 109/139/109 110/140/110 95/124/94
f 95/124/94 94/123/93 109/139/109
f 111/141/111 112/142/112 93/126/96
f 93/126/96 96/125/95 111/141/111
f 113/143/113 114/144/114 99/128/98
f 99/128/98 98/127/97 113/143/113
f 115/145/115 116/146/116 97/130/100
f 97/130/100 100/129/99 115/145/115
f 117/147/117 118/148/118 103/132/102
f 103/132/102 102/131/101 117/147/117
f 119/149/119 120/150/120 101/134/104
f 101/134/104 104/133/103 119/149/119
f 121/151/121 122/152/122 107/136/106
f 107/136/106 106/135/105 121/151/121
f 123/153/123 124/154/124 105/138/108
f 105/138/108 108/137/107 123/153/123
f 112/142/112 121/151/121 106/135/105
f 106/135/105 93/126/96 112/142/112
f 110/140/110 117/147/117 102/131/101
f 102/131/101 95/124/94 110/140/110
f 116/146/116 119/155/119 104/156/103
f 104/156/103 97/130/100 116/146/116
f 114/144/114 123/153/123 108/137/107
f 108/137/107 99/128/98 114/144/114
f 93/126/96 106/135/105 105/138/108
f 105/138/108 94/123/93 93/126/96
f 94/123/93 105/138/108 124/154/124
f 124/154/124 109/139/109 94/123/93
f 95/124/94 102/131/101 101/134/104
f 101/134/104 96/125/95 95/124/94
f 96/125/95 101/134/104 120/150/120
f 120/150/120 111/141/111 96/125/95
f 97/130/100 104/156/103 103/157/102
f 103/157/102 98/127/97 97/130/100
f 98/127/97 103/157/102 118/158/118
f 118/158/118 113/143/113 98/127/97
f 99/128/98 108/137/107 107/136/106
f 107/136/106 100/129/99 99/128/98
f 100/129/99 107/136/106 122/152/122
f 122/152/122 115/145/115 100/129/99
