# Blender v2.83.0 OBJ File: ''
# www.blender.org
o Fern_#004_Mesh.261
v -0.684731 -0.010870 0.175436
v -0.653683 0.011112 0.267458
v -0.589514 -0.010870 0.340357
v -0.558466 0.011112 0.432378
v -0.494297 -0.010870 0.505277
v -0.551041 0.077436 0.098250
v -0.511448 0.105063 0.185338
v -0.455824 0.077437 0.263170
v -0.416230 0.105063 0.350258
v -0.360607 0.077437 0.428091
v -0.398262 0.099945 0.010042
v -0.348902 0.129010 0.091492
v -0.303045 0.099945 0.174963
v -0.253685 0.129010 0.256412
v -0.207827 0.099945 0.339884
v -0.249652 0.053229 -0.075757
v -0.190794 0.079308 0.000208
v -0.154435 0.053229 0.089163
v -0.095576 0.079308 0.165128
v -0.059218 0.053229 0.254084
v -0.127837 -0.055599 -0.146087
v -0.061192 -0.036477 -0.074618
v -0.032620 -0.055599 0.018833
v 0.034025 -0.036477 0.090303
v 0.062597 -0.055599 0.183754
v 0.684731 -0.010869 -0.175436
v 0.653683 0.011112 -0.267457
v 0.511447 0.105063 -0.185338
v 0.551041 0.077437 -0.098250
v 0.589514 -0.010870 -0.340357
v 0.455824 0.077437 -0.263170
v 0.558466 0.011112 -0.432378
v 0.416230 0.105063 -0.350258
v 0.494297 -0.010870 -0.505277
v 0.360606 0.077437 -0.428091
v 0.348902 0.129010 -0.091492
v 0.398261 0.099945 -0.010042
v 0.303044 0.099945 -0.174963
v 0.253685 0.129010 -0.256412
v 0.207827 0.099945 -0.339883
v 0.190793 0.079308 -0.000208
v 0.249652 0.053229 0.075757
v 0.154435 0.053229 -0.089163
v 0.095576 0.079308 -0.165128
v 0.059218 0.053229 -0.254084
v 0.061192 -0.036477 0.074618
v 0.127837 -0.055599 0.146087
v 0.032620 -0.055599 -0.018833
v -0.034025 -0.036477 -0.090302
v -0.062597 -0.055599 -0.183754
v 0.190434 -0.046002 -0.680711
v 0.095217 -0.024021 -0.699834
v -0.000000 -0.046002 -0.680711
v -0.095217 -0.024021 -0.699834
v -0.190434 -0.046002 -0.680711
v 0.190434 0.042304 -0.526339
v 0.095217 0.069930 -0.535594
v -0.000000 0.042304 -0.526339
v -0.095217 0.069930 -0.535594
v -0.190434 0.042304 -0.526339
v 0.190434 0.064812 -0.349924
v 0.095217 0.093877 -0.347903
v -0.000000 0.064812 -0.349924
v -0.095217 0.093877 -0.347903
v -0.190434 0.064812 -0.349924
v 0.190434 0.018096 -0.178325
v 0.095217 0.044175 -0.165334
v -0.000000 0.018096 -0.178325
v -0.095217 0.044175 -0.165334
v -0.190434 0.018096 -0.178325
v 0.190434 -0.090732 -0.037665
v 0.095217 -0.071610 -0.015683
v -0.000000 -0.090732 -0.037665
v -0.095217 -0.071610 -0.015683
v -0.190434 -0.090732 -0.037665
v -0.190434 -0.046002 0.680714
v -0.095217 -0.024021 0.699837
v -0.095217 0.069930 0.535597
v -0.190434 0.042304 0.526342
v 0.000000 -0.046002 0.680714
v -0.000000 0.042304 0.526342
v 0.095217 -0.024021 0.699836
v 0.095217 0.069930 0.535597
v 0.190434 -0.046002 0.680714
v 0.190434 0.042304 0.526342
v -0.095217 0.093877 0.347905
v -0.190434 0.064812 0.349927
v -0.000000 0.064812 0.349927
v 0.095217 0.093877 0.347905
v 0.190434 0.064812 0.349927
v -0.095217 0.044175 0.165337
v -0.190434 0.018096 0.178328
v -0.000000 0.018096 0.178328
v 0.095217 0.044175 0.165337
v 0.190434 0.018096 0.178328
v -0.095217 -0.071610 0.015686
v -0.190434 -0.090732 0.037668
v -0.000000 -0.090732 0.037668
v 0.095217 -0.071610 0.015686
v 0.190434 -0.090732 0.037668
v -0.494297 -0.084280 -0.505275
v -0.558466 -0.062298 -0.432376
v -0.589514 -0.084280 -0.340354
v -0.653683 -0.062298 -0.267455
v -0.684731 -0.084280 -0.175433
v -0.360607 0.004026 -0.428089
v -0.416231 0.031653 -0.350256
v -0.455824 0.004026 -0.263168
v -0.511448 0.031653 -0.185335
v -0.551041 0.004026 -0.098247
v -0.207828 0.026535 -0.339882
v -0.253685 0.055600 -0.256410
v -0.303045 0.026535 -0.174961
v -0.348902 0.055600 -0.091490
v -0.398261 0.026535 -0.010040
v -0.059218 -0.020181 -0.254082
v -0.095577 0.005898 -0.165126
v -0.154435 -0.020181 -0.089161
v -0.190793 0.005898 -0.000205
v -0.249652 -0.020181 0.075760
v 0.062597 -0.129009 -0.183752
v 0.034025 -0.109887 -0.090301
v -0.032620 -0.129009 -0.018831
v -0.061192 -0.109887 0.074620
v -0.127837 -0.129009 0.146089
v 0.494298 -0.084280 0.505279
v 0.558466 -0.062298 0.432380
v 0.416231 0.031653 0.350260
v 0.360607 0.004026 0.428093
v 0.589514 -0.084280 0.340358
v 0.455824 0.004026 0.263172
v 0.653683 -0.062298 0.267459
v 0.511447 0.031653 0.185339
v 0.684731 -0.084280 0.175437
v 0.551041 0.004026 0.098251
v 0.253685 0.055600 0.256414
v 0.207828 0.026535 0.339886
v 0.303044 0.026535 0.174965
v 0.348902 0.055600 0.091494
v 0.398261 0.026535 0.010044
v 0.095576 0.005898 0.165130
v 0.059218 -0.020181 0.254086
v 0.154435 -0.020181 0.089165
v 0.190793 0.005898 0.000209
v 0.249652 -0.020181 -0.075756
v -0.034025 -0.109887 0.090305
v -0.062597 -0.129009 0.183756
v 0.032620 -0.129009 0.018835
v 0.061192 -0.109887 -0.074616
v 0.127837 -0.129009 -0.146086
vt 0.149888 0.257425
vt 0.018754 0.258678
vt 0.014458 0.018811
vt 0.148195 0.008744
vt 0.281575 0.257693
vt 0.282004 0.017013
vt 0.413177 0.257474
vt 0.415676 0.009147
vt 0.544197 0.258789
vt 0.549219 0.019599
vt 0.149331 0.499990
vt 0.017486 0.500000
vt 0.281096 0.500000
vt 0.412860 0.500010
vt 0.544706 0.500000
vt 0.149015 0.742526
vt 0.017995 0.741211
vt 0.280617 0.742307
vt 0.412304 0.742575
vt 0.543437 0.741322
vt 0.146515 0.990853
vt 0.012973 0.980401
vt 0.280187 0.982987
vt 0.413996 0.991256
vt 0.547734 0.981189
vt 0.149888 0.257425
vt 0.018754 0.258678
vt 0.014458 0.018811
vt 0.148195 0.008744
vt 0.281575 0.257693
vt 0.282004 0.017013
vt 0.413177 0.257474
vt 0.415676 0.009147
vt 0.544197 0.258789
vt 0.549219 0.019599
vt 0.149331 0.499990
vt 0.017486 0.500000
vt 0.281096 0.500000
vt 0.412860 0.500010
vt 0.544706 0.500000
vt 0.149015 0.742526
vt 0.017995 0.741211
vt 0.280617 0.742307
vt 0.412304 0.742575
vt 0.543437 0.741322
vt 0.146515 0.990853
vt 0.012973 0.980401
vt 0.280187 0.982987
vt 0.413996 0.991256
vt 0.547734 0.981189
vt 0.149888 0.257425
vt 0.018754 0.258678
vt 0.014458 0.018811
vt 0.148195 0.008744
vt 0.281575 0.257693
vt 0.282004 0.017013
vt 0.413177 0.257474
vt 0.415676 0.009147
vt 0.544197 0.258789
vt 0.549219 0.019599
vt 0.149331 0.499990
vt 0.017486 0.500000
vt 0.281096 0.500000
vt 0.412860 0.500010
vt 0.544706 0.500000
vt 0.149015 0.742526
vt 0.017995 0.741211
vt 0.280617 0.742307
vt 0.412304 0.742575
vt 0.543437 0.741322
vt 0.146515 0.990853
vt 0.012973 0.980401
vt 0.280187 0.982987
vt 0.413996 0.991256
vt 0.547734 0.981189
vt 0.149888 0.257425
vt 0.018754 0.258678
vt 0.014458 0.018811
vt 0.148195 0.008744
vt 0.281575 0.257693
vt 0.282004 0.017013
vt 0.413177 0.257474
vt 0.415676 0.009147
vt 0.544197 0.258789
vt 0.549219 0.019599
vt 0.149331 0.499990
vt 0.017486 0.500000
vt 0.281096 0.500000
vt 0.412860 0.500010
vt 0.544706 0.500000
vt 0.149015 0.742526
vt 0.017995 0.741211
vt 0.280617 0.742307
vt 0.412304 0.742575
vt 0.543437 0.741322
vt 0.146515 0.990853
vt 0.012973 0.980401
vt 0.280187 0.982987
vt 0.413996 0.991256
vt 0.547734 0.981189
vt 0.149888 0.257425
vt 0.018754 0.258678
vt 0.014458 0.018811
vt 0.148195 0.008744
vt 0.281575 0.257693
vt 0.282004 0.017013
vt 0.413177 0.257474
vt 0.415676 0.009147
vt 0.544197 0.258789
vt 0.549219 0.019599
vt 0.149331 0.499990
vt 0.017486 0.500000
vt 0.281096 0.500000
vt 0.412860 0.500010
vt 0.544706 0.500000
vt 0.149015 0.742526
vt 0.017995 0.741211
vt 0.280617 0.742307
vt 0.412304 0.742575
vt 0.543437 0.741322
vt 0.146515 0.990853
vt 0.012973 0.980401
vt 0.280187 0.982987
vt 0.413996 0.991256
vt 0.547734 0.981189
vt 0.149888 0.257425
vt 0.018754 0.258678
vt 0.014458 0.018811
vt 0.148195 0.008744
vt 0.281575 0.257693
vt 0.282004 0.017013
vt 0.413177 0.257474
vt 0.415676 0.009147
vt 0.544197 0.258789
vt 0.549219 0.019599
vt 0.149331 0.499990
vt 0.017486 0.500000
vt 0.281096 0.500000
vt 0.412860 0.500010
vt 0.544706 0.500000
vt 0.149015 0.742526
vt 0.017995 0.741211
vt 0.280617 0.742307
vt 0.412304 0.742575
vt 0.543437 0.741322
vt 0.146515 0.990853
vt 0.012973 0.980401
vt 0.280187 0.982987
vt 0.413996 0.991256
vt 0.547734 0.981189
vn -0.4515 0.8697 -0.1993
vn -0.4923 0.8274 -0.2701
vn -0.5556 0.8314 -0.0111
vn -0.6722 0.6666 0.3222
vn -0.3626 0.9320 -0.0036
vn -0.4300 0.8680 0.2483
vn 0.0098 0.8360 0.5487
vn -0.2681 0.8314 0.4867
vn -0.1440 0.9150 -0.3768
vn -0.1989 0.8759 -0.4395
vn -0.0331 0.9805 -0.1938
vn 0.3043 0.8741 0.3786
vn 0.1550 0.8210 -0.5494
vn 0.0883 0.7911 -0.6053
vn 0.2873 0.8798 -0.3788
vn 0.5891 0.7791 0.2142
vn 0.7459 0.5573 -0.3648
vn 0.3639 0.7575 -0.5420
vn 0.5299 0.7909 -0.3060
vn 0.6513 0.7575 -0.0441
vn 0.4515 0.8697 0.1993
vn 0.4923 0.8274 0.2701
vn 0.5556 0.8314 0.0111
vn 0.6722 0.6666 -0.3222
vn 0.3626 0.9320 0.0036
vn 0.4300 0.8680 -0.2483
vn -0.0098 0.8360 -0.5487
vn 0.2681 0.8314 -0.4867
vn 0.1440 0.9150 0.3768
vn 0.1989 0.8759 0.4395
vn 0.0331 0.9805 0.1938
vn -0.3043 0.8741 -0.3786
vn -0.1550 0.8210 0.5494
vn -0.0883 0.7911 0.6053
vn -0.2873 0.8798 0.3788
vn -0.5891 0.7791 -0.2142
vn -0.7459 0.5573 0.3648
vn -0.3639 0.7575 0.5420
vn -0.5299 0.7909 0.3060
vn -0.6513 0.7575 0.0441
vn 0.3983 0.8697 -0.2914
vn 0.4801 0.8274 -0.2913
vn 0.2874 0.8314 -0.4756
vn 0.0571 0.6666 -0.7432
vn 0.1844 0.9320 -0.3122
vn 0.0000 0.8680 -0.4965
vn -0.4801 0.8360 -0.2659
vn -0.2874 0.8314 -0.4756
vn 0.3983 0.9150 0.0636
vn 0.4801 0.8759 0.0475
vn 0.1844 0.9805 0.0682
vn -0.4801 0.8741 0.0742
vn 0.3983 0.8210 0.4090
vn 0.4801 0.7911 0.3791
vn 0.1844 0.8798 0.4382
vn -0.4801 0.7791 0.4031
vn -0.0571 0.5573 0.8283
vn 0.2874 0.7575 0.5861
vn 0.0000 0.7909 0.6119
vn -0.2874 0.7575 0.5861
vn -0.3983 0.8697 0.2914
vn -0.4801 0.8274 0.2913
vn -0.2874 0.8314 0.4756
vn -0.0571 0.6666 0.7432
vn -0.1844 0.9320 0.3122
vn 0.0000 0.8680 0.4965
vn 0.4801 0.8360 0.2659
vn 0.2874 0.8314 0.4756
vn -0.3983 0.9150 -0.0636
vn -0.4801 0.8759 -0.0475
vn -0.1844 0.9805 -0.0682
vn 0.4801 0.8741 -0.0742
vn -0.3983 0.8210 -0.4090
vn -0.4801 0.7911 -0.3791
vn -0.1844 0.8798 -0.4382
vn 0.4801 0.7791 -0.4031
vn 0.0571 0.5573 -0.8283
vn -0.2874 0.7575 -0.5861
vn -0.0000 0.7909 -0.6119
vn 0.2874 0.7575 -0.5861
vn -0.0532 0.8697 -0.4906
vn -0.0123 0.8274 -0.5614
vn -0.2681 0.8314 -0.4867
vn -0.6151 0.6666 -0.4210
vn -0.1782 0.9320 -0.3158
vn -0.4300 0.8680 -0.2483
vn -0.4703 0.8360 0.2828
vn -0.5556 0.8314 0.0111
vn 0.2543 0.9150 -0.3131
vn 0.2812 0.8759 -0.3920
vn 0.1513 0.9805 -0.1256
vn -0.1757 0.8741 0.4529
vn 0.5533 0.8210 -0.1404
vn 0.5683 0.7911 -0.2262
vn 0.4717 0.8798 0.0594
vn 0.1091 0.7791 0.6173
vn 0.6888 0.5573 0.4636
vn 0.6513 0.7575 0.0441
vn 0.5299 0.7909 0.3060
vn 0.3639 0.7575 0.5420
vn 0.0532 0.8697 0.4906
vn 0.0123 0.8274 0.5614
vn 0.2681 0.8314 0.4867
vn 0.6151 0.6666 0.4210
vn 0.1782 0.9320 0.3158
vn 0.4300 0.8680 0.2483
vn 0.4703 0.8360 -0.2828
vn 0.5556 0.8314 -0.0111
vn -0.2543 0.9150 0.3131
vn -0.2812 0.8759 0.3920
vn -0.1513 0.9805 0.1256
vn 0.1757 0.8741 -0.4529
vn -0.5533 0.8210 0.1404
vn -0.5683 0.7911 0.2262
vn -0.4717 0.8798 -0.0594
vn -0.5533 0.8210 0.1405
vn -0.1091 0.7791 -0.6173
vn -0.6888 0.5573 -0.4636
vn -0.6513 0.7575 -0.0441
vn -0.5299 0.7909 -0.3060
vn -0.3639 0.7575 -0.5420
s 1
f 7/1/1 6/2/2 1/3/3
f 1/3/3 2/4/4 7/1/1
f 8/5/5 7/1/1 2/4/4
f 2/4/4 3/6/6 8/5/5
f 9/7/1 8/5/5 3/6/6
f 3/6/6 4/8/4 9/7/1
f 10/9/7 9/7/1 4/8/4
f 4/8/4 5/10/8 10/9/7
f 12/11/9 11/12/10 6/2/2
f 6/2/2 7/1/1 12/11/9
f 13/13/11 12/11/9 7/1/1
f 7/1/1 8/5/5 13/13/11
f 14/14/9 13/13/11 8/5/5
f 8/5/5 9/7/1 14/14/9
f 15/15/12 14/14/9 9/7/1
f 9/7/1 10/9/7 15/15/12
f 17/16/13 16/17/14 11/12/10
f 11/12/10 12/11/9 17/16/13
f 18/18/15 17/16/13 12/11/9
f 12/11/9 13/13/11 18/18/15
f 19/19/13 18/18/15 13/13/11
f 13/13/11 14/14/9 19/19/13
f 20/20/16 19/19/13 14/14/9
f 14/14/9 15/15/12 20/20/16
f 22/21/17 21/22/18 16/17/14
f 16/17/14 17/16/13 22/21/17
f 23/23/19 22/21/17 17/16/13
f 17/16/13 18/18/15 23/23/19
f 24/24/17 23/23/19 18/18/15
f 18/18/15 19/19/13 24/24/17
f 25/25/20 24/24/17 19/19/13
f 19/19/13 20/20/16 25/25/20
f 28/26/21 29/27/22 26/28/23
f 26/28/23 27/29/24 28/26/21
f 31/30/25 28/26/21 27/29/24
f 27/29/24 30/31/26 31/30/25
f 33/32/21 31/30/25 30/31/26
f 30/31/26 32/33/24 33/32/21
f 35/34/27 33/32/21 32/33/24
f 32/33/24 34/35/28 35/34/27
f 36/36/29 37/37/30 29/27/22
f 29/27/22 28/26/21 36/36/29
f 38/38/31 36/36/29 28/26/21
f 28/26/21 31/30/25 38/38/31
f 39/39/29 38/38/31 31/30/25
f 31/30/25 33/32/21 39/39/29
f 40/40/32 39/39/29 33/32/21
f 33/32/21 35/34/27 40/40/32
f 41/41/33 42/42/34 37/37/30
f 37/37/30 36/36/29 41/41/33
f 43/43/35 41/41/33 36/36/29
f 36/36/29 38/38/31 43/43/35
f 44/44/33 43/43/35 38/38/31
f 38/38/31 39/39/29 44/44/33
f 45/45/36 44/44/33 39/39/29
f 39/39/29 40/40/32 45/45/36
f 46/46/37 47/47/38 42/42/34
f 42/42/34 41/41/33 46/46/37
f 48/48/39 46/46/37 41/41/33
f 41/41/33 43/43/35 48/48/39
f 49/49/37 48/48/39 43/43/35
f 43/43/35 44/44/33 49/49/37
f 50/50/40 49/49/37 44/44/33
f 44/44/33 45/45/36 50/50/40
f 57/51/41 56/52/42 51/53/43
f 51/53/43 52/54/44 57/51/41
f 58/55/45 57/51/41 52/54/44
f 52/54/44 53/56/46 58/55/45
f 59/57/41 58/55/45 53/56/46
f 53/56/46 54/58/44 59/57/41
f 60/59/47 59/57/41 54/58/44
f 54/58/44 55/60/48 60/59/47
f 62/61/49 61/62/50 56/52/42
f 56/52/42 57/51/41 62/61/49
f 63/63/51 62/61/49 57/51/41
f 57/51/41 58/55/45 63/63/51
f 64/64/49 63/63/51 58/55/45
f 58/55/45 59/57/41 64/64/49
f 65/65/52 64/64/49 59/57/41
f 59/57/41 60/59/47 65/65/52
f 67/66/53 66/67/54 61/62/50
f 61/62/50 62/61/49 67/66/53
f 68/68/55 67/66/53 62/61/49
f 62/61/49 63/63/51 68/68/55
f 69/69/53 68/68/55 63/63/51
f 63/63/51 64/64/49 69/69/53
f 70/70/56 69/69/53 64/64/49
f 64/64/49 65/65/52 70/70/56
f 72/71/57 71/72/58 66/67/54
f 66/67/54 67/66/53 72/71/57
f 73/73/59 72/71/57 67/66/53
f 67/66/53 68/68/55 73/73/59
f 74/74/57 73/73/59 68/68/55
f 68/68/55 69/69/53 74/74/57
f 75/75/60 74/74/57 69/69/53
f 69/69/53 70/70/56 75/75/60
f 78/76/61 79/77/62 76/78/63
f 76/78/63 77/79/64 78/76/61
f 81/80/65 78/76/61 77/79/64
f 77/79/64 80/81/66 81/80/65
f 83/82/61 81/80/65 80/81/66
f 80/81/66 82/83/64 83/82/61
f 85/84/67 83/82/61 82/83/64
f 82/83/64 84/85/68 85/84/67
f 86/86/69 87/87/70 79/77/62
f 79/77/62 78/76/61 86/86/69
f 88/88/71 86/86/69 78/76/61
f 78/76/61 81/80/65 88/88/71
f 89/89/69 88/88/71 81/80/65
f 81/80/65 83/82/61 89/89/69
f 90/90/72 89/89/69 83/82/61
f 83/82/61 85/84/67 90/90/72
f 91/91/73 92/92/74 87/87/70
f 87/87/70 86/86/69 91/91/73
f 93/93/75 91/91/73 86/86/69
f 86/86/69 88/88/71 93/93/75
f 94/94/73 93/93/75 88/88/71
f 88/88/71 89/89/69 94/94/73
f 95/95/76 94/94/73 89/89/69
f 89/89/69 90/90/72 95/95/76
f 96/96/77 97/97/78 92/92/74
f 92/92/74 91/91/73 96/96/77
f 98/98/79 96/96/77 91/91/73
f 91/91/73 93/93/75 98/98/79
f 99/99/77 98/98/79 93/93/75
f 93/93/75 94/94/73 99/99/77
f 100/100/80 99/99/77 94/94/73
f 94/94/73 95/95/76 100/100/80
f 107/101/81 106/102/82 101/103/83
f 101/103/83 102/104/84 107/101/81
f 108/105/85 107/101/81 102/104/84
f 102/104/84 103/106/86 108/105/85
f 109/107/81 108/105/85 103/106/86
f 103/106/86 104/108/84 109/107/81
f 110/109/87 109/107/81 104/108/84
f 104/108/84 105/110/88 110/109/87
f 112/111/89 111/112/90 106/102/82
f 106/102/82 107/101/81 112/111/89
f 113/113/91 112/111/89 107/101/81
f 107/101/81 108/105/85 113/113/91
f 114/114/89 113/113/91 108/105/85
f 108/105/85 109/107/81 114/114/89
f 115/115/92 114/114/89 109/107/81
f 109/107/81 110/109/87 115/115/92
f 117/116/93 116/117/94 111/112/90
f 111/112/90 112/111/89 117/116/93
f 118/118/95 117/116/93 112/111/89
f 112/111/89 113/113/91 118/118/95
f 119/119/93 118/118/95 113/113/91
f 113/113/91 114/114/89 119/119/93
f 120/120/96 119/119/93 114/114/89
f 114/114/89 115/115/92 120/120/96
f 122/121/97 121/122/98 116/117/94
f 116/117/94 117/116/93 122/121/97
f 123/123/99 122/121/97 117/116/93
f 117/116/93 118/118/95 123/123/99
f 124/124/97 123/123/99 118/118/95
f 118/118/95 119/119/93 124/124/97
f 125/125/100 124/124/97 119/119/93
f 119/119/93 120/120/96 125/125/100
f 128/126/101 129/127/102 126/128/103
f 126/128/103 127/129/104 128/126/101
f 131/130/105 128/126/101 127/129/104
f 127/129/104 130/131/106 131/130/105
f 133/132/101 131/130/105 130/131/106
f 130/131/106 132/133/104 133/132/101
f 135/134/107 133/132/101 132/133/104
f 132/133/104 134/135/108 135/134/107
f 136/136/109 137/137/110 129/127/102
f 129/127/102 128/126/101 136/136/109
f 138/138/111 136/136/109 128/126/101
f 128/126/101 131/130/105 138/138/111
f 139/139/109 138/138/111 131/130/105
f 131/130/105 133/132/101 139/139/109
f 140/140/112 139/139/109 133/132/101
f 133/132/101 135/134/107 140/140/112
f 141/141/113 142/142/114 137/137/110
f 137/137/110 136/136/109 141/141/113
f 143/143/115 141/141/113 136/136/109
f 136/136/109 138/138/111 143/143/115
f 144/144/116 143/143/115 138/138/111
f 138/138/111 139/139/109 144/144/116
f 145/145/117 144/144/116 139/139/109
f 139/139/109 140/140/112 145/145/117
f 146/146/118 147/147/119 142/142/114
f 142/142/114 141/141/113 146/146/118
f 148/148/120 146/146/118 141/141/113
f 141/141/113 143/143/115 148/148/120
f 149/149/118 148/148/120 143/143/115
f 143/143/115 144/144/116 149/149/118
f 150/150/121 149/149/118 144/144/116
f 144/144/116 145/145/117 150/150/121
