# Blender v2.82 (sub 7) OBJ File: ''
# www.blender.org
mtllib grass.mtl
o Plane.001_Mesh.004
v 0.542134 -0.061167 -0.016710
v -0.542387 -0.061167 -0.002037
v 0.543142 0.496773 0.057864
v -0.541378 0.496773 0.072537
v -0.542387 0.217803 -0.002037
v 0.542133 0.217803 -0.016710
v -0.000882 -0.061167 -0.065200
v 0.000127 0.496773 0.009373
v -0.000882 0.217803 -0.065201
v -0.009374 -0.061167 -0.542310
v -0.009374 -0.061167 0.542309
v 0.065206 0.496773 -0.542310
v 0.065207 0.496773 0.542310
v -0.009374 0.217803 0.542310
v -0.009374 0.217803 -0.542310
v -0.065206 -0.061167 -0.000000
v 0.009374 0.496773 -0.000000
v -0.065206 0.217803 -0.000000
vt 0.501753 0.001387
vt 0.501753 0.245411
vt 0.019798 0.251958
vt 0.017143 0.001387
vt 0.986236 0.508599
vt 0.501753 0.500694
vt 0.983706 0.251958
vt 0.986361 0.001387
vt 0.017268 0.508600
vt 0.501753 0.001387
vt 0.501753 0.245411
vt 0.019798 0.251958
vt 0.017143 0.001387
vt 0.986236 0.508599
vt 0.501753 0.500694
vt 0.983706 0.251958
vt 0.986361 0.001387
vt 0.017268 0.508600
vn -0.0135 0.0000 -0.9999
vn -0.0134 0.1291 -0.9915
vn 0.0880 0.1306 -0.9875
vn 0.0889 -0.0000 -0.9960
vn -0.1113 0.2572 -0.9599
vn -0.0131 0.2585 -0.9659
vn -0.1146 0.1306 -0.9848
vn -0.1153 0.0000 -0.9933
vn -0.1147 0.1306 -0.9848
vn 0.0853 0.2572 -0.9626
vn 0.0854 0.2572 -0.9626
vn -1.0000 0.0000 -0.0000
vn -0.9916 0.1291 -0.0000
vn -0.9862 0.1306 -0.1013
vn -0.9947 -0.0000 -0.1024
vn -0.9613 0.2572 0.0983
vn -0.9660 0.2585 -0.0000
vn -0.9862 0.1306 0.1013
vn -0.9948 0.0000 0.1018
vn -0.9613 0.2572 -0.0983
vn -0.9613 0.2572 -0.0984
usemtl Material_#315.004
s off
f 7/1/1 9/2/2 6/3/3
f 6/3/3 1/4/4 7/1/1
f 4/5/5 8/6/6 9/2/2
f 9/2/2 5/7/7 4/5/5
f 2/8/8 5/7/9 9/2/2
f 9/2/2 7/1/1 2/8/8
f 3/9/10 6/3/3 9/2/2
f 9/2/2 8/6/6 3/9/11
usemtl Material_#315.003
f 16/10/12 18/11/13 15/12/14
f 15/12/14 10/13/15 16/10/12
f 13/14/16 17/15/17 18/11/13
f 18/11/13 14/16/18 13/14/16
f 11/17/19 14/16/18 18/11/13
f 18/11/13 16/10/12 11/17/19
f 12/18/20 15/12/14 18/11/13
f 18/11/13 17/15/17 12/18/21
