# Blender v2.83.0 OBJ File: ''
# www.blender.org
o Log_#1_Mesh.1062
v -1.007405 -0.053614 0.296515
v -0.891048 -0.243568 0.189981
v -1.007405 -0.351109 -0.000980
v -1.016845 -0.263975 -0.211340
v -0.718022 -0.053558 -0.251744
v -1.016845 0.156747 -0.211340
v -0.955991 0.243881 -0.000979
v -1.016845 0.156746 0.209381
v -0.718037 -0.053614 0.249653
v -0.721027 -0.230838 0.176244
v -0.718037 -0.304246 -0.000980
v -0.721027 -0.230838 -0.178203
v -0.721107 0.123415 -0.177395
v -0.718040 0.196990 -0.000968
v -0.721027 0.123609 0.176244
v -0.397479 -0.053614 0.223628
v -0.398471 -0.212436 0.157842
v -0.397479 -0.278222 -0.000980
v -0.398471 -0.212436 -0.159801
v -0.397702 -0.054848 -0.222641
v -0.397429 0.171819 -0.001320
v 0.033437 -0.043451 0.227590
v -0.059753 -0.209465 0.154026
v -0.059570 -0.274805 -0.000980
v -0.059896 -0.210020 -0.157385
v -0.059570 -0.053676 -0.222021
v -0.059895 0.102947 -0.157433
v -0.059029 0.162846 -0.002708
v 0.036023 0.100879 0.187392
v 0.188674 -0.037078 0.242912
v 0.285044 -0.227439 0.175309
v 0.285469 -0.297147 -0.000979
v 0.285463 -0.225817 -0.173183
v 0.285470 -0.053614 -0.244512
v 0.285462 0.118589 -0.173183
v 0.285040 0.193648 0.000410
v 0.184526 0.112580 0.193016
v 0.630156 -0.022634 0.283464
v 0.629812 -0.224482 0.201812
v 0.629464 -0.308481 -0.000979
v 0.629812 -0.224482 -0.203771
v 0.629463 -0.021690 -0.287770
v 0.629812 0.181102 -0.203771
v 0.628633 0.267243 -0.000017
v 0.961886 0.009727 0.349172
v 1.011232 -0.233351 0.245230
v 1.029840 -0.333963 -0.000980
v 1.011231 -0.233351 -0.247190
v 0.905704 0.008940 -0.349173
v 0.915944 0.251588 -0.247189
v 0.895369 0.351109 -0.001309
v 0.767349 0.209467 0.222761
v -1.024541 -0.070491 0.221257
v -0.903705 -0.187529 0.137499
v -1.028994 -0.264868 0.001526
v -1.028954 -0.207936 -0.153847
v -0.794688 -0.061413 -0.185216
v -1.028954 0.066954 -0.153847
v -0.977996 0.123886 0.001527
v -1.028954 0.066954 0.156900
v 0.970049 -0.018828 0.250149
v 1.001108 -0.174223 0.180872
v 1.014006 -0.239844 -0.000980
v 1.001108 -0.174223 -0.182831
v 0.912691 -0.015882 -0.258156
v 0.938849 0.142625 -0.182831
v 0.925961 0.208248 -0.000979
v -0.400782 -0.056243 0.194913
v 0.173936 -0.040098 0.196970
v 0.285439 -0.191166 0.154514
v -0.401400 -0.180477 0.142430
v 0.285436 -0.248141 -0.000979
v -0.401635 -0.233024 -0.000979
v 0.285438 -0.191165 -0.156472
v -0.401401 -0.180476 -0.144389
v 0.285445 -0.053614 -0.220880
v -0.400601 -0.053614 -0.203791
v 0.285439 0.083937 -0.156472
v -0.401401 0.073248 -0.144389
v 0.285436 0.140912 -0.000979
v -0.401636 0.125796 -0.000979
v 0.172090 0.072997 0.141743
v -0.401325 0.074345 0.145318
v -1.010949 0.211206 -0.079865
v -1.028979 0.102536 -0.056738
v -1.013309 -0.296650 0.130496
v -1.029840 -0.229286 0.098635
v -1.013309 -0.185090 0.242056
v -1.027300 -0.156394 0.181034
v -1.010949 -0.132499 -0.265799
v -1.026196 -0.122033 -0.194071
v -1.013309 0.077862 -0.244016
v -1.027300 0.015412 -0.177981
v 0.047366 -0.036076 0.177861
v 0.041517 0.058133 0.142196
v -0.398472 0.105207 0.157842
v -0.012282 0.022328 0.187819
v 0.225781 0.032487 0.210307
v 0.630390 0.178836 0.202572
v 0.820921 0.112976 0.174056
v 0.204474 0.013173 0.173464
v 0.019434 0.008346 0.161572
v 0.113636 -0.067528 0.224644
v 0.112937 0.112891 0.174324
v 0.112223 0.084104 0.147039
v 0.112290 -0.064871 0.195020
v -0.283351 0.103974 -0.157100
v -0.508371 0.110996 -0.163674
v -0.398073 -0.000816 -0.200359
v -0.397624 0.175862 -0.106959
v -0.304483 0.137871 -0.177157
v -0.487398 0.143949 -0.181934
v -0.397624 0.048559 -0.207018
v -0.397193 0.206722 -0.185579
v -0.343003 0.179664 -0.224238
v -0.459662 0.191116 -0.217570
v -0.397193 0.144468 -0.234511
v -0.397770 0.149476 -0.055330
v -0.324892 0.041139 -0.183028
v -0.335360 0.081173 -0.192087
v -0.472180 0.044624 -0.188437
v -0.462134 0.083351 -0.194476
v -0.438767 0.154889 -0.228377
v -0.318296 0.129985 -0.099168
v -0.328754 0.161004 -0.134519
v -0.352119 0.201570 -0.195205
v -0.472421 0.135194 -0.103883
v -0.461875 0.165879 -0.138153
v -0.438508 0.204892 -0.197619
v -0.358726 0.154264 -0.227209
v 0.939410 0.129983 0.295522
v 0.954921 0.059582 0.210754
v 0.906360 0.299535 0.121146
v 0.932405 0.175436 0.089947
v 0.939204 0.130264 -0.298181
v 0.954149 0.063372 -0.220493
v -0.394631 0.225700 -0.283229
v -0.351211 0.188602 -0.296309
v -0.440865 0.198492 -0.302271
v -0.397234 0.159402 -0.316310
v -0.433367 0.170874 -0.315013
v -0.356134 0.212545 -0.285072
v -0.432191 0.217802 -0.291678
v -0.363268 0.167394 -0.308250
vt 0.136854 0.969523
vt 0.099571 0.969523
vt 0.092012 0.852546
vt 0.068301 0.969523
vt 0.612989 0.969523
vt 0.531625 0.969523
vt 0.522393 0.852546
vt 0.612989 0.852546
vt 0.491060 0.969523
vt 0.448036 0.969523
vt 0.368485 0.969523
vt 0.348276 0.969523
vt 0.368118 0.852546
vt 0.313887 0.969523
vt 0.289978 0.969523
vt 0.298306 0.852546
vt 0.227429 0.969523
vt 0.231761 0.852546
vt 0.169195 0.969523
vt 0.163772 0.852546
vt 0.090860 0.706184
vt 0.162852 0.706184
vt 0.019060 0.852546
vt 0.019060 0.706184
vt 0.516608 0.706184
vt 0.612989 0.706184
vt 0.446180 0.706184
vt 0.373428 0.759786
vt 0.402582 0.743103
vt 0.232438 0.706184
vt 0.305383 0.706184
vt 0.085457 0.547865
vt 0.157618 0.493233
vt 0.019060 0.547865
vt 0.523548 0.547865
vt 0.612989 0.547865
vt 0.453081 0.547865
vt 0.225417 0.489141
vt 0.309266 0.547865
vt 0.192045 0.510075
vt 0.150346 0.453738
vt 0.019060 0.383979
vt 0.075725 0.383979
vt 0.540230 0.383979
vt 0.612989 0.383979
vt 0.465413 0.383979
vt 0.381155 0.547865
vt 0.389282 0.383979
vt 0.310442 0.383979
vt 0.229302 0.450611
vt 0.157993 0.415650
vt 0.068667 0.221061
vt 0.149730 0.221061
vt 0.019060 0.221061
vt 0.548980 0.221061
vt 0.612989 0.221061
vt 0.469060 0.221061
vt 0.391272 0.221061
vt 0.311919 0.221061
vt 0.223648 0.414541
vt 0.229756 0.221061
vt 0.188869 0.398353
vt 0.072282 0.065410
vt 0.142136 0.065410
vt 0.019060 0.065410
vt 0.550717 0.065410
vt 0.612989 0.065410
vt 0.467831 0.065410
vt 0.427274 0.065410
vt 0.324508 0.065410
vt 0.391288 0.065410
vt 0.230436 0.065410
vt 0.290837 0.065410
vt 0.172048 0.065410
vt 0.136724 0.065174
vt 0.135064 0.020878
vt 0.103870 0.020878
vt 0.099441 0.065174
vt 0.068171 0.065174
vt 0.076841 0.020878
vt 0.019060 0.020878
vt 0.019060 0.065174
vt 0.531495 0.065174
vt 0.612860 0.065174
vt 0.612860 0.020878
vt 0.530813 0.020878
vt 0.490930 0.065174
vt 0.496010 0.020878
vt 0.444903 0.020878
vt 0.447906 0.065174
vt 0.368355 0.065174
vt 0.381445 0.020878
vt 0.355652 0.020878
vt 0.348146 0.065174
vt 0.313757 0.065174
vt 0.315036 0.020878
vt 0.283119 0.020878
vt 0.289848 0.065174
vt 0.227299 0.065174
vt 0.219069 0.020878
vt 0.169065 0.065174
vt 0.166111 0.020878
vt 0.076973 0.020503
vt 0.133346 0.020503
vt 0.019060 0.020503
vt 0.544349 0.020503
vt 0.612989 0.020503
vt 0.476328 0.020503
vt 0.439848 0.020503
vt 0.324702 0.020503
vt 0.401212 0.020503
vt 0.281507 0.020503
vt 0.165789 0.020503
vt 0.222004 0.020503
vt 0.459644 0.459499
vt 0.519358 0.379038
vt 0.519358 0.715795
vt 0.613257 0.379038
vt 0.613257 0.715795
vt 0.019060 0.379038
vt 0.090016 0.379038
vt 0.090016 0.715795
vt 0.019060 0.715795
vt 0.154297 0.379038
vt 0.154297 0.715795
vt 0.239765 0.379038
vt 0.235099 0.715795
vt 0.319025 0.379038
vt 0.305806 0.715795
vt 0.392793 0.424993
vt 0.390290 0.452129
vt 0.392868 0.489170
vt 0.377377 0.715795
vt 0.480769 0.073772
vt 0.519358 0.073772
vt 0.451028 0.427565
vt 0.519358 0.959495
vt 0.519358 0.959495
vt 0.613257 0.073772
vt 0.613257 0.959495
vt 0.529087 0.959495
vt 0.019060 0.073772
vt 0.090016 0.073772
vt 0.090016 0.959495
vt 0.019060 0.959495
vt 0.154297 0.073772
vt 0.154297 0.959495
vt 0.154297 0.959495
vt 0.194471 0.073772
vt 0.234273 0.073772
vt 0.319250 0.073772
vt 0.294476 0.959495
vt 0.265252 0.959495
vt 0.362464 0.073772
vt 0.406310 0.073772
vt 0.367754 0.959495
vt 0.424929 0.410617
vt 0.440348 0.073772
vt 0.436382 0.959495
vt 0.441443 0.715795
vt 0.218581 0.959495
vt 0.019060 0.969523
vt 0.192957 0.959495
vt 0.203972 0.445954
vt 0.200403 0.434354
vt 0.418253 0.504564
vt 0.176345 0.447367
vt 0.182435 0.460575
vt 0.190677 0.466128
vt 0.199242 0.460951
vt 0.190096 0.428239
vt 0.179819 0.433731
vt 0.443057 0.492051
vt 0.377260 0.647607
vt 0.351038 0.666182
vt 0.422061 0.706184
vt 0.403818 0.671819
vt 0.329621 0.706184
vt 0.348852 0.740634
vt 0.771274 0.757176
vt 0.774394 0.714546
vt 0.803846 0.719666
vt 0.806034 0.766239
vt 0.899327 0.741645
vt 0.881888 0.704794
vt 0.907392 0.692470
vt 0.930181 0.727563
vt 0.747929 0.747447
vt 0.718891 0.739846
vt 0.730267 0.703363
vt 0.756092 0.707977
vt 0.840364 0.757227
vt 0.831927 0.714196
vt 0.852921 0.706977
vt 0.866865 0.747093
vt 0.779546 0.664508
vt 0.804784 0.667385
vt 0.870170 0.651189
vt 0.889594 0.640026
vt 0.744571 0.650506
vt 0.762937 0.654173
vt 0.828134 0.663672
vt 0.844534 0.658160
vt 0.691812 0.725373
vt 0.707974 0.691292
vt 0.726813 0.640270
vt 0.773359 0.587287
vt 0.787251 0.590560
vt 0.840082 0.586420
vt 0.852531 0.581428
vt 0.748839 0.578533
vt 0.762470 0.583327
vt 0.808571 0.590922
vt 0.829014 0.589214
vt 0.869962 0.576827
vt 0.848924 0.210672
vt 0.772284 0.180709
vt 0.780848 0.159102
vt 0.860828 0.186806
vt 0.817941 0.148469
vt 0.855963 0.160845
vt 0.815380 0.221217
vt 0.779694 0.210559
vn -0.4717 -0.7672 0.4347
vn -0.0516 -0.7014 0.7108
vn -0.2492 -0.6128 0.7499
vn -0.4744 -0.4802 0.7378
vn -0.5147 -0.7885 -0.3367
vn -0.2132 -0.6856 -0.6961
vn -0.2237 -0.8441 -0.4872
vn -0.3087 -0.9512 0.0003
vn -0.5011 0.3078 -0.8088
vn -0.2531 -0.1887 -0.9489
vn -0.5524 0.0084 -0.8335
vn -0.2000 0.6984 -0.6872
vn -0.2770 0.6003 -0.7503
vn -0.6127 0.7902 0.0141
vn 0.0051 0.9996 0.0263
vn -0.2917 0.9492 -0.1181
vn -0.2215 0.7525 0.6203
vn -0.1884 0.8617 0.4711
vn -0.1977 0.0080 0.9802
vn -0.2322 0.2485 0.9404
vn -0.3243 -0.5071 0.7986
vn -0.4011 -0.0003 0.9160
vn -0.3284 -0.9221 0.2045
vn -0.3324 -0.7947 -0.5078
vn -0.3296 -0.1996 -0.9228
vn -0.0265 0.0707 -0.9971
vn -0.3760 0.2774 -0.8841
vn -0.3819 0.7931 0.4744
vn -0.3659 0.9306 -0.0031
vn -0.4082 -0.5080 0.7585
vn -0.1627 0.3068 0.9378
vn -0.4089 -0.8942 0.1820
vn -0.4074 -0.7597 -0.5067
vn -0.4042 -0.1745 -0.8979
vn -0.2385 0.4639 0.8532
vn -0.4076 0.9129 -0.0235
vn 0.4211 0.5582 0.7149
vn -0.3131 0.4310 0.8463
vn -0.4331 -0.8860 0.1656
vn -0.5037 -0.6161 0.6055
vn -0.4442 -0.7491 -0.4915
vn -0.4695 -0.1828 -0.8638
vn 0.3982 0.6531 -0.6441
vn -0.4891 0.4747 -0.7318
vn -0.4968 0.8473 -0.1877
vn 0.0439 0.3424 0.9385
vn -0.2879 -0.1190 0.9502
vn -0.4709 -0.5090 0.7205
vn -0.5546 -0.0248 0.8317
vn -0.4186 -0.8881 0.1900
vn -0.4409 -0.7653 -0.4690
vn -0.5187 -0.2121 -0.8282
vn -0.5628 0.4233 -0.7100
vn -0.6111 0.7718 -0.1759
vn 0.1560 0.4715 0.8679
vn -0.5942 0.6727 0.4410
vn -0.1772 0.4334 0.8836
vn 0.4443 -0.4186 0.7921
vn 0.3640 0.0832 0.9277
vn 0.4997 -0.8459 0.1865
vn 0.4329 -0.7095 -0.5561
vn 0.1618 -0.2519 -0.9541
vn 0.6044 0.3005 -0.7379
vn 0.1985 0.9496 -0.2428
vn 0.2452 0.7190 -0.6503
vn 0.2595 0.8012 0.5392
vn 0.5452 0.6273 0.5561
vn 0.4929 0.7836 0.3781
vn -0.6131 -0.2413 -0.7523
vn -0.4625 0.7248 -0.5107
vn -0.8426 0.5048 0.1876
vn -0.8765 0.4220 0.2318
vn -0.9751 0.1924 0.1107
vn -0.6330 0.6862 0.3584
vn -0.5676 -0.0482 0.8219
vn -0.7010 -0.6987 0.1431
vn -0.9235 -0.3806 0.0486
vn -0.7646 -0.4774 0.4330
vn -0.8205 -0.5684 0.0611
vn -0.9660 0.0486 -0.2538
vn -0.9810 0.0882 -0.1725
vn 0.6936 0.6982 -0.1772
vn 0.9215 0.3093 -0.2349
vn 0.7140 0.6679 0.2100
vn 0.7817 0.3906 0.4862
vn 0.9088 0.0915 0.4072
vn 0.8250 -0.3913 0.4078
vn 0.8807 -0.4523 -0.1406
vn 0.9438 -0.0530 0.3262
vn 0.8334 -0.5474 0.0755
vn 0.6853 0.1160 -0.7189
vn 0.7175 -0.3926 -0.5753
vn 0.0062 0.5423 -0.8401
vn -0.3646 0.6514 -0.6654
vn 0.3421 0.7288 -0.5932
vn 0.0324 0.9502 0.3099
vn 0.2981 0.9519 0.0710
vn -0.3295 0.6986 0.6351
vn 0.3829 0.6135 0.6907
vn -0.3465 0.0085 0.9380
vn 0.3989 -0.0759 0.9139
vn -0.2927 -0.7020 0.6492
vn 0.3599 -0.5768 0.7334
vn -0.3094 -0.9506 -0.0257
vn 0.3189 -0.9457 -0.0634
vn -0.7206 -0.6884 -0.0825
vn 0.3804 -0.8950 0.2331
vn 0.7231 -0.6855 -0.0853
vn 0.3000 -0.7802 -0.5489
vn -0.1159 0.6907 -0.7138
vn -0.6650 -0.4486 -0.5971
vn -0.0496 0.3656 -0.9295
vn 0.6609 0.0207 -0.7502
vn 0.7193 0.5628 -0.4073
vn 0.7899 0.5872 -0.1771
vn 0.6978 0.7029 0.1376
vn 0.2986 0.1670 -0.9396
vn 0.4548 0.0538 -0.8890
vn -0.3370 0.9409 -0.0333
vn -0.6610 0.7302 0.1728
vn 0.2303 0.8417 0.4883
vn 0.4287 0.7332 0.5278
vn -0.2509 -0.2317 -0.9399
vn -0.2971 -0.2058 -0.9324
vn 0.6281 -0.0850 -0.7735
vn 0.9450 -0.3195 0.0696
vn -0.7948 0.6052 0.0448
vn -0.8577 0.2775 0.4328
vn -0.0658 0.9413 0.3310
vn 0.2501 0.8298 0.4989
vn -0.1722 -0.6514 -0.7389
vn -0.3306 -0.8950 -0.2995
vn 0.8160 -0.5455 -0.1911
vn 0.9393 -0.2609 0.2227
vn -0.6846 0.6277 0.3706
vn -0.9496 -0.1752 0.2598
vn 0.9063 0.2120 -0.3657
vn 0.7030 0.6917 0.1656
vn -0.8429 0.1695 -0.5106
vn -0.7549 -0.5360 -0.3779
vn 0.2008 -0.6567 -0.7269
vn 0.6726 -0.5073 -0.5387
vn 0.0103 0.9739 -0.2266
vn -0.4507 0.8495 -0.2743
s 1
f 88/1/1 2/2/2 10/3/3
f 2/2/2 86/4/4 10/3/3
f 3/5/5 4/6/6 12/7/7
f 12/7/7 11/8/8 3/5/5
f 4/6/6 90/9/9 5/10/10
f 5/10/10 12/7/7 4/6/6
f 92/11/11 6/12/12 13/13/13
f 13/13/13 5/10/10 92/11/11
f 84/14/14 7/15/15 14/16/16
f 7/15/15 8/17/17 15/18/18
f 15/18/18 14/16/16 7/15/15
f 8/17/17 1/19/19 9/20/20
f 9/20/20 15/18/18 8/17/17
f 9/20/20 10/3/3 17/21/21
f 17/21/21 16/22/22 9/20/20
f 10/3/3 11/23/8 18/24/23
f 18/24/23 17/21/21 10/3/3
f 11/8/8 12/7/7 19/25/24
f 19/25/24 18/26/23 11/8/8
f 12/7/7 5/10/10 20/27/25
f 20/27/25 19/25/24 12/7/7
f 13/13/13 108/28/26 121/29/27
f 121/29/27 5/10/10 13/13/13
f 14/16/16 15/18/18 96/30/28
f 96/30/28 21/31/29 14/16/16
f 15/18/18 9/20/20 16/22/22
f 16/22/22 96/30/28 15/18/18
f 16/22/22 17/21/21 23/32/30
f 23/32/30 22/33/31 16/22/22
f 17/21/21 18/24/23 24/34/32
f 24/34/32 23/32/30 17/21/21
f 18/26/23 19/25/24 25/35/33
f 25/35/33 24/36/32 18/26/23
f 19/25/24 20/27/25 26/37/34
f 26/37/34 25/35/33 19/25/24
f 21/31/29 96/30/28 29/38/35
f 29/38/35 28/39/36 21/31/29
f 96/30/28 97/40/37 29/38/35
f 22/33/31 23/32/30 103/41/38
f 23/32/30 24/34/32 32/42/39
f 32/42/39 31/43/40 23/32/30
f 24/36/32 25/35/33 33/44/41
f 33/44/41 32/45/39 24/36/32
f 25/35/33 26/37/34 34/46/42
f 34/46/42 33/44/41 25/35/33
f 26/37/34 27/47/43 35/48/44
f 35/48/44 34/46/42 26/37/34
f 27/47/43 28/39/36 36/49/45
f 36/49/45 35/48/44 27/47/43
f 28/39/36 104/50/46 36/49/45
f 30/51/47 31/43/40 39/52/48
f 39/52/48 38/53/49 30/51/47
f 31/43/40 32/42/39 40/54/50
f 40/54/50 39/52/48 31/43/40
f 32/45/39 33/44/41 41/55/51
f 41/55/51 40/56/50 32/45/39
f 33/44/41 34/46/42 42/57/52
f 42/57/52 41/55/51 33/44/41
f 34/46/42 35/48/44 43/58/53
f 43/58/53 42/57/52 34/46/42
f 35/48/44 36/49/45 44/59/54
f 44/59/54 43/58/53 35/48/44
f 36/49/45 37/60/55 99/61/56
f 99/61/56 44/59/54 36/49/45
f 37/60/55 98/62/57 99/61/56
f 38/53/49 39/52/48 46/63/58
f 46/63/58 45/64/59 38/53/49
f 39/52/48 40/54/50 47/65/60
f 47/65/60 46/63/58 39/52/48
f 40/56/50 41/55/51 48/66/61
f 48/66/61 47/67/60 40/56/50
f 41/55/51 42/57/52 49/68/62
f 49/68/62 48/66/61 41/55/51
f 42/57/52 43/58/53 135/69/63
f 135/69/63 49/68/62 42/57/52
f 43/58/53 44/59/54 51/70/64
f 51/70/64 50/71/65 43/58/53
f 52/72/66 133/73/67 44/59/54
f 38/53/49 131/74/68 52/72/66
f 88/75/1 89/76/69 54/77/70
f 54/77/70 2/78/2 88/75/1
f 86/79/4 87/80/71 55/81/72
f 55/81/72 3/82/5 86/79/4
f 4/83/6 3/84/5 55/85/72
f 55/85/72 56/86/73 4/83/6
f 90/87/9 91/88/74 57/89/75
f 57/89/75 5/90/10 90/87/9
f 92/91/11 93/92/76 58/93/77
f 58/93/77 6/94/12 92/91/11
f 84/95/14 85/96/78 59/97/79
f 59/97/79 7/98/15 84/95/14
f 8/99/17 7/98/15 59/97/79
f 59/97/79 60/100/80 8/99/17
f 1/101/19 8/99/17 60/100/80
f 60/100/80 53/102/81 1/101/19
f 45/64/59 46/63/58 62/103/82
f 62/103/82 61/104/83 45/64/59
f 46/63/58 47/65/60 63/105/84
f 63/105/84 62/103/82 46/63/58
f 47/67/60 48/66/61 64/106/85
f 64/106/85 63/107/84 47/67/60
f 48/66/61 49/68/62 65/108/86
f 65/108/86 64/106/85 48/66/61
f 49/68/62 135/69/63 136/109/87
f 136/109/87 65/108/86 49/68/62
f 50/71/65 51/70/64 67/110/88
f 67/110/88 66/111/89 50/71/65
f 133/73/67 134/112/90 67/110/88
f 67/110/88 51/70/64 133/73/67
f 131/74/68 132/113/91 100/114/92
f 100/114/92 52/72/66 131/74/68
f 106/115/93 70/116/94 71/117/95
f 70/116/94 72/118/96 73/119/97
f 73/119/97 71/117/95 70/116/94
f 72/120/96 74/121/98 75/122/99
f 75/122/99 73/123/97 72/120/96
f 74/121/98 76/124/100 77/125/101
f 77/125/101 75/122/99 74/121/98
f 76/124/100 78/126/102 79/127/103
f 79/127/103 77/125/101 76/124/100
f 78/126/102 80/128/104 81/129/105
f 81/129/105 79/127/103 78/126/102
f 80/128/104 82/130/106 105/131/107
f 80/128/104 105/131/107 95/132/108
f 80/128/104 95/132/108 83/133/109
f 81/129/105 80/128/104 83/133/109
f 61/134/83 62/135/82 70/116/94
f 70/116/94 69/136/110 61/134/83
f 71/117/95 54/137/70 89/138/69
f 62/135/82 63/139/84 72/118/96
f 72/118/96 70/116/94 62/135/82
f 55/140/72 87/141/71 71/117/95
f 71/117/95 73/119/97 55/140/72
f 63/142/84 64/143/85 74/121/98
f 74/121/98 72/120/96 63/142/84
f 56/144/73 55/145/72 73/123/97
f 73/123/97 75/122/99 56/144/73
f 64/143/85 65/146/86 76/124/100
f 76/124/100 74/121/98 64/143/85
f 91/147/74 56/144/73 75/122/99
f 75/122/99 57/148/75 91/147/74
f 65/146/86 136/149/87 78/126/102
f 78/126/102 76/124/100 65/146/86
f 79/127/103 57/148/75 77/125/101
f 66/150/89 67/151/88 80/128/104
f 80/128/104 78/126/102 66/150/89
f 81/129/105 59/152/79 85/153/78
f 80/128/104 134/154/90 100/155/92
f 100/155/92 82/130/106 80/128/104
f 60/156/80 59/152/79 81/129/105
f 81/129/105 83/133/109 60/156/80
f 61/134/83 69/136/110 101/157/111
f 101/157/111 132/158/91 61/134/83
f 53/159/81 60/156/80 83/133/109
f 83/133/109 68/160/112 53/159/81
f 84/95/14 6/94/12 58/93/77
f 58/93/77 85/96/78 84/95/14
f 6/12/12 84/14/14 14/16/16
f 14/16/16 13/13/13 6/12/12
f 85/153/78 58/161/77 79/127/103
f 79/127/103 81/129/105 85/153/78
f 86/79/4 2/78/2 54/77/70
f 54/77/70 87/80/71 86/79/4
f 88/75/1 1/101/19 53/102/81
f 53/102/81 89/76/69 88/75/1
f 86/4/4 3/162/5 11/23/8
f 11/23/8 10/3/3 86/4/4
f 1/19/19 88/1/1 10/3/3
f 10/3/3 9/20/20 1/19/19
f 89/138/69 53/159/81 68/160/112
f 68/160/112 71/117/95 89/138/69
f 87/141/71 54/137/70 71/117/95
f 90/87/9 4/83/6 56/86/73
f 56/86/73 91/88/74 90/87/9
f 92/91/11 5/90/10 57/89/75
f 57/89/75 93/92/76 92/91/11
f 58/161/77 93/163/76 57/148/75
f 57/148/75 79/127/103 58/161/77
f 75/122/99 77/125/101 57/148/75
f 104/50/46 105/164/107 82/165/106
f 82/165/106 37/60/55 104/50/46
f 83/133/109 95/132/108 102/166/113
f 22/33/31 103/41/38 106/167/93
f 106/167/93 94/168/114 22/33/31
f 97/40/37 102/169/113 95/170/108
f 95/170/108 29/38/35 97/40/37
f 98/62/57 101/171/111 69/172/110
f 69/172/110 30/51/47 98/62/57
f 96/30/28 16/22/22 97/40/37
f 98/62/57 38/53/49 99/61/56
f 102/166/113 68/160/112 83/133/109
f 22/33/31 94/168/114 102/169/113
f 102/169/113 97/40/37 22/33/31
f 98/62/57 37/60/55 82/165/106
f 82/165/106 101/171/111 98/62/57
f 98/62/57 30/51/47 38/53/49
f 16/22/22 22/33/31 97/40/37
f 102/166/113 94/173/114 68/160/112
f 29/38/35 95/170/108 105/164/107
f 105/164/107 104/50/46 29/38/35
f 103/41/38 30/51/47 69/172/110
f 69/172/110 106/167/93 103/41/38
f 23/32/30 31/43/40 103/41/38
f 31/43/40 30/51/47 103/41/38
f 28/39/36 29/38/35 104/50/46
f 104/50/46 37/60/55 36/49/45
f 71/117/95 68/160/112 94/173/114
f 94/173/114 106/115/93 71/117/95
f 106/115/93 69/136/110 70/116/94
f 28/39/36 27/47/43 107/174/115
f 107/174/115 124/175/116 28/39/36
f 26/37/34 20/27/25 109/176/117
f 109/176/117 119/177/118 26/37/34
f 14/16/16 21/31/29 118/178/119
f 118/178/119 127/179/120 14/16/16
f 124/180/116 125/181/121 110/182/122
f 110/182/122 118/183/119 124/180/116
f 121/184/27 122/185/123 113/186/124
f 113/186/124 109/187/117 121/184/27
f 107/188/115 119/189/118 120/190/125
f 120/190/125 111/191/126 107/188/115
f 127/192/120 128/193/127 112/194/128
f 112/194/128 108/195/26 127/192/120
f 125/181/121 126/196/129 114/197/130
f 114/197/130 110/182/122 125/181/121
f 122/185/123 123/198/131 117/199/132
f 117/199/132 113/186/124 122/185/123
f 111/191/126 120/190/125 130/200/133
f 130/200/133 115/201/134 111/191/126
f 112/194/128 128/193/127 129/202/135
f 129/202/135 116/203/136 112/194/128
f 119/189/118 109/204/117 113/205/124
f 113/205/124 120/190/125 119/189/118
f 120/190/125 113/205/124 117/206/132
f 117/206/132 130/200/133 120/190/125
f 108/195/26 112/194/128 122/185/123
f 122/185/123 121/184/27 108/195/26
f 112/194/128 116/203/136 123/198/131
f 123/198/131 122/185/123 112/194/128
f 124/180/116 107/188/115 111/191/126
f 111/191/126 125/181/121 124/180/116
f 125/181/121 111/191/126 115/201/134
f 115/201/134 126/196/129 125/181/121
f 127/192/120 118/183/119 110/182/122
f 110/182/122 128/193/127 127/192/120
f 128/193/127 110/182/122 114/197/130
f 114/197/130 129/202/135 128/193/127
f 26/37/34 119/177/118 107/174/115
f 107/174/115 27/47/43 26/37/34
f 28/39/36 124/175/116 118/178/119
f 118/178/119 21/31/29 28/39/36
f 108/28/26 13/13/13 14/16/16
f 14/16/16 127/179/120 108/28/26
f 121/29/27 109/176/117 20/27/25
f 20/27/25 5/10/10 121/29/27
f 45/64/59 61/104/83 132/113/91
f 132/113/91 131/74/68 45/64/59
f 133/73/67 52/72/66 100/114/92
f 100/114/92 134/112/90 133/73/67
f 133/73/67 51/70/64 44/59/54
f 44/59/54 99/61/56 52/72/66
f 52/72/66 99/61/56 38/53/49
f 38/53/49 45/64/59 131/74/68
f 135/69/63 50/71/65 66/111/89
f 66/111/89 136/109/87 135/69/63
f 43/58/53 50/71/65 135/69/63
f 136/149/87 66/150/89 78/126/102
f 100/155/92 132/158/91 101/157/111
f 101/157/111 82/130/106 100/155/92
f 126/196/129 115/201/134 138/207/137
f 138/207/137 142/208/138 126/196/129
f 123/198/131 116/203/136 139/209/139
f 139/209/139 141/210/140 123/198/131
f 130/200/133 117/206/132 140/211/141
f 140/211/141 144/212/142 130/200/133
f 129/202/135 114/197/130 137/213/143
f 137/213/143 143/214/144 129/202/135
f 115/201/134 130/200/133 144/212/142
f 144/212/142 138/207/137 115/201/134
f 117/199/132 123/198/131 141/210/140
f 141/210/140 140/215/141 117/199/132
f 114/197/130 126/196/129 142/208/138
f 142/208/138 137/213/143 114/197/130
f 116/203/136 129/202/135 143/214/144
f 143/214/144 139/209/139 116/203/136
f 144/216/142 139/217/139 143/218/144
f 143/218/144 138/219/137 144/216/142
f 137/220/143 142/221/138 138/219/137
f 138/219/137 143/218/144 137/220/143
f 140/222/141 141/223/140 139/217/139
f 139/217/139 144/216/142 140/222/141
f 80/128/104 67/151/88 134/154/90
