# Blender v2.83.0 OBJ File: ''
# www.blender.org
o Log_#3_Mesh.1072
v -1.103868 -0.001495 0.294097
v -1.052607 -0.209226 0.208052
v -1.102938 -0.295271 0.000321
v -1.102938 -0.209226 -0.207409
v -1.052605 -0.002237 -0.291629
v -1.052608 0.207820 -0.206372
v -1.052607 0.293019 0.000019
v -0.982215 0.206235 0.208052
v 1.037004 -0.001498 0.294070
v 1.092177 -0.209213 0.208032
v 1.037003 -0.295251 0.000317
v 1.103647 -0.209213 -0.207398
v 1.037002 -0.001229 -0.294097
v 1.054862 0.210118 -0.208316
v 1.036999 0.295271 -0.000912
v 0.935696 0.206217 0.208032
v -1.103868 0.021107 0.222894
v -1.052607 -0.124598 0.157704
v -1.102938 -0.184950 0.000321
v -1.102938 -0.124597 -0.157061
v -1.052607 0.021107 -0.222251
v -1.052607 0.166811 -0.157061
v -1.052606 0.227164 0.000321
v -0.982215 0.166811 0.157703
v 1.037225 0.003572 0.231401
v 1.092399 -0.142132 0.163718
v 1.037224 -0.202485 0.000317
v 1.103869 -0.142132 -0.163084
v 1.037224 0.003572 -0.230767
v 1.055089 0.149277 -0.163084
v 1.037225 0.209629 0.000317
v 0.935917 0.149277 0.163718
v -0.530204 -0.178630 0.179763
v -0.007802 -0.168430 0.170331
v 0.514601 -0.178624 0.179753
v -0.530204 0.000794 0.254084
v -0.530205 -0.252951 0.000339
v -0.007802 -0.238841 0.000344
v 0.514600 -0.252941 0.000336
v -0.530205 -0.178630 -0.179086
v -0.007802 -0.168430 -0.169643
v 0.514600 -0.178624 -0.179080
v 0.514600 0.000807 -0.253432
v 0.514597 0.183080 -0.179451
v 0.514586 0.256148 0.000253
v -0.530149 0.000795 0.178316
v -0.007691 0.001557 0.168961
v 0.514767 0.000793 0.178314
v -0.530149 -0.125054 0.126188
v -0.007691 -0.117673 0.119574
v 0.514767 -0.125056 0.126185
v -0.530149 -0.177183 0.000339
v -0.007691 -0.167060 0.000344
v 0.514767 -0.177185 0.000336
v -0.530150 -0.125054 -0.125510
v -0.007692 -0.117673 -0.118887
v 0.514766 -0.125056 -0.125512
v -0.530149 0.000795 -0.177639
v -0.007691 0.001557 -0.168274
v 0.514766 0.000793 -0.177641
v -0.530149 0.126643 -0.125510
v -0.007691 0.120788 -0.118887
v 0.514767 0.126642 -0.125512
v -0.530149 0.178772 0.000339
v -0.007691 0.170175 0.000344
v 0.514767 0.178770 0.000336
v -0.007691 0.120788 0.119574
v -0.530206 0.182089 -0.178613
v -0.370058 0.180051 -0.172889
v -0.336414 0.133489 -0.190721
v -0.007816 0.243492 0.000454
v -0.007805 0.173789 -0.169595
v -0.160842 0.176539 -0.169422
v -0.193327 0.195551 -0.120404
v -0.007802 0.001364 -0.239578
v -0.530203 0.000372 -0.252367
v -0.267515 0.099268 -0.202760
v -0.199470 0.131020 -0.188487
v -0.530206 0.255670 -0.000123
v -0.267222 0.210736 -0.086969
v -0.336628 0.197396 -0.123878
v -0.203055 0.221833 -0.148564
v -0.267092 0.234507 -0.128183
v -0.327076 0.164184 -0.197050
v -0.267092 0.136320 -0.205357
v -0.209198 0.160692 -0.192802
v -0.180488 0.203779 -0.180954
v -0.326834 0.228273 -0.153302
v -0.350567 0.211855 -0.187891
v -0.224781 0.253369 -0.195451
v -0.266692 0.258299 -0.188814
v -0.305348 0.219199 -0.222782
v -0.266692 0.210285 -0.226553
v -0.230924 0.217139 -0.220156
v -0.216305 0.236380 -0.217595
v -0.305107 0.257923 -0.198951
v -0.324776 0.247813 -0.214924
v -0.223937 0.243390 -0.273096
v -0.228514 0.261880 -0.264571
v -0.307299 0.253028 -0.280085
v -0.300327 0.231453 -0.289717
v -0.266730 0.221803 -0.289643
v -0.235148 0.227312 -0.282551
v -0.264310 0.272872 -0.264062
v -0.299234 0.267748 -0.271618
v 0.354426 0.180044 0.173791
v 0.320782 0.133484 0.191622
v -0.007814 0.172667 0.170416
v 0.177696 0.195547 0.121310
v 0.251590 0.210730 0.087874
v -0.007816 0.001461 0.240614
v 0.251883 0.099265 0.203662
v 0.183838 0.131017 0.189391
v 0.320996 0.197388 0.124781
v 0.187424 0.221829 0.149469
v 0.251461 0.234500 0.129087
v 0.311443 0.164179 0.197952
v 0.251461 0.136316 0.206260
v 0.145211 0.176536 0.170327
v 0.193566 0.160688 0.193705
v 0.164856 0.203775 0.181858
v 0.311202 0.228266 0.154204
v 0.334935 0.211847 0.188793
v 0.209150 0.253363 0.196355
v 0.251060 0.258291 0.189717
v 0.289716 0.219192 0.223683
v 0.251060 0.210279 0.227455
v 0.215292 0.217134 0.221058
v 0.200673 0.236375 0.218498
v 0.289476 0.257915 0.199853
v 0.309145 0.247804 0.215825
v 0.208306 0.243385 0.273998
v 0.212883 0.261874 0.265473
v 0.291668 0.253020 0.280984
v 0.284695 0.231445 0.290616
v 0.251099 0.221797 0.290543
v 0.219516 0.227306 0.283453
v 0.248678 0.272865 0.264963
v 0.283602 0.267740 0.272518
v 0.514586 0.000582 0.253666
v 1.037004 0.102359 0.251051
v 1.037225 0.076425 0.197560
v 0.514588 0.181144 0.179632
v 1.037002 0.250744 0.103560
v 1.037225 0.179453 0.082018
v 0.514767 0.126642 0.126185
v -1.052606 0.102370 0.251074
v -1.052606 0.093959 0.190299
v -0.530149 0.126643 0.126188
v -1.052607 0.249627 0.104035
v -1.052606 0.196987 0.079012
v -0.530204 0.180219 0.179763
vt 0.543460 0.517455
vt 0.470303 0.517455
vt 0.470303 0.283925
vt 0.543460 0.283925
vt 0.612303 0.517455
vt 0.612303 0.283925
vt 0.094986 0.517455
vt 0.019243 0.517455
vt 0.019243 0.283925
vt 0.094986 0.283925
vt 0.170331 0.517455
vt 0.170331 0.283925
vt 0.390139 0.517455
vt 0.313556 0.517455
vt 0.313556 0.283925
vt 0.390139 0.283925
vt 0.543460 0.069544
vt 0.470303 0.069544
vt 0.470303 0.029105
vt 0.543460 0.029105
vt 0.612303 0.069544
vt 0.612303 0.029105
vt 0.094986 0.069544
vt 0.019243 0.069544
vt 0.019243 0.029105
vt 0.094986 0.029105
vt 0.170331 0.069544
vt 0.170331 0.029105
vt 0.235758 0.069544
vt 0.235758 0.029105
vt 0.313556 0.069544
vt 0.313556 0.029105
vt 0.340776 0.069544
vt 0.339328 0.029105
vt 0.390139 0.029105
vt 0.390139 0.069544
vt 0.431263 0.069544
vt 0.419029 0.029105
vt 0.180684 0.523188
vt 0.114279 0.523188
vt 0.101572 0.298834
vt 0.171513 0.298834
vt 0.019243 0.523188
vt 0.019243 0.298834
vt 0.612303 0.523188
vt 0.517024 0.523188
vt 0.529676 0.298834
vt 0.612303 0.298834
vt 0.450725 0.523188
vt 0.459466 0.298834
vt 0.383578 0.523188
vt 0.387804 0.298834
vt 0.315842 0.523188
vt 0.315385 0.298834
vt 0.248092 0.523188
vt 0.242936 0.298834
vt 0.352432 0.069395
vt 0.356755 0.028843
vt 0.313556 0.028843
vt 0.313556 0.069395
vt 0.255862 0.028843
vt 0.257140 0.069395
vt 0.170331 0.028843
vt 0.170331 0.069395
vt 0.094986 0.028843
vt 0.094986 0.069395
vt 0.019243 0.028843
vt 0.019243 0.069395
vt 0.612303 0.069395
vt 0.612303 0.028843
vt 0.543460 0.028843
vt 0.543460 0.069395
vt 0.470303 0.028843
vt 0.470303 0.069395
vt 0.443935 0.069395
vt 0.441104 0.028843
vt 0.390139 0.028843
vt 0.390139 0.069395
vt 0.543460 0.970397
vt 0.470303 0.970397
vt 0.470303 0.752745
vt 0.543460 0.752745
vt 0.612303 0.970397
vt 0.612303 0.752745
vt 0.094986 0.970397
vt 0.019243 0.970397
vt 0.019243 0.752745
vt 0.094986 0.752745
vt 0.170331 0.970397
vt 0.170331 0.752745
vt 0.257140 0.970397
vt 0.235758 0.752745
vt 0.235758 0.517455
vt 0.235758 0.283925
vt 0.313556 0.970397
vt 0.313556 0.752745
vt 0.390139 0.752745
vt 0.390139 0.970397
vt 0.352432 0.970397
vt 0.443935 0.970397
vt 0.148894 0.963319
vt 0.066166 0.963319
vt 0.101873 0.746864
vt 0.172379 0.746864
vt 0.072662 0.074543
vt 0.146467 0.074543
vt 0.019243 0.963319
vt 0.019243 0.746864
vt 0.019243 0.074543
vt 0.612303 0.963319
vt 0.566731 0.963319
vt 0.529330 0.746864
vt 0.612303 0.746864
vt 0.559577 0.074543
vt 0.612303 0.074543
vt 0.484511 0.963319
vt 0.459549 0.746864
vt 0.477209 0.074543
vt 0.406546 0.963319
vt 0.388244 0.746864
vt 0.398281 0.074543
vt 0.320648 0.963319
vt 0.316394 0.746864
vt 0.315398 0.074543
vt 0.277092 0.963319
vt 0.244214 0.746864
vt 0.231688 0.074543
vt 0.273294 0.074543
vt 0.232830 0.963319
vt 0.189057 0.963319
vt 0.188548 0.074543
vt 0.235758 0.356743
vt 0.211501 0.373112
vt 0.254899 0.437110
vt 0.269828 0.403427
vt 0.196812 0.404642
vt 0.212002 0.435339
vt 0.252799 0.372520
vt 0.766030 0.761772
vt 0.772252 0.709337
vt 0.802634 0.714348
vt 0.801054 0.768536
vt 0.887497 0.749937
vt 0.876132 0.698858
vt 0.900897 0.683495
vt 0.916309 0.736511
vt 0.743908 0.753996
vt 0.720785 0.745786
vt 0.733352 0.695288
vt 0.755260 0.703106
vt 0.836157 0.762979
vt 0.831194 0.708851
vt 0.850624 0.702051
vt 0.861309 0.755386
vt 0.775582 0.661181
vt 0.802163 0.664027
vt 0.866177 0.646452
vt 0.885624 0.632502
vt 0.744821 0.643794
vt 0.760922 0.649903
vt 0.826657 0.660459
vt 0.842888 0.655193
vt 0.697413 0.730913
vt 0.714159 0.678307
vt 0.729039 0.629439
vt 0.767485 0.589169
vt 0.780863 0.592955
vt 0.839827 0.589234
vt 0.851661 0.583706
vt 0.743560 0.577526
vt 0.757512 0.584373
vt 0.805421 0.593668
vt 0.828869 0.592101
vt 0.871158 0.577525
vt 0.785614 0.157382
vt 0.854460 0.192238
vt 0.845862 0.213154
vt 0.773905 0.180200
vt 0.811635 0.221073
vt 0.777410 0.206180
vt 0.816589 0.149085
vt 0.848773 0.161999
vt 0.235758 0.453172
vt 0.397416 0.675138
vt 0.416996 0.658980
vt 0.373932 0.596179
vt 0.359298 0.629529
vt 0.431459 0.628063
vt 0.416406 0.597793
vt 0.376376 0.659660
vt 0.766032 0.761722
vt 0.772254 0.709273
vt 0.802637 0.714285
vt 0.801056 0.768486
vt 0.887498 0.749888
vt 0.876134 0.698795
vt 0.900898 0.683432
vt 0.916309 0.736461
vt 0.743911 0.753945
vt 0.720789 0.745735
vt 0.733355 0.695225
vt 0.755263 0.703043
vt 0.836159 0.762930
vt 0.831197 0.708788
vt 0.850626 0.701989
vt 0.861311 0.755338
vt 0.775585 0.661092
vt 0.802166 0.663938
vt 0.866179 0.646364
vt 0.885626 0.632413
vt 0.744825 0.643705
vt 0.760926 0.649813
vt 0.826659 0.660371
vt 0.842890 0.655105
vt 0.697417 0.730862
vt 0.714162 0.678244
vt 0.729042 0.629350
vt 0.767489 0.589096
vt 0.780866 0.592882
vt 0.839830 0.589162
vt 0.851663 0.583634
vt 0.743564 0.577453
vt 0.757516 0.584300
vt 0.805424 0.593596
vt 0.828872 0.592029
vt 0.871159 0.577453
vt 0.785554 0.157500
vt 0.854400 0.192357
vt 0.845801 0.213272
vt 0.773846 0.180317
vt 0.811574 0.221190
vt 0.777350 0.206297
vt 0.816529 0.149204
vt 0.848714 0.162118
vt 0.395549 0.580276
vn 0.0000 -0.3445 0.9388
vn -0.4198 0.0004 0.9076
vn 0.4369 -0.1269 0.8905
vn 0.4686 -0.6235 0.6258
vn 0.0000 -0.9077 0.4196
vn 0.4638 -0.8859 -0.0009
vn -0.0002 -0.9385 -0.3454
vn 0.4660 -0.6239 -0.6273
vn -0.0038 -0.4192 -0.9079
vn 0.4690 0.0009 -0.8832
vn 0.0058 0.9386 0.3448
vn -0.4316 0.9020 0.0018
vn 0.4488 0.8838 0.1320
vn 0.4680 0.6242 0.6255
vn -0.6210 -0.1860 0.7614
vn -0.9145 0.2375 0.3277
vn -0.7795 -0.3225 -0.5370
vn -0.8044 0.5744 -0.1515
vn -0.5962 -0.6880 0.4137
vn -0.9503 0.2596 0.1719
vn -0.6582 -0.7045 -0.2654
vn -0.9642 0.2392 0.1142
vn -0.6349 -0.2736 -0.7225
vn -0.8134 -0.1966 0.5475
vn -0.6325 0.3274 -0.7019
vn -0.9368 -0.2757 0.2152
vn -0.6330 0.7298 -0.2584
vn -0.9292 -0.3696 0.0001
vn -0.8728 0.2468 0.4211
vn -0.6270 -0.7577 0.1812
vn -0.4864 -0.8706 -0.0739
vn -0.6569 0.7539 0.0031
vn -0.5704 0.6245 0.5335
vn -0.7138 0.0717 -0.6967
vn -0.0000 -0.3447 -0.9387
vn -0.3479 0.6625 -0.6634
vn 0.3153 0.7281 -0.6086
vn 0.3060 0.0053 -0.9520
vn -0.3480 0.9375 -0.0000
vn 0.3148 0.9462 0.0745
vn -0.3479 0.6625 0.6634
vn 0.3022 0.6238 0.7208
vn -0.3477 -0.0008 0.9376
vn 0.2980 -0.0745 0.9517
vn -0.3475 -0.6635 0.6626
vn 0.2934 -0.7289 0.6186
vn -0.3475 -0.9377 -0.0000
vn 0.2878 -0.9546 -0.0768
vn -0.3499 -0.6628 -0.6620
vn 0.3176 -0.6074 -0.7282
vn 0.8392 0.1940 0.5080
vn 0.7769 -0.6016 -0.1856
vn 0.7365 -0.6092 0.2941
vn 0.6143 0.7229 0.3163
vn 0.7970 -0.2077 0.5672
vn 0.6373 0.7245 -0.2625
vn 0.6402 -0.1673 0.7498
vn 0.5634 0.4517 -0.6918
vn 0.6961 0.7175 0.0262
vn 0.6232 -0.1339 -0.7705
vn 0.4887 0.8373 -0.2452
vn 0.6297 -0.6611 -0.4080
vn 0.7667 0.1329 -0.6281
vn 0.6157 -0.7782 0.1238
vn 0.8191 -0.1819 -0.5441
vn 0.6534 -0.2642 0.7094
vn 0.8644 0.4819 0.1435
vn 0.5461 0.2334 -0.8045
vn 0.0914 -0.3435 -0.9347
vn 0.7195 -0.0163 0.6943
vn 0.3493 -0.1449 0.9257
vn 0.3709 -0.6562 0.6571
vn 0.3747 -0.9271 -0.0012
vn 0.3696 -0.6587 -0.6554
vn 0.3687 -0.0041 -0.9295
vn 0.3796 0.6530 -0.6553
vn 0.4188 0.6409 -0.6434
vn -0.3438 0.5391 -0.7689
vn 0.3726 0.9280 0.0051
vn 0.3821 0.6494 0.6575
vn 0.3681 0.7298 -0.5761
vn 0.4154 0.0017 -0.9096
vn 0.3636 0.9267 0.0948
vn 0.3757 0.5890 0.7155
vn 0.4029 -0.0817 0.9116
vn 0.3756 -0.7260 0.5761
vn 0.3660 -0.9251 -0.1012
vn 0.4148 -0.5688 -0.7103
vn 0.0858 0.0866 -0.9925
vn -0.3836 0.2455 -0.8903
vn 0.6091 0.7562 0.2391
vn 0.4196 0.9051 0.0692
vn 0.2314 0.3321 -0.9144
vn 0.3419 0.0504 -0.9384
vn -0.6121 0.7433 0.2698
vn 0.1715 0.8603 0.4801
vn 0.3878 0.7434 0.5450
vn -0.1988 -0.2394 -0.9503
vn -0.2498 -0.1687 -0.9535
vn -0.1269 0.1419 -0.9817
vn 0.5384 -0.0682 -0.8399
vn 0.9305 -0.3656 0.0196
vn -0.7749 0.6246 0.0968
vn -0.8257 0.2180 0.5203
vn -0.0871 0.9528 0.2908
vn 0.2505 0.8539 0.4561
vn -0.0926 -0.6659 -0.7402
vn -0.3587 -0.8678 -0.3438
vn 0.7905 -0.5647 -0.2371
vn 0.9264 -0.2840 0.2471
vn -0.6241 0.6942 0.3585
vn -0.9393 -0.2102 0.2711
vn 0.9308 0.1895 -0.3126
vn 0.6839 0.7126 0.1566
vn -0.8612 0.1388 -0.4889
vn -0.7204 -0.5645 -0.4029
vn 0.1922 -0.6209 -0.7600
vn 0.6251 -0.5408 -0.5628
vn 0.0334 0.9629 -0.2677
vn -0.3835 0.8823 -0.2730
vn -0.0831 0.0871 0.9927
vn 0.3842 0.2452 0.8901
vn -0.6098 0.7558 -0.2387
vn -0.4198 0.9050 -0.0689
vn -0.2321 0.3335 0.9137
vn -0.3422 0.0510 0.9383
vn 0.6117 0.7434 -0.2706
vn -0.1714 0.8603 -0.4801
vn -0.3878 0.7434 -0.5450
vn 0.1988 -0.2394 0.9503
vn 0.2498 -0.1687 0.9535
vn 0.1230 0.1417 0.9822
vn -0.5384 -0.0682 0.8399
vn -0.9306 -0.3656 -0.0196
vn 0.7749 0.6246 -0.0968
vn 0.8257 0.2180 -0.5203
vn 0.0871 0.9528 -0.2908
vn -0.2505 0.8539 -0.4561
vn 0.0927 -0.6659 0.7403
vn 0.3587 -0.8678 0.3438
vn -0.7905 -0.5647 0.2371
vn -0.9264 -0.2840 -0.2471
vn 0.6241 0.6942 -0.3585
vn 0.9393 -0.2102 -0.2711
vn -0.9308 0.1895 0.3126
vn -0.6839 0.7126 -0.1567
vn 0.8612 0.1388 0.4889
vn 0.7204 -0.5646 0.4029
vn -0.1922 -0.6208 0.7600
vn -0.6251 -0.5408 0.5629
vn -0.0333 0.9629 0.2677
vn 0.3835 0.8823 0.2731
s 1
f 34/1/1 111/2/2 36/3/3
f 36/3/3 33/4/4 34/1/1
f 38/5/5 34/1/1 33/4/4
f 33/4/4 37/6/6 38/5/5
f 41/7/7 38/8/5 37/9/6
f 37/9/6 40/10/8 41/7/7
f 75/11/9 41/7/7 40/10/8
f 40/10/8 76/12/10 75/11/9
f 108/13/11 71/14/12 79/15/13
f 79/15/13 152/16/14 108/13/11
f 111/2/2 108/13/11 152/16/14
f 152/16/14 36/3/3 111/2/2
f 2/17/15 1/18/16 17/19/17
f 17/19/17 18/20/18 2/17/15
f 3/21/19 2/17/15 18/20/18
f 18/20/18 19/22/20 3/21/19
f 4/23/21 3/24/19 19/25/20
f 19/25/20 20/26/22 4/23/21
f 5/27/23 4/23/21 20/26/22
f 20/26/22 21/28/24 5/27/23
f 6/29/25 5/27/23 21/28/24
f 21/28/24 22/30/26 6/29/25
f 7/31/27 6/29/25 22/30/26
f 22/30/26 23/32/28 7/31/27
f 150/33/29 151/34/30 24/35/31
f 24/35/31 8/36/32 150/33/29
f 147/37/33 148/38/34 17/19/17
f 17/19/17 1/18/16 147/37/33
f 47/39/35 50/40/36 49/41/37
f 49/41/37 46/42/38 47/39/35
f 50/40/36 53/43/39 52/44/40
f 52/44/40 49/41/37 50/40/36
f 53/45/39 56/46/41 55/47/42
f 55/47/42 52/48/40 53/45/39
f 56/46/41 59/49/43 58/50/44
f 58/50/44 55/47/42 56/46/41
f 59/49/43 62/51/45 61/52/46
f 61/52/46 58/50/44 59/49/43
f 62/51/45 65/53/47 64/54/48
f 64/54/48 61/52/46 62/51/45
f 65/53/47 67/55/49 149/56/50
f 149/56/50 64/54/48 65/53/47
f 67/55/49 47/39/35 46/42/38
f 46/42/38 149/56/50 67/55/49
f 144/57/51 145/58/52 31/59/53
f 31/59/53 15/60/54 144/57/51
f 15/60/54 31/59/53 30/61/55
f 30/61/55 14/62/56 15/60/54
f 14/62/56 30/61/55 29/63/57
f 29/63/57 13/64/58 14/62/56
f 13/64/58 29/63/57 28/65/59
f 28/65/59 12/66/60 13/64/58
f 12/66/60 28/65/59 27/67/61
f 27/67/61 11/68/62 12/66/60
f 11/69/62 27/70/61 26/71/63
f 26/71/63 10/72/64 11/69/62
f 10/72/64 26/71/63 25/73/65
f 25/73/65 9/74/66 10/72/64
f 141/75/67 142/76/68 32/77/69
f 32/77/69 16/78/70 141/75/67
f 10/79/64 9/80/66 140/81/71
f 140/81/71 35/82/72 10/79/64
f 35/82/72 140/81/71 111/2/2
f 111/2/2 34/1/1 35/82/72
f 1/18/16 2/17/15 33/4/4
f 33/4/4 36/3/3 1/18/16
f 11/83/62 10/79/64 35/82/72
f 35/82/72 39/84/73 11/83/62
f 39/84/73 35/82/72 34/1/1
f 34/1/1 38/5/5 39/84/73
f 2/17/15 3/21/19 37/6/6
f 37/6/6 33/4/4 2/17/15
f 12/85/60 11/86/62 39/87/73
f 39/87/73 42/88/74 12/85/60
f 42/88/74 39/87/73 38/8/5
f 38/8/5 41/7/7 42/88/74
f 3/24/19 4/23/21 40/10/8
f 40/10/8 37/9/6 3/24/19
f 13/89/58 12/85/60 42/88/74
f 42/88/74 43/90/75 13/89/58
f 43/90/75 42/88/74 41/7/7
f 41/7/7 75/11/9 43/90/75
f 4/23/21 5/27/23 76/12/10
f 76/12/10 40/10/8 4/23/21
f 14/91/56 13/89/58 43/90/75
f 43/90/75 44/92/76 14/91/56
f 44/92/76 43/90/75 75/11/9
f 75/11/9 72/93/77 44/92/76
f 5/27/23 6/29/25 68/94/78
f 68/94/78 76/12/10 5/27/23
f 15/95/54 14/91/56 44/92/76
f 44/92/76 45/96/79 15/95/54
f 45/96/79 44/92/76 72/93/77
f 72/93/77 71/14/12 45/96/79
f 6/29/25 7/31/27 79/15/13
f 79/15/13 68/94/78 6/29/25
f 143/97/80 16/98/70 144/99/51
f 7/31/27 150/33/29 152/16/14
f 152/16/14 79/15/13 7/31/27
f 140/81/71 9/80/66 141/100/67
f 141/100/67 143/97/80 140/81/71
f 152/16/14 8/36/32 147/37/33
f 25/101/65 26/102/63 51/103/81
f 51/103/81 48/104/82 25/101/65
f 48/104/82 51/103/81 50/40/36
f 50/40/36 47/39/35 48/104/82
f 18/105/18 17/106/17 46/42/38
f 46/42/38 49/41/37 18/105/18
f 26/102/63 27/107/61 54/108/83
f 54/108/83 51/103/81 26/102/63
f 51/103/81 54/108/83 53/43/39
f 53/43/39 50/40/36 51/103/81
f 19/109/20 18/105/18 49/41/37
f 49/41/37 52/44/40 19/109/20
f 27/110/61 28/111/59 57/112/84
f 57/112/84 54/113/83 27/110/61
f 54/113/83 57/112/84 56/46/41
f 56/46/41 53/45/39 54/113/83
f 20/114/22 19/115/20 52/48/40
f 52/48/40 55/47/42 20/114/22
f 28/111/59 29/116/57 60/117/85
f 60/117/85 57/112/84 28/111/59
f 57/112/84 60/117/85 59/49/43
f 59/49/43 56/46/41 57/112/84
f 21/118/24 20/114/22 55/47/42
f 55/47/42 58/50/44 21/118/24
f 29/116/57 30/119/55 63/120/86
f 63/120/86 60/117/85 29/116/57
f 60/117/85 63/120/86 62/51/45
f 62/51/45 59/49/43 60/117/85
f 22/121/26 21/118/24 58/50/44
f 58/50/44 61/52/46 22/121/26
f 30/119/55 31/122/53 66/123/87
f 66/123/87 63/120/86 30/119/55
f 63/120/86 66/123/87 65/53/47
f 65/53/47 62/51/45 63/120/86
f 23/124/28 22/121/26 61/52/46
f 61/52/46 64/54/48 23/124/28
f 31/122/53 145/125/52 146/126/88
f 146/126/88 66/123/87 31/122/53
f 66/123/87 146/126/88 67/55/49
f 67/55/49 65/53/47 66/123/87
f 149/56/50 24/127/31 151/128/30
f 146/126/88 32/129/69 142/130/68
f 67/55/49 146/126/88 48/104/82
f 48/104/82 47/39/35 67/55/49
f 17/106/17 148/131/34 149/56/50
f 149/56/50 46/42/38 17/106/17
f 68/94/78 69/132/89 70/133/90
f 71/14/12 72/93/77 74/134/91
f 74/134/91 80/135/92 71/14/12
f 75/11/9 77/136/93 78/137/94
f 78/137/94 72/93/77 75/11/9
f 79/15/13 80/135/92 81/138/95
f 81/138/95 68/94/78 79/15/13
f 74/139/91 82/140/96 83/141/97
f 83/141/97 80/142/92 74/139/91
f 70/143/90 84/144/98 85/145/99
f 85/145/99 77/146/93 70/143/90
f 73/147/100 78/148/94 86/149/101
f 86/149/101 87/150/102 73/147/100
f 81/151/95 88/152/103 89/153/104
f 89/153/104 69/154/89 81/151/95
f 82/140/96 90/155/105 91/156/106
f 91/156/106 83/141/97 82/140/96
f 84/144/98 92/157/107 93/158/108
f 93/158/108 85/145/99 84/144/98
f 87/150/102 86/149/101 94/159/109
f 94/159/109 95/160/110 87/150/102
f 89/153/104 88/152/103 96/161/111
f 96/161/111 97/162/112 89/153/104
f 78/148/94 77/163/93 85/164/99
f 85/164/99 86/149/101 78/148/94
f 86/149/101 85/164/99 93/165/108
f 93/165/108 94/159/109 86/149/101
f 69/154/89 89/153/104 84/144/98
f 84/144/98 70/143/90 69/154/89
f 89/153/104 97/162/112 92/157/107
f 92/157/107 84/144/98 89/153/104
f 74/139/91 73/147/100 87/150/102
f 87/150/102 82/140/96 74/139/91
f 82/140/96 87/150/102 95/160/110
f 95/160/110 90/155/105 82/140/96
f 81/151/95 80/142/92 83/141/97
f 83/141/97 88/152/103 81/151/95
f 88/152/103 83/141/97 91/156/106
f 91/156/106 96/161/111 88/152/103
f 90/155/105 95/160/110 98/166/113
f 98/166/113 99/167/114 90/155/105
f 92/157/107 97/162/112 100/168/115
f 100/168/115 101/169/116 92/157/107
f 94/159/109 93/165/108 102/170/117
f 102/170/117 103/171/118 94/159/109
f 96/161/111 91/156/106 104/172/119
f 104/172/119 105/173/120 96/161/111
f 95/160/110 94/159/109 103/171/118
f 103/171/118 98/166/113 95/160/110
f 93/158/108 92/157/107 101/169/116
f 101/169/116 102/174/117 93/158/108
f 91/156/106 90/155/105 99/167/114
f 99/167/114 104/172/119 91/156/106
f 97/162/112 96/161/111 105/173/120
f 105/173/120 100/168/115 97/162/112
f 103/175/118 100/176/115 105/177/120
f 105/177/120 98/178/113 103/175/118
f 104/179/119 99/180/114 98/178/113
f 98/178/113 105/177/120 104/179/119
f 102/181/117 101/182/116 100/176/115
f 100/176/115 103/175/118 102/181/117
f 75/11/9 76/12/10 77/136/93
f 80/135/92 79/15/13 71/14/12
f 72/93/77 73/183/100 74/134/91
f 81/138/95 69/132/89 68/94/78
f 78/137/94 73/183/100 72/93/77
f 76/12/10 68/94/78 70/133/90
f 70/133/90 77/136/93 76/12/10
f 143/97/80 106/184/121 107/185/122
f 71/14/12 108/13/11 109/186/123
f 109/186/123 110/187/124 71/14/12
f 111/2/2 112/188/125 113/189/126
f 113/189/126 108/13/11 111/2/2
f 45/96/79 110/187/124 114/190/127
f 114/190/127 143/97/80 45/96/79
f 109/191/123 115/192/128 116/193/129
f 116/193/129 110/194/124 109/191/123
f 107/195/122 117/196/130 118/197/131
f 118/197/131 112/198/125 107/195/122
f 119/199/132 113/200/126 120/201/133
f 120/201/133 121/202/134 119/199/132
f 114/203/127 122/204/135 123/205/136
f 123/205/136 106/206/121 114/203/127
f 115/192/128 124/207/137 125/208/138
f 125/208/138 116/193/129 115/192/128
f 117/196/130 126/209/139 127/210/140
f 127/210/140 118/197/131 117/196/130
f 121/202/134 120/201/133 128/211/141
f 128/211/141 129/212/142 121/202/134
f 123/205/136 122/204/135 130/213/143
f 130/213/143 131/214/144 123/205/136
f 113/200/126 112/215/125 118/216/131
f 118/216/131 120/201/133 113/200/126
f 120/201/133 118/216/131 127/217/140
f 127/217/140 128/211/141 120/201/133
f 106/206/121 123/205/136 117/196/130
f 117/196/130 107/195/122 106/206/121
f 123/205/136 131/214/144 126/209/139
f 126/209/139 117/196/130 123/205/136
f 109/191/123 119/199/132 121/202/134
f 121/202/134 115/192/128 109/191/123
f 115/192/128 121/202/134 129/212/142
f 129/212/142 124/207/137 115/192/128
f 114/203/127 110/194/124 116/193/129
f 116/193/129 122/204/135 114/203/127
f 122/204/135 116/193/129 125/208/138
f 125/208/138 130/213/143 122/204/135
f 124/207/137 129/212/142 132/218/145
f 132/218/145 133/219/146 124/207/137
f 126/209/139 131/214/144 134/220/147
f 134/220/147 135/221/148 126/209/139
f 128/211/141 127/217/140 136/222/149
f 136/222/149 137/223/150 128/211/141
f 130/213/143 125/208/138 138/224/151
f 138/224/151 139/225/152 130/213/143
f 129/212/142 128/211/141 137/223/150
f 137/223/150 132/218/145 129/212/142
f 127/210/140 126/209/139 135/221/148
f 135/221/148 136/226/149 127/210/140
f 125/208/138 124/207/137 133/219/146
f 133/219/146 138/224/151 125/208/138
f 131/214/144 130/213/143 139/225/152
f 139/225/152 134/220/147 131/214/144
f 137/227/150 134/228/147 139/229/152
f 139/229/152 132/230/145 137/227/150
f 138/231/151 133/232/146 132/230/145
f 132/230/145 139/229/152 138/231/151
f 136/233/149 135/234/148 134/228/147
f 134/228/147 137/227/150 136/233/149
f 111/2/2 140/81/71 112/188/125
f 110/187/124 45/96/79 71/14/12
f 108/13/11 119/235/132 109/186/123
f 114/190/127 106/184/121 143/97/80
f 113/189/126 119/235/132 108/13/11
f 107/185/122 112/188/125 140/81/71
f 140/81/71 143/97/80 107/185/122
f 141/75/67 9/74/66 25/73/65
f 25/73/65 142/76/68 141/75/67
f 141/100/67 16/98/70 143/97/80
f 142/130/68 25/101/65 48/104/82
f 48/104/82 146/126/88 142/130/68
f 144/57/51 16/78/70 32/77/69
f 32/77/69 145/58/52 144/57/51
f 144/99/51 15/95/54 45/96/79
f 45/96/79 143/97/80 144/99/51
f 145/125/52 32/129/69 146/126/88
f 8/36/32 24/35/31 148/38/34
f 148/38/34 147/37/33 8/36/32
f 147/37/33 1/18/16 36/3/3
f 36/3/3 152/16/14 147/37/33
f 148/131/34 24/127/31 149/56/50
f 150/33/29 7/31/27 23/32/28
f 23/32/28 151/34/30 150/33/29
f 150/33/29 8/36/32 152/16/14
f 151/128/30 23/124/28 64/54/48
f 64/54/48 149/56/50 151/128/30
