# Blender v2.83.0 OBJ File: ''
# www.blender.org
o Mushroom_#2_Mesh.007
v 0.000000 0.218790 0.108064
v 0.108065 0.218790 -0.000001
v 0.000000 0.218790 -0.108066
v -0.108065 0.218790 -0.000001
v 0.076413 0.218790 0.076413
v -0.076413 0.218790 0.076413
v 0.076413 0.218790 -0.076414
v -0.076413 0.218790 -0.076414
v 0.000000 0.190234 0.174008
v 0.174009 0.190234 -0.000001
v 0.000000 0.190234 -0.174009
v -0.174009 0.190234 -0.000001
v 0.123043 0.190234 0.123043
v -0.123043 0.190234 0.123043
v 0.123043 0.190234 -0.123044
v -0.123043 0.190234 -0.123044
v 0.000000 0.152542 0.184849
v 0.184850 0.152542 -0.000001
v 0.000000 0.152542 -0.184851
v -0.184850 0.152542 -0.000001
v 0.130708 0.152542 0.130708
v -0.130708 0.152542 0.130708
v 0.130708 0.152542 -0.130709
v -0.130708 0.152542 -0.130709
v 0.000000 0.128726 0.142560
v 0.142561 0.128726 -0.000001
v 0.000000 0.128726 -0.142563
v -0.142561 0.128726 -0.000001
v 0.100806 0.128726 0.100805
v -0.100806 0.128726 0.100805
v 0.100806 0.128726 -0.100808
v -0.100806 0.128726 -0.100808
v 0.000000 0.143088 0.037234
v 0.037235 0.143088 -0.000001
v 0.000000 0.143088 -0.037235
v -0.037235 0.143088 -0.000001
v 0.026329 0.143088 0.026328
v -0.026329 0.143088 0.026328
v 0.026329 0.143088 -0.026329
v -0.026329 0.143088 -0.026329
v 0.000000 0.052185 0.047449
v 0.047449 0.052185 -0.000001
v 0.000000 0.052185 -0.047450
v -0.047449 0.052185 -0.000001
v 0.033552 0.052185 0.033550
v -0.033552 0.052185 0.033550
v 0.033552 0.052185 -0.033553
v -0.033552 0.052185 -0.033553
v 0.000000 -0.000267 0.038533
v 0.038534 -0.000267 -0.000001
v 0.000000 -0.000267 -0.038536
v -0.038534 -0.000267 -0.000001
v 0.027248 -0.000267 0.027247
v -0.027248 -0.000267 0.027247
v 0.027248 -0.000267 -0.027249
v -0.027248 -0.000267 -0.027249
v 0.000000 0.092735 0.047409
v 0.047410 0.092735 -0.000001
v 0.000000 0.092735 -0.047410
v -0.047410 0.092735 -0.000001
v 0.033524 0.092735 0.033523
v -0.033524 0.092735 0.033523
v 0.033524 0.092735 -0.033525
v -0.033524 0.092735 -0.033525
v 0.000000 0.233610 -0.000001
vt 0.773786 0.319774
vt 0.841761 0.292708
vt 0.887355 0.339165
vt 0.773674 0.384194
vt 0.706230 0.291469
vt 0.660531 0.337779
vt 0.678145 0.223421
vt 0.611190 0.223407
vt 0.707557 0.156186
vt 0.661964 0.109729
vt 0.775531 0.129119
vt 0.775643 0.064701
vt 0.843087 0.157425
vt 0.888784 0.111115
vt 0.871172 0.225472
vt 0.938127 0.225483
vt 0.913583 0.365904
vt 0.773803 0.421154
vt 0.634509 0.364690
vt 0.571465 0.223561
vt 0.635736 0.082990
vt 0.775513 0.027741
vt 0.914805 0.084203
vt 0.977853 0.225328
vt 0.206864 0.979304
vt 0.074700 0.927067
vt 0.107856 0.892573
vt 0.205969 0.931498
vt 0.337344 0.922992
vt 0.302918 0.889764
vt 0.390007 0.790775
vt 0.342027 0.791678
vt 0.333266 0.660257
vt 0.300110 0.694750
vt 0.201101 0.608018
vt 0.201996 0.655824
vt 0.070621 0.664333
vt 0.105047 0.697560
vt 0.017959 0.796550
vt 0.065939 0.795647
vt 0.179153 0.818926
vt 0.204371 0.829034
vt 0.229352 0.818415
vt 0.239487 0.793326
vt 0.228813 0.768398
vt 0.203594 0.758290
vt 0.178614 0.768910
vt 0.168478 0.793999
vt 0.834620 0.786565
vt 0.834620 0.851073
vt 0.791958 0.851073
vt 0.791958 0.786565
vt 0.749207 0.851073
vt 0.749207 0.786565
vt 0.706230 0.851073
vt 0.706230 0.786565
vt 0.662826 0.851073
vt 0.662826 0.786565
vt 0.619130 0.851073
vt 0.619130 0.786565
vt 0.963499 0.786565
vt 0.963499 0.851073
vt 0.920371 0.851073
vt 0.920371 0.786565
vt 0.877368 0.851073
vt 0.877368 0.786565
vt 0.791958 0.908945
vt 0.834620 0.908945
vt 0.834620 0.977245
vt 0.791958 0.977245
vt 0.749207 0.908945
vt 0.749207 0.977245
vt 0.706230 0.908945
vt 0.706230 0.977245
vt 0.662826 0.908945
vt 0.662826 0.977245
vt 0.619130 0.908945
vt 0.619130 0.977245
vt 0.920371 0.908945
vt 0.963499 0.908945
vt 0.963499 0.977245
vt 0.920371 0.977245
vt 0.877368 0.908945
vt 0.877368 0.977245
vt 0.774658 0.224447
vn -0.1876 0.9566 0.2231
vn -0.3438 0.8738 0.3438
vn 0.0502 0.8393 0.5414
vn 0.0000 0.9691 0.2468
vn 0.0250 0.9566 0.2904
vn 0.1745 0.9691 0.1745
vn 0.2230 0.9566 0.1876
vn 0.2468 0.9691 0.0000
vn 0.2904 0.9566 -0.0251
vn 0.1745 0.9691 -0.1745
vn 0.1876 0.9566 -0.2230
vn 0.0000 0.9691 -0.2468
vn -0.0251 0.9566 -0.2904
vn -0.1745 0.9691 -0.1745
vn -0.2230 0.9566 -0.1876
vn -0.2468 0.9691 -0.0000
vn -0.3630 -0.2674 0.8926
vn -0.0000 0.0455 0.9990
vn 0.7064 0.0455 0.7064
vn 0.9990 0.0455 0.0000
vn 0.7064 0.0455 -0.7064
vn 0.0000 0.0455 -0.9990
vn -0.7064 0.0455 -0.7064
vn -0.9990 0.0455 -0.0000
vn 0.1267 -0.8873 0.4434
vn -0.0000 -0.7775 0.6289
vn 0.4447 -0.7775 0.4447
vn 0.6289 -0.7775 -0.0000
vn 0.4447 -0.7775 -0.4447
vn -0.0000 -0.7775 -0.6289
vn -0.4447 -0.7775 -0.4447
vn -0.6289 -0.7775 0.0000
vn -0.3499 -0.7516 0.5592
vn 0.0000 -0.6923 0.7216
vn 0.5102 -0.6923 0.5102
vn 0.7216 -0.6923 0.0000
vn 0.5102 -0.6923 -0.5102
vn 0.0000 -0.6923 -0.7216
vn -0.5102 -0.6923 -0.5102
vn -0.7216 -0.6923 -0.0000
vn -0.3078 0.1053 0.9456
vn -0.2033 0.4882 0.8487
vn 0.4564 0.4882 0.7439
vn 0.8487 0.4882 0.2033
vn 0.7439 0.4882 -0.4564
vn 0.2033 0.4882 -0.8487
vn -0.4564 0.4882 -0.7439
vn -0.8487 0.4882 -0.2033
vn -0.4469 -0.0884 0.8902
vn -0.6045 -0.5189 0.6045
vn -0.6215 -0.5744 0.5327
vn -0.0627 -0.5744 0.8161
vn 0.3135 -0.0884 0.9455
vn 0.5327 -0.5744 0.6215
vn 0.8902 -0.0884 0.4469
vn 0.8161 -0.5744 0.0627
vn 0.9455 -0.0884 -0.3135
vn 0.6214 -0.5744 -0.5328
vn 0.4469 -0.0884 -0.8902
vn 0.0627 -0.5744 -0.8161
vn -0.3135 -0.0884 -0.9455
vn -0.5328 -0.5744 -0.6214
vn -0.8902 -0.0884 -0.4468
vn -0.8161 -0.5744 -0.0627
vn 0.0000 0.9872 0.1595
s 1
f 1/1/1 6/2/2 14/3/3
f 14/3/3 9/4/4 1/1/1
f 5/5/5 1/1/1 9/4/4
f 9/4/4 13/6/6 5/5/5
f 2/7/7 5/5/5 13/6/6
f 13/6/6 10/8/8 2/7/7
f 7/9/9 2/7/7 10/8/8
f 10/8/8 15/10/10 7/9/9
f 3/11/11 7/9/9 15/10/10
f 15/10/10 11/12/12 3/11/11
f 8/13/13 3/11/11 11/12/12
f 11/12/12 16/14/14 8/13/13
f 4/15/15 8/13/13 16/14/14
f 16/14/14 12/16/16 4/15/15
f 6/2/2 4/15/15 12/16/16
f 12/16/16 14/3/3 6/2/2
f 9/4/4 14/3/3 22/17/17
f 22/17/17 17/18/18 9/4/4
f 13/6/6 9/4/4 17/18/18
f 17/18/18 21/19/19 13/6/6
f 10/8/8 13/6/6 21/19/19
f 21/19/19 18/20/20 10/8/8
f 15/10/10 10/8/8 18/20/20
f 18/20/20 23/21/21 15/10/10
f 11/12/12 15/10/10 23/21/21
f 23/21/21 19/22/22 11/12/12
f 16/14/14 11/12/12 19/22/22
f 19/22/22 24/23/23 16/14/14
f 12/16/16 16/14/14 24/23/23
f 24/23/23 20/24/24 12/16/16
f 14/3/3 12/16/16 20/24/24
f 20/24/24 22/17/17 14/3/3
f 17/25/18 22/26/17 30/27/25
f 30/27/25 25/28/26 17/25/18
f 21/29/19 17/25/18 25/28/26
f 25/28/26 29/30/27 21/29/19
f 18/31/20 21/29/19 29/30/27
f 29/30/27 26/32/28 18/31/20
f 23/33/21 18/31/20 26/32/28
f 26/32/28 31/34/29 23/33/21
f 19/35/22 23/33/21 31/34/29
f 31/34/29 27/36/30 19/35/22
f 24/37/23 19/35/22 27/36/30
f 27/36/30 32/38/31 24/37/23
f 20/39/24 24/37/23 32/38/31
f 32/38/31 28/40/32 20/39/24
f 22/26/17 20/39/24 28/40/32
f 28/40/32 30/27/25 22/26/17
f 25/28/26 30/27/25 38/41/33
f 38/41/33 33/42/34 25/28/26
f 29/30/27 25/28/26 33/42/34
f 33/42/34 37/43/35 29/30/27
f 26/32/28 29/30/27 37/43/35
f 37/43/35 34/44/36 26/32/28
f 31/34/29 26/32/28 34/44/36
f 34/44/36 39/45/37 31/34/29
f 27/36/30 31/34/29 39/45/37
f 39/45/37 35/46/38 27/36/30
f 32/38/31 27/36/30 35/46/38
f 35/46/38 40/47/39 32/38/31
f 28/40/32 32/38/31 40/47/39
f 40/47/39 36/48/40 28/40/32
f 30/27/25 28/40/32 36/48/40
f 36/48/40 38/41/33 30/27/25
f 38/49/33 62/50/41 57/51/42
f 57/51/42 33/52/34 38/49/33
f 33/52/34 57/51/42 61/53/43
f 61/53/43 37/54/35 33/52/34
f 37/54/35 61/53/43 58/55/44
f 58/55/44 34/56/36 37/54/35
f 34/56/36 58/55/44 63/57/45
f 63/57/45 39/58/37 34/56/36
f 39/58/37 63/57/45 59/59/46
f 59/59/46 35/60/38 39/58/37
f 35/61/38 59/62/46 64/63/47
f 64/63/47 40/64/39 35/61/38
f 40/64/39 64/63/47 60/65/48
f 60/65/48 36/66/40 40/64/39
f 36/66/40 60/65/48 62/50/41
f 62/50/41 38/49/33 36/66/40
f 41/67/49 46/68/50 54/69/51
f 54/69/51 49/70/52 41/67/49
f 45/71/53 41/67/49 49/70/52
f 49/70/52 53/72/54 45/71/53
f 42/73/55 45/71/53 53/72/54
f 53/72/54 50/74/56 42/73/55
f 47/75/57 42/73/55 50/74/56
f 50/74/56 55/76/58 47/75/57
f 43/77/59 47/75/57 55/76/58
f 55/76/58 51/78/60 43/77/59
f 48/79/61 43/80/59 51/81/60
f 51/81/60 56/82/62 48/79/61
f 44/83/63 48/79/61 56/82/62
f 56/82/62 52/84/64 44/83/63
f 46/68/50 44/83/63 52/84/64
f 52/84/64 54/69/51 46/68/50
f 46/68/50 41/67/49 57/51/42
f 57/51/42 62/50/41 46/68/50
f 41/67/49 45/71/53 61/53/43
f 61/53/43 57/51/42 41/67/49
f 45/71/53 42/73/55 58/55/44
f 58/55/44 61/53/43 45/71/53
f 42/73/55 47/75/57 63/57/45
f 63/57/45 58/55/44 42/73/55
f 47/75/57 43/77/59 59/59/46
f 59/59/46 63/57/45 47/75/57
f 43/80/59 48/79/61 64/63/47
f 64/63/47 59/62/46 43/80/59
f 48/79/61 44/83/63 60/65/48
f 60/65/48 64/63/47 48/79/61
f 44/83/63 46/68/50 62/50/41
f 62/50/41 60/65/48 44/83/63
f 1/1/1 5/5/5 65/85/65
f 5/5/5 2/7/7 65/85/65
f 2/7/7 7/9/9 65/85/65
f 7/9/9 3/11/11 65/85/65
f 3/11/11 8/13/13 65/85/65
f 8/13/13 4/15/15 65/85/65
f 4/15/15 6/2/2 65/85/65
f 6/2/2 1/1/1 65/85/65
