# Blender v2.83.0 OBJ File: ''
# www.blender.org
o Object_Mesh.1033
v 0.282403 0.215370 -0.960731
v 0.298343 0.215370 -1.194000
v 0.341318 0.215370 -1.194000
v 0.346552 0.215370 -0.960731
v 0.291031 0.220236 -1.427269
v 0.331445 0.220236 -1.427269
v 0.287445 0.213194 -1.660537
v 0.345918 0.213194 -1.660537
v 0.292553 0.210894 -1.893806
v 0.331612 0.210894 -1.893806
v 0.306480 0.215542 -2.127074
v 0.335296 0.215542 -2.127075
v 0.282403 0.215371 -2.360343
v 0.346552 0.215371 -2.360343
v 0.282403 0.275839 -0.960731
v 0.346552 0.275839 -0.960731
v 0.333234 0.275839 -1.194000
v 0.287636 0.275839 -1.194000
v 0.345599 0.280705 -1.427269
v 0.291031 0.280705 -1.427269
v 0.333024 0.273663 -1.660537
v 0.295508 0.273663 -1.660537
v 0.340108 0.271364 -1.893806
v 0.292553 0.271364 -1.893806
v 0.346552 0.276011 -2.127075
v 0.306474 0.276011 -2.127074
v 0.336140 0.275840 -2.360343
v 0.282403 0.275840 -2.360343
v 0.358215 0.228807 -0.960731
v 0.351079 0.228807 -1.194000
v 0.351079 0.262402 -1.194000
v 0.358215 0.262401 -0.960731
v 0.357263 0.233674 -1.427269
v 0.357263 0.267268 -1.427269
v 0.358215 0.226632 -1.660537
v 0.358215 0.260226 -1.660537
v 0.348754 0.224332 -1.893806
v 0.348754 0.257926 -1.893806
v 0.358215 0.228980 -2.127075
v 0.358215 0.262574 -2.127075
v 0.358215 0.228808 -2.360343
v 0.358215 0.262402 -2.360343
v 0.270739 0.228808 -2.360343
v 0.283069 0.228980 -2.127075
v 0.283069 0.262574 -2.127075
v 0.270739 0.262402 -2.360343
v 0.283907 0.224332 -1.893806
v 0.283907 0.257926 -1.893806
v 0.270739 0.226632 -1.660537
v 0.270739 0.260226 -1.660537
v 0.279367 0.233674 -1.427269
v 0.279367 0.267268 -1.427269
v 0.277876 0.228807 -1.194000
v 0.277876 0.262402 -1.194000
v 0.270739 0.228807 -0.960731
v 0.270739 0.262401 -0.960731
v 0.226645 0.368065 -2.478163
v 0.226645 0.368065 -2.320418
v 0.235684 0.368065 -2.315012
v 0.245794 0.368065 -2.497083
v 0.385412 0.193113 -2.490065
v 0.387590 0.018162 -2.483047
v 0.273811 0.018162 -2.483047
v 0.245327 0.193113 -2.490065
v 0.401698 0.193113 -2.366556
v 0.394680 0.018162 -2.361334
v 0.394680 0.018162 -2.476078
v 0.401698 0.193113 -2.472915
v 0.257296 0.193113 -2.322030
v 0.252345 0.018162 -2.329049
v 0.383016 0.018162 -2.329049
v 0.375253 0.193113 -2.322030
v 0.233664 0.193113 -2.478401
v 0.240682 0.018162 -2.453161
v 0.240682 0.018162 -2.352947
v 0.233664 0.193113 -2.346233
v 0.397053 0.368065 -2.497083
v 0.259364 -0.156790 -2.476028
v 0.347642 -0.156790 -2.476028
v 0.408716 0.368065 -2.326675
v 0.408716 0.368065 -2.485419
v 0.387661 -0.156790 -2.446049
v 0.387661 -0.156790 -2.347731
v 0.397053 0.368065 -2.315012
v 0.375998 -0.156790 -2.336067
v 0.259364 -0.156790 -2.336067
v 0.247700 -0.156790 -2.347731
v 0.247700 -0.156790 -2.464365
v -0.224530 0.368065 -2.478163
v -0.243679 0.368065 -2.497083
v -0.233569 0.368065 -2.315012
v -0.224530 0.368065 -2.320418
v -0.383296 0.193113 -2.490064
v -0.243212 0.193113 -2.490064
v -0.271696 0.018162 -2.483047
v -0.385475 0.018162 -2.483047
v -0.399583 0.193113 -2.366556
v -0.399583 0.193113 -2.472915
v -0.392565 0.018162 -2.476078
v -0.392565 0.018162 -2.361334
v -0.255181 0.193113 -2.322030
v -0.373138 0.193113 -2.322030
v -0.380901 0.018162 -2.329049
v -0.250230 0.018162 -2.329049
v -0.231549 0.193113 -2.478401
v -0.231549 0.193113 -2.346234
v -0.238567 0.018162 -2.352947
v -0.238567 0.018162 -2.453161
v -0.394938 0.368065 -2.497083
v -0.257249 -0.156790 -2.476028
v -0.345527 -0.156790 -2.476028
v -0.406601 0.368065 -2.326675
v -0.406601 0.368065 -2.485419
v -0.385547 -0.156790 -2.446049
v -0.385547 -0.156790 -2.347730
v -0.394938 0.368065 -2.315012
v -0.373883 -0.156790 -2.336067
v -0.257249 -0.156790 -2.336067
v -0.245585 -0.156790 -2.347730
v -0.245585 -0.156790 -2.464365
v -0.282841 0.215371 -2.360343
v -0.298781 0.215370 -2.127075
v -0.341756 0.215370 -2.127075
v -0.346990 0.215371 -2.360343
v -0.291469 0.220236 -1.893806
v -0.331883 0.220236 -1.893806
v -0.287883 0.213194 -1.660537
v -0.346356 0.213194 -1.660537
v -0.292991 0.210894 -1.427269
v -0.332050 0.210894 -1.427269
v -0.306918 0.215541 -1.194000
v -0.335733 0.215541 -1.194000
v -0.282841 0.215370 -0.960731
v -0.346990 0.215370 -0.960731
v -0.282841 0.275840 -2.360343
v -0.346990 0.275840 -2.360343
v -0.333672 0.275840 -2.127075
v -0.288074 0.275840 -2.127075
v -0.346037 0.280706 -1.893806
v -0.291469 0.280706 -1.893806
v -0.333462 0.273663 -1.660537
v -0.295946 0.273663 -1.660537
v -0.340545 0.271363 -1.427269
v -0.292991 0.271363 -1.427269
v -0.346990 0.276011 -1.194000
v -0.306912 0.276011 -1.194000
v -0.336578 0.275839 -0.960731
v -0.282841 0.275839 -0.960731
v -0.358653 0.228808 -2.360343
v -0.351516 0.228808 -2.127075
v -0.351516 0.262402 -2.127075
v -0.358653 0.262402 -2.360343
v -0.357701 0.233674 -1.893806
v -0.357701 0.267268 -1.893806
v -0.358653 0.226632 -1.660537
v -0.358653 0.260226 -1.660537
v -0.349192 0.224332 -1.427269
v -0.349192 0.257926 -1.427269
v -0.358653 0.228979 -1.194000
v -0.358653 0.262573 -1.194000
v -0.358653 0.228807 -0.960731
v -0.358653 0.262401 -0.960731
v -0.271177 0.228807 -0.960731
v -0.283507 0.228979 -1.194000
v -0.283507 0.262573 -1.194000
v -0.271177 0.262401 -0.960731
v -0.284345 0.224332 -1.427269
v -0.284345 0.257926 -1.427269
v -0.271177 0.226632 -1.660537
v -0.271177 0.260226 -1.660537
v -0.279805 0.233674 -1.893806
v -0.279805 0.267268 -1.893806
v -0.278314 0.228808 -2.127075
v -0.278314 0.262402 -2.127075
v -0.271177 0.228808 -2.360343
v -0.271177 0.262402 -2.360343
vt 0.978981 0.020273
vt 0.978981 0.179890
vt 0.945072 0.180130
vt 0.940238 0.020273
vt 0.978981 0.339489
vt 0.950492 0.339482
vt 0.978981 0.499291
vt 0.942141 0.499333
vt 0.978981 0.658895
vt 0.953072 0.659088
vt 0.978981 0.818562
vt 0.955447 0.818825
vt 0.978981 0.978326
vt 0.949545 0.978326
vt 0.854935 0.020273
vt 0.898586 0.020273
vt 0.891949 0.179864
vt 0.859241 0.179929
vt 0.899959 0.339473
vt 0.864053 0.339562
vt 0.895035 0.499261
vt 0.868522 0.499295
vt 0.902184 0.658946
vt 0.867253 0.658952
vt 0.905953 0.818620
vt 0.878047 0.818548
vt 0.901592 0.978326
vt 0.864940 0.978326
vt 0.929178 0.020273
vt 0.931857 0.179992
vt 0.908914 0.179906
vt 0.909493 0.020273
vt 0.930116 0.339579
vt 0.909952 0.339539
vt 0.932934 0.499253
vt 0.914140 0.499095
vt 0.937485 0.659047
vt 0.915029 0.658947
vt 0.936407 0.818793
vt 0.916844 0.818730
vt 0.938466 0.978326
vt 0.918523 0.978326
vt 0.834234 0.978326
vt 0.835866 0.818881
vt 0.857801 0.818707
vt 0.854050 0.978326
vt 0.831875 0.659056
vt 0.853958 0.659014
vt 0.832894 0.499239
vt 0.850466 0.499186
vt 0.832622 0.339528
vt 0.853214 0.339533
vt 0.828960 0.179984
vt 0.848105 0.179899
vt 0.824002 0.020273
vt 0.843834 0.020273
vt 0.820021 0.020273
vt 0.820021 0.179890
vt 0.820021 0.339489
vt 0.820021 0.499291
vt 0.820021 0.658895
vt 0.820021 0.818562
vt 0.820021 0.978326
vt 0.138998 0.761516
vt 0.138998 0.660519
vt 0.131577 0.653098
vt 0.131577 0.768936
vt 0.138493 0.511628
vt 0.136682 0.374227
vt 0.230259 0.371660
vt 0.246700 0.510765
vt 0.032187 0.510962
vt 0.032187 0.372544
vt 0.126271 0.375047
vt 0.119422 0.510976
vt 0.381686 0.510968
vt 0.376713 0.372135
vt 0.480820 0.372590
vt 0.471830 0.510814
vt 0.255519 0.510839
vt 0.270810 0.371928
vt 0.353683 0.372427
vt 0.356665 0.510746
vt 0.508161 0.372544
vt 0.508161 0.510962
vt 0.146108 0.649275
vt 0.243941 0.649275
vt 0.243941 0.234031
vt 0.146108 0.234031
vt 0.032187 0.649275
vt 0.126225 0.649275
vt 0.126225 0.234031
vt 0.032187 0.234031
vt 0.381684 0.649275
vt 0.485197 0.649275
vt 0.485197 0.234031
vt 0.381684 0.234031
vt 0.264584 0.649275
vt 0.364868 0.649275
vt 0.364868 0.234031
vt 0.264584 0.234031
vt 0.508161 0.649275
vt 0.508161 0.234031
vt 0.030581 0.768936
vt 0.030581 0.653098
vt 0.023160 0.761516
vt 0.023160 0.660519
vt 0.138998 0.761516
vt 0.131577 0.768936
vt 0.131577 0.653098
vt 0.138998 0.660519
vt 0.138493 0.511628
vt 0.246700 0.510765
vt 0.230259 0.371660
vt 0.136682 0.374227
vt 0.032187 0.510962
vt 0.119422 0.510976
vt 0.126271 0.375047
vt 0.032187 0.372544
vt 0.381686 0.510968
vt 0.471830 0.510814
vt 0.480820 0.372590
vt 0.376713 0.372135
vt 0.255519 0.510839
vt 0.356665 0.510746
vt 0.353683 0.372427
vt 0.270810 0.371928
vt 0.508161 0.510962
vt 0.508161 0.372544
vt 0.146108 0.649275
vt 0.243941 0.649275
vt 0.243941 0.234031
vt 0.146108 0.234031
vt 0.032187 0.649275
vt 0.126225 0.649275
vt 0.126225 0.234031
vt 0.032187 0.234031
vt 0.381684 0.649275
vt 0.485197 0.649275
vt 0.485197 0.234031
vt 0.381684 0.234031
vt 0.264584 0.649275
vt 0.364868 0.649275
vt 0.364868 0.234031
vt 0.264584 0.234031
vt 0.508161 0.649275
vt 0.508161 0.234031
vt 0.030581 0.768936
vt 0.030581 0.653098
vt 0.023160 0.761516
vt 0.023160 0.660519
vt 0.978981 0.020273
vt 0.978981 0.179890
vt 0.945072 0.180130
vt 0.940238 0.020273
vt 0.978981 0.339489
vt 0.950492 0.339482
vt 0.978981 0.499291
vt 0.942141 0.499333
vt 0.978981 0.658895
vt 0.953072 0.659088
vt 0.978981 0.818562
vt 0.955447 0.818825
vt 0.978981 0.978326
vt 0.949545 0.978326
vt 0.854935 0.020273
vt 0.898586 0.020273
vt 0.891949 0.179864
vt 0.859241 0.179929
vt 0.899959 0.339473
vt 0.864053 0.339562
vt 0.895035 0.499261
vt 0.868522 0.499295
vt 0.902184 0.658946
vt 0.867253 0.658952
vt 0.905953 0.818620
vt 0.878047 0.818548
vt 0.901592 0.978326
vt 0.864940 0.978326
vt 0.929178 0.020273
vt 0.931857 0.179992
vt 0.908914 0.179906
vt 0.909493 0.020273
vt 0.930116 0.339579
vt 0.909952 0.339539
vt 0.932934 0.499253
vt 0.914140 0.499095
vt 0.937485 0.659047
vt 0.915029 0.658947
vt 0.936407 0.818793
vt 0.916844 0.818730
vt 0.938466 0.978326
vt 0.918523 0.978326
vt 0.834234 0.978326
vt 0.835866 0.818881
vt 0.857801 0.818707
vt 0.854050 0.978326
vt 0.831875 0.659056
vt 0.853958 0.659014
vt 0.832894 0.499239
vt 0.850466 0.499186
vt 0.832622 0.339528
vt 0.853214 0.339533
vt 0.828960 0.179984
vt 0.848105 0.179899
vt 0.824002 0.020273
vt 0.843834 0.020273
vt 0.820021 0.020273
vt 0.820021 0.179890
vt 0.820021 0.339489
vt 0.820021 0.499291
vt 0.820021 0.658895
vt 0.820021 0.818562
vt 0.820021 0.978326
vn -0.4216 -0.9067 -0.0137
vn -0.2806 -0.9596 -0.0199
vn 0.4539 -0.8907 -0.0257
vn 0.4199 -0.9075 -0.0094
vn -0.4168 -0.9088 0.0184
vn 0.2359 -0.9717 0.0143
vn -0.3383 -0.9410 0.0120
vn 0.4091 -0.9125 0.0069
vn -0.4741 -0.8804 -0.0094
vn 0.3201 -0.9473 -0.0089
vn -0.2493 -0.9684 -0.0097
vn 0.2619 -0.9651 0.0021
vn -0.4365 -0.8985 0.0457
vn 0.4150 -0.9098 0.0016
vn -0.4199 0.9075 -0.0094
vn 0.4216 0.9067 -0.0134
vn 0.3101 0.9507 0.0056
vn -0.4534 0.8913 -0.0008
vn 0.4178 0.9085 0.0071
vn -0.4139 0.9103 -0.0095
vn 0.2418 0.9699 -0.0302
vn -0.2482 0.9686 -0.0137
vn 0.4795 0.8773 0.0214
vn -0.4810 0.8764 -0.0230
vn 0.4170 0.9088 0.0140
vn -0.2495 0.9681 0.0216
vn 0.2629 0.9647 -0.0124
vn -0.4264 0.9043 0.0229
vn 0.9380 -0.3457 -0.0256
vn 0.9470 -0.3207 -0.0194
vn 0.8956 0.4449 -0.0015
vn 0.9372 0.3475 -0.0287
vn 0.8616 -0.5071 0.0229
vn 0.9340 0.3569 0.0176
vn 0.9310 -0.3647 -0.0134
vn 0.8627 0.5046 -0.0331
vn 0.8942 -0.4477 -0.0065
vn 0.9567 0.2905 0.0161
vn 0.8724 -0.4884 0.0197
vn 0.9370 0.3489 0.0198
vn 0.9367 -0.3500 0.0003
vn 0.8754 0.4832 -0.0130
vn -0.9318 -0.3564 0.0682
vn -0.8673 -0.4977 0.0112
vn -0.8635 0.5031 0.0365
vn -0.9371 0.3455 0.0493
vn -0.9567 -0.2904 -0.0194
vn -0.9567 0.2888 -0.0368
vn -0.9041 -0.4274 -0.0038
vn -0.8672 0.4979 -0.0093
vn -0.9363 -0.3505 0.0231
vn -0.9319 0.3627 0.0014
vn -0.8791 -0.4758 -0.0270
vn -0.9510 0.3088 -0.0160
vn -0.9372 -0.3475 -0.0287
vn -0.9380 0.3457 -0.0256
vn -0.7281 0.6160 -0.3007
vn -0.7018 0.5794 0.4145
vn -0.2215 0.6242 0.7492
vn -0.2960 0.6170 -0.7291
vn 0.3853 -0.0481 -0.9216
vn 0.4011 -0.0796 -0.9126
vn -0.3342 -0.0520 -0.9411
vn -0.3963 -0.0656 -0.9158
vn 0.9672 -0.0572 0.2474
vn 0.9838 -0.0183 0.1785
vn 0.9091 -0.0776 -0.4092
vn 0.9312 -0.0475 -0.3614
vn -0.3689 -0.0582 0.9276
vn -0.5291 -0.0532 0.8469
vn 0.5798 -0.0193 0.8146
vn 0.4779 -0.0631 0.8761
vn -0.9158 -0.0651 -0.3964
vn -0.9226 -0.0533 -0.3820
vn -0.9733 -0.0471 0.2248
vn -0.9319 -0.0588 0.3578
vn 0.3123 0.6065 -0.7312
vn -0.4032 -0.0034 -0.9151
vn 0.2772 -0.0983 -0.9558
vn 0.7381 0.5799 0.3450
vn 0.7312 0.6064 -0.3123
vn 0.9063 -0.1066 -0.4090
vn 0.9248 -0.0496 0.3773
vn 0.3441 0.5841 0.7352
vn 0.3772 -0.0522 0.9247
vn -0.3921 -0.0284 0.9195
vn -0.9195 -0.0252 0.3923
vn -0.9151 -0.0046 -0.4032
vn 0.7281 0.6160 -0.3007
vn 0.2960 0.6170 -0.7291
vn 0.2215 0.6242 0.7492
vn 0.7018 0.5794 0.4145
vn -0.3853 -0.0481 -0.9216
vn 0.3963 -0.0656 -0.9158
vn 0.3342 -0.0520 -0.9411
vn -0.4011 -0.0796 -0.9126
vn -0.9672 -0.0572 0.2474
vn -0.9312 -0.0475 -0.3614
vn -0.9091 -0.0776 -0.4092
vn -0.9838 -0.0183 0.1785
vn 0.3689 -0.0582 0.9276
vn -0.4779 -0.0631 0.8761
vn -0.5798 -0.0193 0.8146
vn 0.5291 -0.0532 0.8469
vn 0.9158 -0.0651 -0.3964
vn 0.9319 -0.0588 0.3578
vn 0.9733 -0.0471 0.2248
vn 0.9226 -0.0533 -0.3820
vn -0.3123 0.6065 -0.7312
vn 0.4032 -0.0034 -0.9151
vn -0.2772 -0.0983 -0.9558
vn -0.7381 0.5799 0.3450
vn -0.7312 0.6064 -0.3123
vn -0.9063 -0.1066 -0.4090
vn -0.9248 -0.0496 0.3773
vn -0.3441 0.5841 0.7352
vn -0.3772 -0.0522 0.9247
vn 0.3921 -0.0284 0.9195
vn 0.9195 -0.0252 0.3923
vn 0.9151 -0.0046 -0.4032
vn 0.4216 -0.9067 0.0137
vn 0.2806 -0.9596 0.0199
vn -0.4539 -0.8907 0.0257
vn -0.4199 -0.9075 0.0094
vn 0.4168 -0.9088 -0.0184
vn -0.2359 -0.9717 -0.0143
vn 0.3383 -0.9410 -0.0120
vn -0.4091 -0.9125 -0.0069
vn 0.4741 -0.8804 0.0094
vn -0.3201 -0.9473 0.0089
vn 0.2493 -0.9684 0.0097
vn -0.2619 -0.9651 -0.0021
vn 0.4365 -0.8985 -0.0457
vn -0.4150 -0.9098 -0.0016
vn 0.4199 0.9075 0.0094
vn -0.4216 0.9067 0.0134
vn -0.3101 0.9507 -0.0056
vn 0.4534 0.8913 0.0008
vn -0.4178 0.9085 -0.0071
vn 0.4139 0.9103 0.0095
vn -0.2418 0.9699 0.0302
vn 0.2482 0.9686 0.0137
vn -0.4795 0.8773 -0.0214
vn 0.4810 0.8764 0.0230
vn -0.4170 0.9088 -0.0140
vn 0.2495 0.9681 -0.0216
vn -0.2629 0.9647 0.0124
vn 0.4264 0.9043 -0.0229
vn -0.9380 -0.3457 0.0256
vn -0.9470 -0.3207 0.0194
vn -0.8956 0.4449 0.0015
vn -0.9372 0.3475 0.0287
vn -0.8616 -0.5071 -0.0229
vn -0.9340 0.3569 -0.0176
vn -0.9310 -0.3647 0.0134
vn -0.8627 0.5046 0.0331
vn -0.8942 -0.4477 0.0065
vn -0.9567 0.2905 -0.0161
vn -0.8724 -0.4884 -0.0197
vn -0.9370 0.3489 -0.0198
vn -0.9368 -0.3500 -0.0003
vn -0.8754 0.4832 0.0130
vn 0.9318 -0.3564 -0.0682
vn 0.8673 -0.4977 -0.0112
vn 0.8635 0.5031 -0.0365
vn 0.9371 0.3455 -0.0493
vn 0.9567 -0.2904 0.0194
vn 0.9567 0.2888 0.0368
vn 0.9041 -0.4274 0.0038
vn 0.8672 0.4979 0.0093
vn 0.9363 -0.3505 -0.0231
vn 0.9319 0.3627 -0.0014
vn 0.8791 -0.4758 0.0270
vn 0.9510 0.3088 0.0160
vn 0.9372 -0.3475 0.0287
vn 0.9380 0.3457 0.0256
s 1
f 1/1/1 2/2/2 3/3/3
f 3/3/3 4/4/4 1/1/1
f 2/2/2 5/5/5 6/6/6
f 6/6/6 3/3/3 2/2/2
f 5/5/5 7/7/7 8/8/8
f 8/8/8 6/6/6 5/5/5
f 7/7/7 9/9/9 10/10/10
f 10/10/10 8/8/8 7/7/7
f 9/9/9 11/11/11 12/12/12
f 12/12/12 10/10/10 9/9/9
f 11/11/11 13/13/13 14/14/14
f 14/14/14 12/12/12 11/11/11
f 15/15/15 16/16/16 17/17/17
f 17/17/17 18/18/18 15/15/15
f 18/18/18 17/17/17 19/19/19
f 19/19/19 20/20/20 18/18/18
f 20/20/20 19/19/19 21/21/21
f 21/21/21 22/22/22 20/20/20
f 22/22/22 21/21/21 23/23/23
f 23/23/23 24/24/24 22/22/22
f 24/24/24 23/23/23 25/25/25
f 25/25/25 26/26/26 24/24/24
f 26/26/26 25/25/25 27/27/27
f 27/27/27 28/28/28 26/26/26
f 29/29/29 30/30/30 31/31/31
f 31/31/31 32/32/32 29/29/29
f 30/30/30 33/33/33 34/34/34
f 34/34/34 31/31/31 30/30/30
f 33/33/33 35/35/35 36/36/36
f 36/36/36 34/34/34 33/33/33
f 35/35/35 37/37/37 38/38/38
f 38/38/38 36/36/36 35/35/35
f 37/37/37 39/39/39 40/40/40
f 40/40/40 38/38/38 37/37/37
f 39/39/39 41/41/41 42/42/42
f 42/42/42 40/40/40 39/39/39
f 43/43/43 44/44/44 45/45/45
f 45/45/45 46/46/46 43/43/43
f 44/44/44 47/47/47 48/48/48
f 48/48/48 45/45/45 44/44/44
f 47/47/47 49/49/49 50/50/50
f 50/50/50 48/48/48 47/47/47
f 49/49/49 51/51/51 52/52/52
f 52/52/52 50/50/50 49/49/49
f 51/51/51 53/53/53 54/54/54
f 54/54/54 52/52/52 51/51/51
f 53/53/53 55/55/55 56/56/56
f 56/56/56 54/54/54 53/53/53
f 1/57/1 55/55/55 53/53/53
f 53/53/53 2/58/2 1/57/1
f 3/3/3 30/30/30 29/29/29
f 29/29/29 4/4/4 3/3/3
f 2/58/2 53/53/53 51/51/51
f 51/51/51 5/59/5 2/58/2
f 6/6/6 33/33/33 30/30/30
f 30/30/30 3/3/3 6/6/6
f 5/59/5 51/51/51 49/49/49
f 49/49/49 7/60/7 5/59/5
f 8/8/8 35/35/35 33/33/33
f 33/33/33 6/6/6 8/8/8
f 7/60/7 49/49/49 47/47/47
f 47/47/47 9/61/9 7/60/7
f 10/10/10 37/37/37 35/35/35
f 35/35/35 8/8/8 10/10/10
f 9/61/9 47/47/47 44/44/44
f 44/44/44 11/62/11 9/61/9
f 12/12/12 39/39/39 37/37/37
f 37/37/37 10/10/10 12/12/12
f 11/62/11 44/44/44 43/43/43
f 43/43/43 13/63/13 11/62/11
f 14/14/14 41/41/41 39/39/39
f 39/39/39 12/12/12 14/14/14
f 16/16/16 32/32/32 31/31/31
f 31/31/31 17/17/17 16/16/16
f 18/18/18 54/54/54 56/56/56
f 56/56/56 15/15/15 18/18/18
f 17/17/17 31/31/31 34/34/34
f 34/34/34 19/19/19 17/17/17
f 20/20/20 52/52/52 54/54/54
f 54/54/54 18/18/18 20/20/20
f 19/19/19 34/34/34 36/36/36
f 36/36/36 21/21/21 19/19/19
f 22/22/22 50/50/50 52/52/52
f 52/52/52 20/20/20 22/22/22
f 21/21/21 36/36/36 38/38/38
f 38/38/38 23/23/23 21/21/21
f 24/24/24 48/48/48 50/50/50
f 50/50/50 22/22/22 24/24/24
f 23/23/23 38/38/38 40/40/40
f 40/40/40 25/25/25 23/23/23
f 26/26/26 45/45/45 48/48/48
f 48/48/48 24/24/24 26/26/26
f 25/25/25 40/40/40 42/42/42
f 42/42/42 27/27/27 25/25/25
f 28/28/28 46/46/46 45/45/45
f 45/45/45 26/26/26 28/28/28
f 57/64/57 58/65/58 59/66/59
f 59/66/59 60/67/60 57/64/57
f 61/68/61 62/69/62 63/70/63
f 63/70/63 64/71/64 61/68/61
f 65/72/65 66/73/66 67/74/67
f 67/74/67 68/75/68 65/72/65
f 69/76/69 70/77/70 71/78/71
f 71/78/71 72/79/72 69/76/69
f 73/80/73 74/81/74 75/82/75
f 75/82/75 76/83/76 73/80/73
f 68/75/68 67/74/67 62/69/62
f 62/69/62 61/68/61 68/75/68
f 74/81/74 73/80/73 64/71/64
f 64/71/64 63/70/63 74/81/74
f 72/79/72 71/78/71 66/84/66
f 66/84/66 65/85/65 72/79/72
f 76/83/76 75/82/75 70/77/70
f 70/77/70 69/76/69 76/83/76
f 77/86/77 61/68/61 64/71/64
f 64/71/64 60/87/60 77/86/77
f 78/88/78 63/70/63 62/69/62
f 62/69/62 79/89/79 78/88/78
f 80/90/80 65/72/65 68/75/68
f 68/75/68 81/91/81 80/90/80
f 82/92/82 67/74/67 66/73/66
f 66/73/66 83/93/83 82/92/82
f 59/94/59 69/76/69 72/79/72
f 72/79/72 84/95/84 59/94/59
f 85/96/85 71/78/71 70/77/70
f 70/77/70 86/97/86 85/96/85
f 57/98/57 73/80/73 76/83/76
f 76/83/76 58/99/58 57/98/57
f 87/100/87 75/82/75 74/81/74
f 74/81/74 88/101/88 87/100/87
f 81/91/81 68/75/68 61/68/61
f 61/68/61 77/86/77 81/91/81
f 79/89/79 62/69/62 67/74/67
f 67/74/67 82/92/82 79/89/79
f 88/101/88 74/81/74 63/70/63
f 63/70/63 78/88/78 88/101/88
f 60/87/60 64/71/64 73/80/73
f 73/80/73 57/98/57 60/87/60
f 84/95/84 72/79/72 65/85/65
f 65/85/65 80/102/80 84/95/84
f 83/103/83 66/84/66 71/78/71
f 71/78/71 85/96/85 83/103/83
f 58/99/58 76/83/76 69/76/69
f 69/76/69 59/94/59 58/99/58
f 86/97/86 70/77/70 75/82/75
f 75/82/75 87/100/87 86/97/86
f 77/104/77 59/66/59 84/105/84
f 59/66/59 77/104/77 60/67/60
f 81/106/81 77/104/77 84/105/84
f 84/105/84 80/107/80 81/106/81
f 89/108/89 90/109/90 91/110/91
f 91/110/91 92/111/92 89/108/89
f 93/112/93 94/113/94 95/114/95
f 95/114/95 96/115/96 93/112/93
f 97/116/97 98/117/98 99/118/99
f 99/118/99 100/119/100 97/116/97
f 101/120/101 102/121/102 103/122/103
f 103/122/103 104/123/104 101/120/101
f 105/124/105 106/125/106 107/126/107
f 107/126/107 108/127/108 105/124/105
f 98/117/98 93/112/93 96/115/96
f 96/115/96 99/118/99 98/117/98
f 108/127/108 95/114/95 94/113/94
f 94/113/94 105/124/105 108/127/108
f 102/121/102 97/128/97 100/129/100
f 100/129/100 103/122/103 102/121/102
f 106/125/106 101/120/101 104/123/104
f 104/123/104 107/126/107 106/125/106
f 109/130/109 90/131/90 94/113/94
f 94/113/94 93/112/93 109/130/109
f 110/132/110 111/133/111 96/115/96
f 96/115/96 95/114/95 110/132/110
f 112/134/112 113/135/113 98/117/98
f 98/117/98 97/116/97 112/134/112
f 114/136/114 115/137/115 100/119/100
f 100/119/100 99/118/99 114/136/114
f 91/138/91 116/139/116 102/121/102
f 102/121/102 101/120/101 91/138/91
f 117/140/117 118/141/118 104/123/104
f 104/123/104 103/122/103 117/140/117
f 89/142/89 92/143/92 106/125/106
f 106/125/106 105/124/105 89/142/89
f 119/144/119 120/145/120 108/127/108
f 108/127/108 107/126/107 119/144/119
f 113/135/113 109/130/109 93/112/93
f 93/112/93 98/117/98 113/135/113
f 111/133/111 114/136/114 99/118/99
f 99/118/99 96/115/96 111/133/111
f 120/145/120 110/132/110 95/114/95
f 95/114/95 108/127/108 120/145/120
f 90/131/90 89/142/89 105/124/105
f 105/124/105 94/113/94 90/131/90
f 116/139/116 112/146/112 97/128/97
f 97/128/97 102/121/102 116/139/116
f 115/147/115 117/140/117 103/122/103
f 103/122/103 100/129/100 115/147/115
f 92/143/92 91/138/91 101/120/101
f 101/120/101 106/125/106 92/143/92
f 118/141/118 119/144/119 107/126/107
f 107/126/107 104/123/104 118/141/118
f 109/148/109 116/149/116 91/110/91
f 91/110/91 90/109/90 109/148/109
f 113/150/113 112/151/112 116/149/116
f 116/149/116 109/148/109 113/150/113
f 121/152/121 122/153/122 123/154/123
f 123/154/123 124/155/124 121/152/121
f 122/153/122 125/156/125 126/157/126
f 126/157/126 123/154/123 122/153/122
f 125/156/125 127/158/127 128/159/128
f 128/159/128 126/157/126 125/156/125
f 127/158/127 129/160/129 130/161/130
f 130/161/130 128/159/128 127/158/127
f 129/160/129 131/162/131 132/163/132
f 132/163/132 130/161/130 129/160/129
f 131/162/131 133/164/133 134/165/134
f 134/165/134 132/163/132 131/162/131
f 135/166/135 136/167/136 137/168/137
f 137/168/137 138/169/138 135/166/135
f 138/169/138 137/168/137 139/170/139
f 139/170/139 140/171/140 138/169/138
f 140/171/140 139/170/139 141/172/141
f 141/172/141 142/173/142 140/171/140
f 142/173/142 141/172/141 143/174/143
f 143/174/143 144/175/144 142/173/142
f 144/175/144 143/174/143 145/176/145
f 145/176/145 146/177/146 144/175/144
f 146/177/146 145/176/145 147/178/147
f 147/178/147 148/179/148 146/177/146
f 149/180/149 150/181/150 151/182/151
f 151/182/151 152/183/152 149/180/149
f 150/181/150 153/184/153 154/185/154
f 154/185/154 151/182/151 150/181/150
f 153/184/153 155/186/155 156/187/156
f 156/187/156 154/185/154 153/184/153
f 155/186/155 157/188/157 158/189/158
f 158/189/158 156/187/156 155/186/155
f 157/188/157 159/190/159 160/191/160
f 160/191/160 158/189/158 157/188/157
f 159/190/159 161/192/161 162/193/162
f 162/193/162 160/191/160 159/190/159
f 163/194/163 164/195/164 165/196/165
f 165/196/165 166/197/166 163/194/163
f 164/195/164 167/198/167 168/199/168
f 168/199/168 165/196/165 164/195/164
f 167/198/167 169/200/169 170/201/170
f 170/201/170 168/199/168 167/198/167
f 169/200/169 171/202/171 172/203/172
f 172/203/172 170/201/170 169/200/169
f 171/202/171 173/204/173 174/205/174
f 174/205/174 172/203/172 171/202/171
f 173/204/173 175/206/175 176/207/176
f 176/207/176 174/205/174 173/204/173
f 121/208/121 175/206/175 173/204/173
f 173/204/173 122/209/122 121/208/121
f 123/154/123 150/181/150 149/180/149
f 149/180/149 124/155/124 123/154/123
f 122/209/122 173/204/173 171/202/171
f 171/202/171 125/210/125 122/209/122
f 126/157/126 153/184/153 150/181/150
f 150/181/150 123/154/123 126/157/126
f 125/210/125 171/202/171 169/200/169
f 169/200/169 127/211/127 125/210/125
f 128/159/128 155/186/155 153/184/153
f 153/184/153 126/157/126 128/159/128
f 127/211/127 169/200/169 167/198/167
f 167/198/167 129/212/129 127/211/127
f 130/161/130 157/188/157 155/186/155
f 155/186/155 128/159/128 130/161/130
f 129/212/129 167/198/167 164/195/164
f 164/195/164 131/213/131 129/212/129
f 132/163/132 159/190/159 157/188/157
f 157/188/157 130/161/130 132/163/132
f 131/213/131 164/195/164 163/194/163
f 163/194/163 133/214/133 131/213/131
f 134/165/134 161/192/161 159/190/159
f 159/190/159 132/163/132 134/165/134
f 136/167/136 152/183/152 151/182/151
f 151/182/151 137/168/137 136/167/136
f 138/169/138 174/205/174 176/207/176
f 176/207/176 135/166/135 138/169/138
f 137/168/137 151/182/151 154/185/154
f 154/185/154 139/170/139 137/168/137
f 140/171/140 172/203/172 174/205/174
f 174/205/174 138/169/138 140/171/140
f 139/170/139 154/185/154 156/187/156
f 156/187/156 141/172/141 139/170/139
f 142/173/142 170/201/170 172/203/172
f 172/203/172 140/171/140 142/173/142
f 141/172/141 156/187/156 158/189/158
f 158/189/158 143/174/143 141/172/141
f 144/175/144 168/199/168 170/201/170
f 170/201/170 142/173/142 144/175/144
f 143/174/143 158/189/158 160/191/160
f 160/191/160 145/176/145 143/174/143
f 146/177/146 165/196/165 168/199/168
f 168/199/168 144/175/144 146/177/146
f 145/176/145 160/191/160 162/193/162
f 162/193/162 147/178/147 145/176/145
f 148/179/148 166/197/166 165/196/165
f 165/196/165 146/177/146 148/179/148
