# Blender v2.83.0 OBJ File: ''
# www.blender.org
o Pine_-_Wood_#4_Mesh.274
v 0.319382 0.000000 0.000000
v 0.295068 0.000000 -0.122222
v 0.225837 0.000000 -0.225836
v 0.122224 0.000000 -0.295069
v 0.000000 0.000000 -0.319380
v -0.122222 0.000000 -0.295069
v -0.225835 0.000000 -0.225836
v -0.295068 0.000000 -0.122222
v -0.319380 0.000000 -0.000000
v -0.295068 -0.000000 0.122222
v -0.225835 -0.000000 0.225836
v -0.122222 -0.000000 0.295070
v 0.000000 -0.000000 0.319380
v 0.122224 -0.000000 0.295069
v 0.225837 -0.000000 0.225836
v 0.295068 -0.000000 0.122222
v 0.243979 0.461717 -0.020574
v 0.225408 0.461717 -0.113941
v 0.172520 0.461717 -0.193094
v 0.093367 0.461717 -0.245982
v 0.000000 0.461717 -0.264554
v -0.093367 0.461717 -0.245982
v -0.172520 0.461717 -0.193094
v -0.225408 0.461717 -0.113941
v -0.243977 0.461717 -0.020574
v -0.225408 0.461717 0.072792
v -0.172520 0.461717 0.151945
v -0.093367 0.461717 0.204833
v 0.000000 0.461717 0.223405
v 0.093367 0.461717 0.204833
v 0.172520 0.461717 0.151945
v 0.225408 0.461717 0.072792
v 0.198755 1.726579 0.041854
v 0.185923 1.726579 -0.022658
v 0.149377 1.726579 -0.077349
v 0.094687 1.726579 -0.113892
v 0.030176 1.726579 -0.126724
v -0.034336 1.726579 -0.113892
v -0.089026 1.726579 -0.077349
v -0.125569 1.726579 -0.022658
v -0.138401 1.726579 0.041854
v -0.125569 1.726579 0.106366
v -0.089026 1.726579 0.161056
v -0.034336 1.726579 0.197599
v 0.030176 1.726579 0.210432
v 0.094687 1.726579 0.197599
v 0.149380 1.726579 0.161056
v 0.185923 1.726579 0.106366
v 0.061116 3.161677 -0.022315
v 0.054023 3.161677 -0.057972
v 0.033826 3.161677 -0.088201
v 0.003596 3.161677 -0.108399
v -0.032063 3.161677 -0.115491
v -0.067717 3.161677 -0.108399
v -0.097947 3.161677 -0.088201
v -0.118147 3.161677 -0.057972
v -0.125237 3.161677 -0.022315
v -0.118147 3.161677 0.013343
v -0.097947 3.161678 0.043571
v -0.067717 3.161677 0.063769
v -0.032063 3.161677 0.070862
v 0.003596 3.161677 0.063769
v 0.033826 3.161677 0.043571
v 0.054023 3.161678 0.013342
v 0.038015 4.068332 0.024445
v 0.035857 4.068332 0.013585
v 0.029705 4.068332 0.004378
v 0.020498 4.068332 -0.001774
v 0.009636 4.068332 -0.003934
v -0.001223 4.068332 -0.001774
v -0.010430 4.068332 0.004378
v -0.016582 4.068332 0.013585
v -0.018743 4.068332 0.024445
v -0.016582 4.068332 0.035305
v -0.010430 4.068332 0.044512
v -0.001223 4.068332 0.050663
v 0.009636 4.068332 0.052824
v 0.020498 4.068332 0.050663
v 0.029705 4.068332 0.044512
v 0.035857 4.068332 0.035305
vt 0.129301 0.125967
vt 0.149055 0.015004
vt 0.157037 0.125967
vt 0.120798 0.015004
vt 0.183636 0.125967
vt 0.177418 0.015004
vt 0.205848 0.015004
vt 0.209532 0.125967
vt 0.234321 0.015004
vt 0.235259 0.125967
vt 0.260964 0.125967
vt 0.262810 0.015004
vt 0.286799 0.125967
vt 0.291286 0.015004
vt 0.319702 0.015004
vt 0.312840 0.125967
vt 0.339611 0.125967
vt 0.348001 0.015004
vt 0.368101 0.125967
vt 0.376099 0.015004
vt 0.397896 0.125967
vt 0.403893 0.015004
vt 0.431249 0.015004
vt 0.427996 0.125967
vt 0.458010 0.015004
vt 0.458010 0.125967
vt 0.010629 0.125967
vt 0.010629 0.015004
vt 0.041145 0.125967
vt 0.037472 0.015004
vt 0.071900 0.125967
vt 0.064892 0.015004
vt 0.092711 0.015004
vt 0.101214 0.125967
vt 0.144009 0.429330
vt 0.115847 0.429330
vt 0.172941 0.429330
vt 0.202379 0.429330
vt 0.231925 0.429330
vt 0.261562 0.429330
vt 0.291251 0.429330
vt 0.320761 0.429330
vt 0.349793 0.429330
vt 0.377677 0.429330
vt 0.404635 0.429330
vt 0.431453 0.429330
vt 0.458010 0.429330
vt 0.010629 0.429330
vt 0.035892 0.429330
vt 0.061234 0.429330
vt 0.087912 0.429330
vt 0.124356 0.769168
vt 0.151357 0.769168
vt 0.178478 0.769168
vt 0.205346 0.769168
vt 0.232169 0.769168
vt 0.258948 0.769168
vt 0.285680 0.769168
vt 0.313874 0.769168
vt 0.343411 0.769168
vt 0.372303 0.769168
vt 0.400763 0.769168
vt 0.429330 0.769168
vt 0.458010 0.769168
vt 0.039850 0.769168
vt 0.010629 0.769168
vt 0.069065 0.769168
vt 0.097355 0.769168
vt 0.149055 0.981556
vt 0.120798 0.981556
vt 0.177418 0.981556
vt 0.205848 0.981556
vt 0.234321 0.981556
vt 0.262810 0.981556
vt 0.291286 0.981556
vt 0.319702 0.981556
vt 0.348001 0.981556
vt 0.376099 0.981556
vt 0.403893 0.981556
vt 0.431249 0.981556
vt 0.458010 0.981556
vt 0.010629 0.981556
vt 0.037472 0.981556
vt 0.064892 0.981556
vt 0.092711 0.981556
vn 0.9936 -0.1020 -0.0495
vn 0.9244 -0.0605 -0.3766
vn 0.9764 0.1034 -0.1898
vn 0.9985 -0.0381 -0.0399
vn 0.8293 0.1067 -0.5485
vn 0.7085 -0.0796 -0.7012
vn 0.3404 -0.0806 -0.9368
vn 0.5551 0.1109 -0.8244
vn -0.0000 -0.0883 -0.9961
vn 0.2016 0.1154 -0.9726
vn -0.1839 0.1197 -0.9756
vn -0.3404 -0.0806 -0.9368
vn -0.5408 0.1230 -0.8321
vn -0.7085 -0.0796 -0.7012
vn -0.9244 -0.0605 -0.3766
vn -0.8174 0.1250 -0.5623
vn -0.9704 0.1251 -0.2066
vn -0.9985 -0.0381 -0.0399
vn -0.9763 0.1234 0.1779
vn -0.9384 -0.0210 0.3449
vn -0.8362 0.1200 0.5352
vn -0.7035 -0.0162 0.7105
vn -0.3366 0.0010 0.9416
vn -0.5717 0.1156 0.8123
vn 0.0000 0.0014 1.0000
vn -0.2194 0.1108 0.9693
vn 0.1729 0.1064 0.9792
vn 0.3367 0.0010 0.9416
vn 0.5387 0.1031 0.8362
vn 0.7035 -0.0162 0.7105
vn 0.9384 -0.0210 0.3449
vn 0.8212 0.1014 0.5616
vn 0.9192 -0.1373 -0.3692
vn 0.9899 -0.1418 -0.0045
vn 0.7084 -0.1367 -0.6924
vn 0.5668 0.0632 -0.8214
vn 0.2074 0.0597 -0.9764
vn -0.1820 0.0557 -0.9817
vn -0.6863 -0.1534 -0.7110
vn -0.8275 0.0490 -0.5594
vn -0.9796 0.0474 -0.1955
vn -0.9794 0.0472 0.1964
vn -0.8306 0.0485 0.5548
vn -0.5592 0.0511 0.8274
vn -0.2066 0.0545 0.9769
vn 0.1759 0.0582 0.9827
vn 0.5356 0.0618 0.8422
vn 0.8181 0.0647 0.5714
vn 0.9900 -0.1407 -0.0059
vn 0.9783 0.0634 -0.1971
vn 0.8295 0.0647 -0.5548
vn 0.5595 0.0655 -0.8262
vn 0.2096 0.0660 -0.9756
vn -0.1714 0.0659 -0.9830
vn -0.5280 0.0655 -0.8467
vn -0.8133 0.0647 -0.5782
vn -0.9884 -0.1520 -0.0059
vn -0.9158 -0.1461 0.3741
vn -0.7031 -0.1419 0.6968
vn -0.5649 0.0604 0.8229
vn -0.0057 -0.1434 0.9897
vn 0.3719 -0.1463 0.9167
vn 0.6932 -0.1452 0.7059
vn 0.8269 0.0608 0.5591
vn 0.8790 0.2456 -0.4087
vn 0.9737 0.2236 -0.0437
vn 0.6515 0.2708 -0.7087
vn 0.3271 0.2955 -0.8976
vn -0.0436 0.3158 -0.9478
vn -0.4045 0.3290 -0.8533
vn -0.6661 0.3373 -0.6653
vn -0.8547 0.3261 -0.4039
vn -0.9496 0.3106 -0.0428
vn -0.8994 0.2886 0.3284
vn -0.7102 0.2633 0.6529
vn -0.4100 0.2387 0.8803
vn -0.0447 0.2185 0.9748
vn 0.3293 0.2060 0.9215
vn 0.6903 0.2135 0.6913
vn 0.9206 0.2088 0.3301
s 1
f 17/1/1 2/2/2 18/3/3
f 2/2/2 17/1/1 1/4/4
f 18/3/3 2/2/2 19/5/5
f 2/2/2 3/6/6 19/5/5
f 19/5/5 4/7/7 20/8/8
f 4/7/7 19/5/5 3/6/6
f 20/8/8 5/9/9 21/10/10
f 5/9/9 20/8/8 4/7/7
f 21/10/10 5/9/9 22/11/11
f 5/9/9 6/12/12 22/11/11
f 22/11/11 6/12/12 23/13/13
f 6/12/12 7/14/14 23/13/13
f 23/13/13 8/15/15 24/16/16
f 8/15/15 23/13/13 7/14/14
f 24/16/16 8/15/15 25/17/17
f 25/17/17 8/15/15 9/18/18
f 25/17/17 9/18/18 26/19/19
f 9/18/18 10/20/20 26/19/19
f 26/19/19 10/20/20 27/21/21
f 10/20/20 11/22/22 27/21/21
f 27/21/21 12/23/23 28/24/24
f 12/23/23 27/21/21 11/22/22
f 28/24/24 13/25/25 29/26/26
f 13/25/25 28/24/24 12/23/23
f 29/27/26 13/28/25 30/29/27
f 13/28/25 14/30/28 30/29/27
f 30/29/27 14/30/28 31/31/29
f 14/30/28 15/32/30 31/31/29
f 31/31/29 16/33/31 32/34/32
f 16/33/31 31/31/29 15/32/30
f 32/34/32 1/4/4 17/1/1
f 1/4/4 32/34/32 16/33/31
f 18/3/3 34/35/33 17/1/1
f 33/36/34 17/1/1 34/35/33
f 19/5/5 35/37/35 18/3/3
f 34/35/33 18/3/3 35/37/35
f 35/37/35 20/8/8 36/38/36
f 20/8/8 35/37/35 19/5/5
f 36/38/36 20/8/8 37/39/37
f 20/8/8 21/10/10 37/39/37
f 37/39/37 21/10/10 38/40/38
f 21/10/10 22/11/11 38/40/38
f 23/13/13 39/41/39 22/11/11
f 38/40/38 22/11/11 39/41/39
f 39/41/39 24/16/16 40/42/40
f 24/16/16 39/41/39 23/13/13
f 40/42/40 25/17/17 41/43/41
f 25/17/17 40/42/40 24/16/16
f 41/43/41 26/19/19 42/44/42
f 26/19/19 41/43/41 25/17/17
f 42/44/42 27/21/21 43/45/43
f 27/21/21 42/44/42 26/19/19
f 43/45/43 28/24/24 44/46/44
f 28/24/24 43/45/43 27/21/21
f 44/46/44 29/26/26 45/47/45
f 29/26/26 44/46/44 28/24/24
f 45/48/45 30/29/27 46/49/46
f 30/29/27 45/48/45 29/27/26
f 46/49/46 30/29/27 47/50/47
f 30/29/27 31/31/29 47/50/47
f 47/50/47 31/31/29 48/51/48
f 31/31/29 32/34/32 48/51/48
f 48/51/48 32/34/32 33/36/34
f 32/34/32 17/1/1 33/36/34
f 49/52/49 34/35/33 50/53/50
f 34/35/33 49/52/49 33/36/34
f 50/53/50 35/37/35 51/54/51
f 35/37/35 50/53/50 34/35/33
f 51/54/51 36/38/36 52/55/52
f 36/38/36 51/54/51 35/37/35
f 52/55/52 37/39/37 53/56/53
f 37/39/37 52/55/52 36/38/36
f 53/56/53 38/40/38 54/57/54
f 38/40/38 53/56/53 37/39/37
f 54/57/54 39/41/39 55/58/55
f 39/41/39 54/57/54 38/40/38
f 55/58/55 39/41/39 56/59/56
f 39/41/39 40/42/40 56/59/56
f 41/43/41 57/60/57 40/42/40
f 56/59/56 40/42/40 57/60/57
f 42/44/42 58/61/58 41/43/41
f 57/60/57 41/43/41 58/61/58
f 43/45/43 59/62/59 42/44/42
f 58/61/58 42/44/42 59/62/59
f 59/62/59 43/45/43 60/63/60
f 43/45/43 44/46/44 60/63/60
f 45/47/45 61/64/61 44/46/44
f 60/63/60 44/46/44 61/64/61
f 46/49/46 62/65/62 45/48/45
f 61/66/61 45/48/45 62/65/62
f 47/50/47 63/67/63 46/49/46
f 62/65/62 46/49/46 63/67/63
f 63/67/63 48/51/48 64/68/64
f 48/51/48 63/67/63 47/50/47
f 64/68/64 33/36/34 49/52/49
f 33/36/34 64/68/64 48/51/48
f 50/53/50 66/69/65 49/52/49
f 65/70/66 49/52/49 66/69/65
f 51/54/51 67/71/67 50/53/50
f 66/69/65 50/53/50 67/71/67
f 67/71/67 51/54/51 68/72/68
f 51/54/51 52/55/52 68/72/68
f 53/56/53 69/73/69 52/55/52
f 68/72/68 52/55/52 69/73/69
f 54/57/54 70/74/70 53/56/53
f 69/73/69 53/56/53 70/74/70
f 55/58/55 71/75/71 54/57/54
f 70/74/70 54/57/54 71/75/71
f 71/75/71 56/59/56 72/76/72
f 56/59/56 71/75/71 55/58/55
f 72/76/72 57/60/57 73/77/73
f 57/60/57 72/76/72 56/59/56
f 73/77/73 58/61/58 74/78/74
f 58/61/58 73/77/73 57/60/57
f 74/78/74 59/62/59 75/79/75
f 59/62/59 74/78/74 58/61/58
f 75/79/75 60/63/60 76/80/76
f 60/63/60 75/79/75 59/62/59
f 76/80/76 61/64/61 77/81/77
f 61/64/61 76/80/76 60/63/60
f 77/82/77 62/65/62 78/83/78
f 62/65/62 77/82/77 61/66/61
f 78/83/78 63/67/63 79/84/79
f 63/67/63 78/83/78 62/65/62
f 79/84/79 63/67/63 80/85/80
f 63/67/63 64/68/64 80/85/80
f 49/52/49 65/70/66 64/68/64
f 80/85/80 64/68/64 65/70/66
