# Blender v2.83.0 OBJ File: ''
# www.blender.org
o Pine_-_Wood_#2_Mesh.011
v 0.000000 0.000000 -0.336149
v -0.122222 0.000000 -0.311837
v -0.225835 0.000000 -0.242605
v -0.295068 0.000000 -0.138989
v -0.319380 0.000000 -0.016768
v -0.295068 -0.000000 0.105454
v -0.225835 -0.000000 0.209067
v -0.122222 -0.000000 0.278301
v 0.000000 -0.000000 0.302612
v 0.122222 -0.000000 0.278301
v 0.225835 -0.000000 0.209067
v 0.295068 -0.000000 0.105454
v 0.319380 -0.000000 -0.016768
v 0.295068 0.000000 -0.138989
v 0.225835 0.000000 -0.242605
v 0.122222 0.000000 -0.311837
v -0.230037 5.115887 -0.274235
v -0.238018 5.115886 -0.272648
v -0.244785 5.115885 -0.268126
v -0.249304 5.115886 -0.261361
v -0.250894 5.115886 -0.253380
v -0.249304 5.115886 -0.245399
v -0.244783 5.115886 -0.238633
v -0.238018 5.115886 -0.234112
v -0.230037 5.115886 -0.232525
v -0.222056 5.115885 -0.234112
v -0.215288 5.115886 -0.238633
v -0.210769 5.115886 -0.245399
v -0.209182 5.115887 -0.253380
v -0.210769 5.115885 -0.261361
v -0.215291 5.115885 -0.268126
v -0.222056 5.115886 -0.272648
v -0.118850 0.730842 -0.418430
v -0.318508 1.461683 -0.396592
v -0.279307 2.192523 -0.321486
v -0.167854 2.923365 -0.200565
v -0.083225 3.654205 -0.064595
v -0.103018 4.385046 -0.075235
v -0.078716 4.385045 -0.080069
v -0.042603 3.654204 -0.072676
v -0.110913 2.923363 -0.211892
v -0.206045 2.192524 -0.336060
v -0.228928 1.461682 -0.414412
v -0.012947 0.730841 -0.439493
v -0.208628 0.730841 -0.358441
v -0.394453 1.461682 -0.345848
v -0.341414 2.192524 -0.279987
v -0.216128 2.923364 -0.168311
v -0.117661 3.654204 -0.041586
v -0.123618 4.385046 -0.061470
v -0.268618 0.730842 -0.268662
v -0.445195 1.461683 -0.269905
v -0.382915 2.192524 -0.217879
v -0.248381 2.923366 -0.120039
v -0.140669 3.654206 -0.007149
v -0.137385 4.385046 -0.040868
v -0.289683 0.730842 -0.162760
v -0.463013 1.461683 -0.180322
v -0.397485 2.192524 -0.144617
v -0.259707 2.923364 -0.063097
v -0.148752 3.654206 0.033472
v -0.142219 4.385045 -0.016566
v -0.268618 0.730840 -0.056859
v -0.445195 1.461682 -0.090742
v -0.382915 2.192523 -0.071356
v -0.248381 2.923364 -0.006156
v -0.140671 3.654204 0.074094
v -0.137385 4.385045 0.007734
v -0.208628 0.730841 0.032920
v -0.394451 1.461682 -0.014800
v -0.341414 2.192523 -0.009248
v -0.216128 2.923363 0.042117
v -0.117661 3.654204 0.108530
v -0.123618 4.385045 0.028335
v -0.118850 0.730841 0.092909
v -0.318508 1.461683 0.035946
v -0.279307 2.192523 0.032251
v -0.167854 2.923365 0.074371
v -0.083225 3.654205 0.131540
v -0.103018 4.385046 0.042102
v -0.012949 0.730841 0.113975
v -0.228928 1.461682 0.053763
v -0.206045 2.192524 0.046824
v -0.110913 2.923363 0.085698
v -0.042603 3.654205 0.139620
v -0.078716 4.385046 0.046936
v 0.092954 0.730841 0.092909
v -0.139346 1.461682 0.035945
v -0.132783 2.192523 0.032251
v -0.053970 2.923365 0.074371
v -0.001982 3.654205 0.131542
v -0.054417 4.385046 0.042101
v 0.182732 0.730841 0.032920
v -0.063403 1.461681 -0.014799
v -0.070676 2.192523 -0.009248
v -0.005698 2.923365 0.042117
v 0.032456 3.654204 0.108530
v -0.033813 4.385046 0.028336
v 0.242720 0.730842 -0.056859
v -0.012659 1.461682 -0.090742
v -0.029177 2.192524 -0.071356
v 0.026555 2.923366 -0.006156
v 0.055464 3.654204 0.074094
v -0.020049 4.385045 0.007734
v 0.263784 0.730842 -0.162760
v 0.005161 1.461683 -0.180324
v -0.014604 2.192524 -0.144618
v 0.037881 2.923363 -0.063098
v 0.063545 3.654206 0.033472
v -0.015215 4.385046 -0.016566
v 0.242720 0.730842 -0.268662
v -0.012659 1.461682 -0.269906
v -0.029175 2.192524 -0.217879
v 0.026558 2.923363 -0.120039
v 0.055464 3.654205 -0.007149
v -0.020049 4.385046 -0.040868
v 0.182732 0.730842 -0.358441
v -0.063403 1.461682 -0.345850
v -0.070676 2.192523 -0.279987
v -0.005698 2.923365 -0.168311
v 0.032456 3.654204 -0.041585
v -0.033813 4.385046 -0.061470
v 0.092954 0.730841 -0.418430
v -0.139346 1.461683 -0.396592
v -0.132783 2.192524 -0.321486
v -0.053970 2.923365 -0.200565
v -0.001982 3.654205 -0.064595
v -0.054417 4.385045 -0.075235
vt 0.149055 0.567319
vt 0.120798 0.567319
vt 0.120798 0.429240
vt 0.149055 0.429240
vt 0.177418 0.567319
vt 0.177418 0.429240
vt 0.205848 0.567319
vt 0.205848 0.429240
vt 0.234321 0.567319
vt 0.234321 0.429240
vt 0.262810 0.567319
vt 0.262810 0.429240
vt 0.291286 0.567319
vt 0.291286 0.429240
vt 0.319702 0.567319
vt 0.319702 0.429240
vt 0.348001 0.567319
vt 0.348001 0.429240
vt 0.376099 0.567319
vt 0.376099 0.429240
vt 0.403893 0.567319
vt 0.403893 0.429240
vt 0.431249 0.567319
vt 0.431249 0.429240
vt 0.458010 0.429240
vt 0.458010 0.567319
vt 0.037472 0.567319
vt 0.010629 0.567319
vt 0.010629 0.429240
vt 0.037472 0.429240
vt 0.064892 0.429240
vt 0.064892 0.567319
vt 0.092711 0.567319
vt 0.092711 0.429240
vt 0.149055 0.981556
vt 0.120798 0.981556
vt 0.120798 0.843477
vt 0.149055 0.843477
vt 0.120798 0.705398
vt 0.149055 0.705398
vt 0.120798 0.015004
vt 0.149055 0.015004
vt 0.149055 0.153083
vt 0.120798 0.153082
vt 0.149055 0.291162
vt 0.120798 0.291161
vt 0.177418 0.981556
vt 0.177418 0.843477
vt 0.177418 0.705398
vt 0.177418 0.015004
vt 0.177418 0.153083
vt 0.177418 0.291162
vt 0.205848 0.981556
vt 0.205848 0.843477
vt 0.205848 0.705398
vt 0.205848 0.015004
vt 0.205848 0.153083
vt 0.205848 0.291162
vt 0.234321 0.981556
vt 0.234321 0.843477
vt 0.234321 0.705398
vt 0.234321 0.015004
vt 0.234321 0.153083
vt 0.234321 0.291162
vt 0.262810 0.981556
vt 0.262810 0.843477
vt 0.262810 0.705398
vt 0.262810 0.015004
vt 0.262810 0.153083
vt 0.262810 0.291162
vt 0.291286 0.981556
vt 0.291286 0.843477
vt 0.291286 0.705398
vt 0.291286 0.015004
vt 0.291286 0.153083
vt 0.291286 0.291162
vt 0.319702 0.981556
vt 0.319702 0.843477
vt 0.319702 0.705398
vt 0.319702 0.015004
vt 0.319702 0.153083
vt 0.319702 0.291162
vt 0.348001 0.981556
vt 0.348001 0.843477
vt 0.348001 0.705398
vt 0.348001 0.015004
vt 0.348001 0.153083
vt 0.348001 0.291162
vt 0.376099 0.981556
vt 0.376099 0.843477
vt 0.376099 0.705398
vt 0.376099 0.015004
vt 0.376099 0.153083
vt 0.376099 0.291162
vt 0.403893 0.981556
vt 0.403893 0.843477
vt 0.403893 0.705398
vt 0.403893 0.015004
vt 0.403893 0.153083
vt 0.403893 0.291162
vt 0.431249 0.981556
vt 0.431249 0.843477
vt 0.431249 0.705398
vt 0.431249 0.015004
vt 0.431249 0.153083
vt 0.431249 0.291162
vt 0.458010 0.981556
vt 0.458010 0.843477
vt 0.458010 0.705398
vt 0.458010 0.015004
vt 0.458010 0.153083
vt 0.458010 0.291162
vt 0.037472 0.981556
vt 0.010629 0.981556
vt 0.010629 0.843477
vt 0.037472 0.843477
vt 0.010629 0.705398
vt 0.037472 0.705398
vt 0.010629 0.015004
vt 0.037472 0.015004
vt 0.037472 0.153083
vt 0.010629 0.153083
vt 0.037472 0.291162
vt 0.010629 0.291162
vt 0.064892 0.981556
vt 0.064892 0.843477
vt 0.064892 0.705398
vt 0.064892 0.015004
vt 0.064892 0.153083
vt 0.064892 0.291162
vt 0.092711 0.981556
vt 0.092711 0.843477
vt 0.092711 0.705398
vt 0.092711 0.015004
vt 0.092711 0.153083
vt 0.092711 0.291162
vn -0.1787 0.2124 -0.9607
vn -0.0230 -0.0254 -0.9994
vn 0.0053 0.3407 -0.9402
vn -0.3449 0.3647 -0.8649
vn -0.5328 0.2223 -0.8165
vn -0.6549 0.3742 -0.6566
vn -0.8075 0.2082 -0.5519
vn -0.8635 0.3663 -0.3466
vn -0.9641 0.1715 -0.2027
vn -0.9395 0.3420 0.0198
vn -0.9762 0.1168 0.1828
vn -0.8695 0.3052 0.3883
vn -0.8364 0.0520 0.5457
vn -0.6623 0.2616 0.7021
vn -0.5635 -0.0122 0.8260
vn -0.3492 0.2187 0.9112
vn -0.2024 -0.0652 0.9771
vn 0.0205 0.1831 0.9829
vn 0.1876 -0.0988 0.9773
vn 0.3886 0.1599 0.9074
vn 0.5466 -0.1083 0.8304
vn 0.6997 0.1519 0.6981
vn 0.8238 -0.0925 0.5593
vn 0.9078 0.1625 0.3866
vn 0.9830 0.1826 0.0189
vn 0.9768 -0.0539 0.2070
vn 0.9833 0.0018 -0.1820
vn 0.9107 0.2204 -0.3494
vn 0.7023 0.2595 -0.6629
vn 0.8390 0.0660 -0.5401
vn 0.5642 0.1286 -0.8155
vn 0.3891 0.3020 -0.8703
vn -0.4361 -0.1155 -0.8925
vn -0.0836 -0.0583 -0.9948
vn -0.0386 0.0924 -0.9950
vn -0.3932 0.0657 -0.9171
vn -0.0094 0.3025 -0.9531
vn -0.3641 0.3157 -0.8762
vn 0.0499 -0.3360 -0.9405
vn -0.3269 -0.3259 -0.8871
vn -0.3258 -0.3035 -0.8954
vn 0.0208 -0.2758 -0.9610
vn -0.3063 -0.2036 -0.9299
vn 0.0408 -0.1406 -0.9892
vn -0.7301 -0.1177 -0.6731
vn -0.6956 0.0626 -0.7157
vn -0.6702 0.3169 -0.6711
vn -0.6575 -0.2887 -0.6960
vn -0.6503 -0.3217 -0.6882
vn -0.5048 -0.0279 -0.8628
vn -0.9299 -0.0651 -0.3619
vn -0.9062 0.0853 -0.4143
vn -0.8788 0.3059 -0.3662
vn -0.8914 -0.2287 -0.3913
vn -0.8660 -0.3325 -0.3735
vn -0.7813 -0.0575 -0.6215
vn -0.9993 0.0380 0.0066
vn -0.9893 0.1371 -0.0494
vn -0.9580 0.2868 -0.0024
vn -0.9879 -0.1539 -0.0180
vn -0.9464 -0.3229 -0.0028
vn -0.9573 -0.0712 -0.2802
vn -0.9106 0.1747 0.3746
vn -0.9224 0.2131 0.3222
vn -0.8899 0.2725 0.3657
vn -0.9077 -0.0924 0.4094
vn -0.8850 -0.2834 0.3694
vn -0.9908 -0.0677 0.1173
vn -0.6732 0.3175 0.6678
vn -0.7130 0.3107 0.6286
vn -0.6853 0.2564 0.6817
vn -0.6920 -0.0185 0.7217
vn -0.8599 0.0288 0.5096
vn -0.6776 -0.2785 0.6807
vn -0.3409 0.4380 0.8318
vn -0.4016 0.4024 0.8227
vn -0.3729 0.2545 0.8923
vn -0.4144 0.0375 0.9093
vn -0.3855 -0.1345 0.9129
vn -0.5914 -0.0084 0.8063
vn 0.0174 0.5197 0.8542
vn -0.0403 0.4694 0.8821
vn -0.0030 0.2602 0.9655
vn -0.0458 0.0564 0.9974
vn -0.0157 -0.0408 0.9990
vn -0.2323 0.0414 0.9718
vn 0.3500 0.5602 0.7508
vn 0.3180 0.5027 0.8038
vn 0.3675 0.2661 0.8911
vn 0.3285 0.0453 0.9434
vn 0.3576 0.0190 0.9337
vn 0.3882 -0.1255 0.9130
vn 0.6246 0.5614 0.5428
vn 0.6242 0.4983 0.6017
vn 0.6820 0.2673 0.6807
vn 0.6569 0.0057 0.7539
vn 0.6769 0.0382 0.7351
vn 0.5019 0.1413 0.8533
vn 0.8147 0.5231 0.2502
vn 0.8360 0.4575 0.3030
vn 0.8924 0.2631 0.3667
vn 0.8900 -0.0570 0.4523
vn 0.8999 0.0181 0.4356
vn 0.7858 0.1745 0.5933
vn 0.8901 0.4444 -0.1014
vn 0.9200 0.3883 -0.0537
vn 0.9663 0.2574 -0.0031
vn 0.9878 -0.1330 0.0816
vn 0.9965 -0.0349 0.0754
vn 0.9982 -0.0502 0.0339
vn 0.8226 0.3273 -0.4649
vn 0.8564 0.3030 -0.4182
vn 0.8920 0.2564 -0.3723
vn 0.9310 -0.2096 -0.2988
vn 0.9485 -0.1022 -0.2997
vn 0.9406 -0.0412 -0.3370
vn 0.6084 0.1860 -0.7715
vn 0.6480 0.2168 -0.7302
vn 0.6802 0.2655 -0.6833
vn 0.7299 -0.2745 -0.6260
vn 0.7551 -0.1727 -0.6325
vn 0.7440 -0.0412 -0.6669
vn 0.2846 0.0481 -0.9574
vn 0.3304 0.1439 -0.9328
vn 0.3648 0.2834 -0.8869
vn 0.4198 -0.3183 -0.8500
vn 0.4411 -0.2305 -0.8674
vn 0.5419 0.1178 -0.8321
s 1
f 36/1/1 41/2/2 42/3/3
f 42/3/3 35/4/4 36/1/1
f 48/5/5 36/1/1 35/4/4
f 35/4/4 47/6/6 48/5/5
f 54/7/7 48/5/5 47/6/6
f 47/6/6 53/8/8 54/7/7
f 60/9/9 54/7/7 53/8/8
f 53/8/8 59/10/10 60/9/9
f 66/11/11 60/9/9 59/10/10
f 59/10/10 65/12/12 66/11/11
f 72/13/13 66/11/11 65/12/12
f 65/12/12 71/14/14 72/13/13
f 78/15/15 72/13/13 71/14/14
f 71/14/14 77/16/16 78/15/15
f 84/17/17 78/15/15 77/16/16
f 77/16/16 83/18/18 84/17/17
f 90/19/19 84/17/17 83/18/18
f 83/18/18 89/20/20 90/19/19
f 96/21/21 90/19/19 89/20/20
f 89/20/20 95/22/22 96/21/21
f 102/23/23 96/21/21 95/22/22
f 95/22/22 101/24/24 102/23/23
f 107/25/25 108/26/26 102/23/23
f 102/23/23 101/24/24 107/25/25
f 114/27/27 108/28/26 107/29/25
f 107/29/25 113/30/28 114/27/27
f 119/31/29 120/32/30 114/27/27
f 114/27/27 113/30/28 119/31/29
f 126/33/31 120/32/30 119/31/29
f 119/31/29 125/34/32 126/33/31
f 41/2/2 126/33/31 125/34/32
f 125/34/32 42/3/3 41/2/2
f 18/35/33 17/36/34 39/37/35
f 39/37/35 38/38/36 18/35/33
f 38/38/36 39/37/35 40/39/37
f 40/39/37 37/40/38 38/38/36
f 37/40/38 40/39/37 41/2/2
f 41/2/2 36/1/1 37/40/38
f 1/41/39 2/42/40 33/43/41
f 33/43/41 44/44/42 1/41/39
f 44/44/42 33/43/41 34/45/43
f 34/45/43 43/46/44 44/44/42
f 43/46/44 34/45/43 35/4/4
f 35/4/4 42/3/3 43/46/44
f 19/47/45 18/35/33 38/38/36
f 38/38/36 50/48/46 19/47/45
f 50/48/46 38/38/36 37/40/38
f 37/40/38 49/49/47 50/48/46
f 49/49/47 37/40/38 36/1/1
f 36/1/1 48/5/5 49/49/47
f 2/42/40 3/50/48 45/51/49
f 45/51/49 33/43/41 2/42/40
f 34/45/43 33/43/41 45/51/49
f 45/51/49 46/52/50 34/45/43
f 34/45/43 46/52/50 47/6/6
f 47/6/6 35/4/4 34/45/43
f 20/53/51 19/47/45 50/48/46
f 50/48/46 56/54/52 20/53/51
f 56/54/52 50/48/46 49/49/47
f 49/49/47 55/55/53 56/54/52
f 55/55/53 49/49/47 48/5/5
f 48/5/5 54/7/7 55/55/53
f 3/50/48 4/56/54 51/57/55
f 51/57/55 45/51/49 3/50/48
f 46/52/50 45/51/49 51/57/55
f 51/57/55 52/58/56 46/52/50
f 46/52/50 52/58/56 53/8/8
f 53/8/8 47/6/6 46/52/50
f 21/59/57 20/53/51 56/54/52
f 56/54/52 62/60/58 21/59/57
f 62/60/58 56/54/52 55/55/53
f 55/55/53 61/61/59 62/60/58
f 61/61/59 55/55/53 54/7/7
f 54/7/7 60/9/9 61/61/59
f 4/56/54 5/62/60 57/63/61
f 57/63/61 51/57/55 4/56/54
f 52/58/56 51/57/55 57/63/61
f 57/63/61 58/64/62 52/58/56
f 52/58/56 58/64/62 59/10/10
f 59/10/10 53/8/8 52/58/56
f 22/65/63 21/59/57 62/60/58
f 62/60/58 68/66/64 22/65/63
f 68/66/64 62/60/58 61/61/59
f 61/61/59 67/67/65 68/66/64
f 67/67/65 61/61/59 60/9/9
f 60/9/9 66/11/11 67/67/65
f 5/62/60 6/68/66 63/69/67
f 63/69/67 57/63/61 5/62/60
f 58/64/62 57/63/61 63/69/67
f 63/69/67 64/70/68 58/64/62
f 58/64/62 64/70/68 65/12/12
f 65/12/12 59/10/10 58/64/62
f 23/71/69 22/65/63 68/66/64
f 68/66/64 74/72/70 23/71/69
f 73/73/71 74/72/70 68/66/64
f 68/66/64 67/67/65 73/73/71
f 73/73/71 67/67/65 66/11/11
f 66/11/11 72/13/13 73/73/71
f 63/69/67 6/68/66 7/74/72
f 7/74/72 69/75/73 63/69/67
f 63/69/67 69/75/73 70/76/74
f 70/76/74 64/70/68 63/69/67
f 64/70/68 70/76/74 71/14/14
f 71/14/14 65/12/12 64/70/68
f 24/77/75 23/71/69 74/72/70
f 74/72/70 80/78/76 24/77/75
f 80/78/76 74/72/70 73/73/71
f 73/73/71 79/79/77 80/78/76
f 79/79/77 73/73/71 72/13/13
f 72/13/13 78/15/15 79/79/77
f 7/74/72 8/80/78 75/81/79
f 75/81/79 69/75/73 7/74/72
f 70/76/74 69/75/73 75/81/79
f 75/81/79 76/82/80 70/76/74
f 70/76/74 76/82/80 77/16/16
f 77/16/16 71/14/14 70/76/74
f 25/83/81 24/77/75 80/78/76
f 80/78/76 86/84/82 25/83/81
f 86/84/82 80/78/76 79/79/77
f 79/79/77 85/85/83 86/84/82
f 85/85/83 79/79/77 78/15/15
f 78/15/15 84/17/17 85/85/83
f 8/80/78 9/86/84 81/87/85
f 81/87/85 75/81/79 8/80/78
f 76/82/80 75/81/79 81/87/85
f 81/87/85 82/88/86 76/82/80
f 76/82/80 82/88/86 83/18/18
f 83/18/18 77/16/16 76/82/80
f 26/89/87 25/83/81 86/84/82
f 86/84/82 92/90/88 26/89/87
f 92/90/88 86/84/82 85/85/83
f 85/85/83 91/91/89 92/90/88
f 91/91/89 85/85/83 84/17/17
f 84/17/17 90/19/19 91/91/89
f 9/86/84 10/92/90 87/93/91
f 87/93/91 81/87/85 9/86/84
f 81/87/85 87/93/91 88/94/92
f 88/94/92 82/88/86 81/87/85
f 82/88/86 88/94/92 89/20/20
f 89/20/20 83/18/18 82/88/86
f 27/95/93 26/89/87 92/90/88
f 92/90/88 98/96/94 27/95/93
f 98/96/94 92/90/88 91/91/89
f 91/91/89 97/97/95 98/96/94
f 97/97/95 91/91/89 90/19/19
f 90/19/19 96/21/21 97/97/95
f 10/92/90 11/98/96 93/99/97
f 93/99/97 87/93/91 10/92/90
f 88/94/92 87/93/91 93/99/97
f 93/99/97 94/100/98 88/94/92
f 88/94/92 94/100/98 95/22/22
f 95/22/22 89/20/20 88/94/92
f 28/101/99 27/95/93 98/96/94
f 98/96/94 104/102/100 28/101/99
f 104/102/100 98/96/94 97/97/95
f 97/97/95 103/103/101 104/102/100
f 103/103/101 97/97/95 96/21/21
f 96/21/21 102/23/23 103/103/101
f 11/98/96 12/104/102 99/105/103
f 99/105/103 93/99/97 11/98/96
f 94/100/98 93/99/97 99/105/103
f 99/105/103 100/106/104 94/100/98
f 94/100/98 100/106/104 101/24/24
f 101/24/24 95/22/22 94/100/98
f 29/107/105 28/101/99 104/102/100
f 104/102/100 110/108/106 29/107/105
f 110/108/106 104/102/100 103/103/101
f 103/103/101 109/109/107 110/108/106
f 109/109/107 103/103/101 102/23/23
f 102/23/23 108/26/26 109/109/107
f 12/104/102 13/110/108 105/111/109
f 105/111/109 99/105/103 12/104/102
f 99/105/103 105/111/109 106/112/110
f 106/112/110 100/106/104 99/105/103
f 107/25/25 101/24/24 100/106/104
f 100/106/104 106/112/110 107/25/25
f 30/113/111 29/114/105 110/115/106
f 110/115/106 116/116/112 30/113/111
f 116/116/112 110/115/106 109/117/107
f 109/117/107 115/118/113 116/116/112
f 115/118/113 109/117/107 108/28/26
f 108/28/26 114/27/27 115/118/113
f 13/119/108 14/120/114 111/121/115
f 111/121/115 105/122/109 13/119/108
f 105/122/109 111/121/115 112/123/116
f 112/123/116 106/124/110 105/122/109
f 106/124/110 112/123/116 113/30/28
f 113/30/28 107/29/25 106/124/110
f 31/125/117 30/113/111 116/116/112
f 116/116/112 122/126/118 31/125/117
f 122/126/118 116/116/112 115/118/113
f 115/118/113 121/127/119 122/126/118
f 121/127/119 115/118/113 114/27/27
f 114/27/27 120/32/30 121/127/119
f 14/120/114 15/128/120 117/129/121
f 117/129/121 111/121/115 14/120/114
f 111/121/115 117/129/121 118/130/122
f 118/130/122 112/123/116 111/121/115
f 119/31/29 113/30/28 112/123/116
f 112/123/116 118/130/122 119/31/29
f 32/131/123 31/125/117 122/126/118
f 122/126/118 128/132/124 32/131/123
f 128/132/124 122/126/118 121/127/119
f 121/127/119 127/133/125 128/132/124
f 127/133/125 121/127/119 120/32/30
f 120/32/30 126/33/31 127/133/125
f 15/128/120 16/134/126 123/135/127
f 123/135/127 117/129/121 15/128/120
f 118/130/122 117/129/121 123/135/127
f 123/135/127 124/136/128 118/130/122
f 118/130/122 124/136/128 125/34/32
f 125/34/32 119/31/29 118/130/122
f 17/36/34 32/131/123 128/132/124
f 128/132/124 39/37/35 17/36/34
f 39/37/35 128/132/124 127/133/125
f 127/133/125 40/39/37 39/37/35
f 40/39/37 127/133/125 126/33/31
f 126/33/31 41/2/2 40/39/37
f 16/134/126 1/41/39 44/44/42
f 44/44/42 123/135/127 16/134/126
f 123/135/127 44/44/42 43/46/44
f 43/46/44 124/136/128 123/135/127
f 124/136/128 43/46/44 42/3/3
f 42/3/3 125/34/32 124/136/128
