# Blender v2.83.0 OBJ File: ''
# www.blender.org
o Pine_-_Wood_#3_Mesh.997
v 0.319382 0.000000 0.000000
v 0.295068 0.000000 -0.122222
v 0.225837 0.000000 -0.225836
v 0.122222 0.000000 -0.295070
v 0.000000 0.000000 -0.319381
v -0.122222 0.000000 -0.295070
v -0.225835 0.000000 -0.225836
v -0.295068 0.000000 -0.122222
v -0.319380 0.000000 0.000000
v -0.295068 -0.000000 0.122222
v -0.225835 -0.000000 0.225836
v -0.122222 -0.000000 0.295069
v 0.000000 -0.000000 0.319380
v 0.122222 -0.000000 0.295069
v 0.225837 -0.000000 0.225836
v 0.295068 -0.000000 0.122222
v 0.236765 0.588268 -0.018313
v 0.218755 0.588269 -0.108870
v 0.167458 0.588269 -0.185642
v 0.090686 0.588269 -0.236938
v 0.000127 0.588269 -0.254951
v -0.090430 0.588269 -0.236938
v -0.167200 0.588269 -0.185642
v -0.218499 0.588269 -0.108870
v -0.236509 0.588269 -0.018313
v -0.218499 0.588268 0.072245
v -0.167200 0.588268 0.149015
v -0.090430 0.588268 0.200312
v 0.000129 0.588268 0.218326
v 0.090686 0.588268 0.200312
v 0.167458 0.588268 0.149015
v 0.218755 0.588268 0.072245
v 0.176870 2.199816 0.043288
v 0.165481 2.199816 -0.013966
v 0.133049 2.199816 -0.062503
v 0.084512 2.199816 -0.094935
v 0.027258 2.199816 -0.106323
v -0.029993 2.199816 -0.094934
v -0.078530 2.199816 -0.062503
v -0.110962 2.199816 -0.013966
v -0.122351 2.199816 0.043288
v -0.110962 2.199816 0.100542
v -0.078530 2.199816 0.149079
v -0.029993 2.199816 0.181511
v 0.027261 2.199816 0.192898
v 0.084512 2.199816 0.181511
v 0.133049 2.199816 0.149079
v 0.165481 2.199816 0.100542
v 0.049402 4.028259 -0.006467
v 0.043770 4.028259 -0.034778
v 0.027732 4.028259 -0.058779
v 0.003730 4.028259 -0.074815
v -0.024580 4.028259 -0.080447
v -0.052891 4.028259 -0.074815
v -0.076890 4.028259 -0.058779
v -0.092927 4.028259 -0.034778
v -0.098557 4.028259 -0.006467
v -0.092927 4.028259 0.021843
v -0.076890 4.028260 0.045843
v -0.052891 4.028259 0.061880
v -0.024580 4.028259 0.067512
v 0.003730 4.028259 0.061880
v 0.027732 4.028259 0.045843
v 0.043770 4.028260 0.021843
v 0.029067 5.115886 0.032440
v 0.027478 5.115886 0.024460
v 0.022957 5.115886 0.017693
v 0.016191 5.115886 0.013172
v 0.008210 5.115886 0.011584
v 0.000229 5.115886 0.013172
v -0.006536 5.115886 0.017693
v -0.011057 5.115886 0.024460
v -0.012644 5.115886 0.032440
v -0.011057 5.115886 0.040420
v -0.006536 5.115886 0.047187
v 0.000229 5.115886 0.051708
v 0.008210 5.115886 0.053296
v 0.016191 5.115886 0.051708
v 0.022957 5.115886 0.047187
v 0.027478 5.115886 0.040422
v 0.025300 4.605839 0.012987
v 0.022751 4.605839 0.000171
v 0.015496 4.605838 -0.010692
v 0.004631 4.605839 -0.017951
v -0.008184 4.605839 -0.020499
v -0.020999 4.605839 -0.017951
v -0.031863 4.605839 -0.010692
v -0.039121 4.605839 0.000173
v -0.041670 4.605839 0.012987
v -0.039121 4.605839 0.025801
v -0.031863 4.605839 0.036665
v -0.020999 4.605839 0.043923
v -0.008184 4.605839 0.046472
v 0.004631 4.605838 0.043923
v 0.015496 4.605839 0.036665
v 0.022751 4.605839 0.025801
vt 0.120798 0.015004
vt 0.149055 0.015004
vt 0.157037 0.125967
vt 0.129301 0.125967
vt 0.177418 0.015004
vt 0.183636 0.125967
vt 0.205848 0.015004
vt 0.209532 0.125967
vt 0.234321 0.015004
vt 0.235259 0.125967
vt 0.262810 0.015004
vt 0.260964 0.125967
vt 0.291286 0.015004
vt 0.286799 0.125967
vt 0.319702 0.015004
vt 0.312840 0.125967
vt 0.348001 0.015004
vt 0.339611 0.125967
vt 0.376099 0.015004
vt 0.368101 0.125967
vt 0.403893 0.015004
vt 0.397896 0.125967
vt 0.431249 0.015004
vt 0.427996 0.125967
vt 0.458010 0.015004
vt 0.458010 0.125967
vt 0.010629 0.015004
vt 0.037472 0.015004
vt 0.041145 0.125967
vt 0.010629 0.125967
vt 0.064892 0.015004
vt 0.071900 0.125967
vt 0.092711 0.015004
vt 0.101214 0.125967
vt 0.144009 0.429330
vt 0.115847 0.429330
vt 0.172941 0.429330
vt 0.202379 0.429330
vt 0.231925 0.429330
vt 0.261562 0.429330
vt 0.291251 0.429330
vt 0.320761 0.429330
vt 0.349793 0.429330
vt 0.377677 0.429330
vt 0.404635 0.429330
vt 0.431453 0.429330
vt 0.458010 0.429330
vt 0.035892 0.429330
vt 0.010629 0.429330
vt 0.061234 0.429330
vt 0.087912 0.429330
vt 0.151357 0.769168
vt 0.124356 0.769168
vt 0.178478 0.769168
vt 0.205346 0.769168
vt 0.232169 0.769168
vt 0.258948 0.769168
vt 0.285680 0.769168
vt 0.313874 0.769168
vt 0.343411 0.769168
vt 0.372303 0.769168
vt 0.400763 0.769168
vt 0.429330 0.769168
vt 0.458010 0.769168
vt 0.039850 0.769168
vt 0.010629 0.769168
vt 0.069065 0.769168
vt 0.097355 0.769168
vt 0.150206 0.875362
vt 0.122577 0.875362
vt 0.177948 0.875362
vt 0.205597 0.875362
vt 0.233245 0.875362
vt 0.260879 0.875362
vt 0.288483 0.875362
vt 0.316788 0.875362
vt 0.345706 0.875362
vt 0.374201 0.875362
vt 0.402328 0.875362
vt 0.430290 0.875362
vt 0.458010 0.875362
vt 0.038661 0.875362
vt 0.010629 0.875362
vt 0.066978 0.875362
vt 0.095033 0.875362
vt 0.149055 0.981556
vt 0.120798 0.981556
vt 0.177418 0.981556
vt 0.205848 0.981556
vt 0.234321 0.981556
vt 0.262810 0.981556
vt 0.291286 0.981556
vt 0.319702 0.981556
vt 0.348001 0.981556
vt 0.376099 0.981556
vt 0.403893 0.981556
vt 0.431249 0.981556
vt 0.458010 0.981556
vt 0.037472 0.981556
vt 0.010629 0.981556
vt 0.064892 0.981556
vt 0.092711 0.981556
vn 0.9966 -0.0633 0.0533
vn 0.9402 -0.0751 -0.3321
vn 0.9338 -0.1085 -0.3409
vn 0.9931 -0.1176 0.0022
vn 0.7403 -0.0851 -0.6669
vn 0.7320 -0.1049 -0.6732
vn 0.4270 -0.0914 -0.8996
vn 0.4181 -0.1017 -0.9027
vn 0.0484 -0.0933 -0.9945
vn 0.0401 -0.0989 -0.9943
vn -0.3377 -0.0904 -0.9369
vn -0.3441 -0.0964 -0.9340
vn -0.6722 -0.0831 -0.7357
vn -0.6757 -0.0946 -0.7310
vn -0.9037 -0.0727 -0.4219
vn -0.9041 -0.0942 -0.4167
vn -0.9972 -0.0605 -0.0436
vn -0.9946 -0.0956 -0.0394
vn -0.9387 -0.0486 0.3412
vn -0.9339 -0.0992 0.3434
vn -0.7377 -0.0387 0.6740
vn -0.7318 -0.1042 0.6735
vn -0.4251 -0.0324 0.9046
vn -0.4193 -0.1096 0.9012
vn -0.0484 -0.0306 0.9984
vn -0.0436 -0.1141 0.9925
vn 0.3355 -0.0334 0.9414
vn 0.3387 -0.1167 0.9336
vn 0.6689 -0.0407 0.7422
vn 0.6701 -0.1170 0.7330
vn 0.9011 -0.0511 0.4306
vn 0.9000 -0.1153 0.4205
vn 0.9164 -0.1493 -0.3713
vn 0.9883 -0.1528 -0.0039
vn 0.7051 -0.1478 -0.6935
vn 0.3870 -0.1485 -0.9100
vn 0.0107 -0.1510 -0.9885
vn -0.3668 -0.1542 -0.9174
vn -0.6886 -0.1572 -0.7079
vn -0.9064 -0.1593 -0.3913
vn -0.9869 -0.1608 -0.0151
vn -0.9173 -0.1622 0.3637
vn -0.7078 -0.1635 0.6873
vn -0.3900 -0.1648 0.9060
vn -0.0124 -0.1654 0.9862
vn 0.3674 -0.1644 0.9154
vn 0.6911 -0.1617 0.7045
vn 0.9091 -0.1575 0.3856
vn 0.9171 -0.1483 -0.3701
vn 0.9889 -0.1489 0.0018
vn 0.7059 -0.1492 -0.6925
vn 0.3871 -0.1514 -0.9095
vn 0.0092 -0.1546 -0.9879
vn -0.3702 -0.1573 -0.9155
vn -0.6931 -0.1587 -0.7032
vn -0.9101 -0.1581 -0.3831
vn -0.9878 -0.1558 -0.0045
vn -0.9144 -0.1530 0.3747
vn -0.7015 -0.1506 0.6966
vn -0.3817 -0.1494 0.9121
vn -0.0040 -0.1494 0.9888
vn 0.3738 -0.1498 0.9153
vn 0.6949 -0.1499 0.7034
vn 0.9107 -0.1493 0.3850
vn 0.9817 0.0340 -0.1874
vn 0.9825 -0.1852 -0.0170
vn 0.8346 0.0525 -0.5483
vn 0.5604 0.0704 -0.8252
vn 0.2018 0.0849 -0.9757
vn -0.1867 0.0938 -0.9779
vn -0.5465 0.0958 -0.8319
vn -0.8236 0.0907 -0.5598
vn -0.9761 0.0792 -0.2025
vn -0.9805 0.0629 0.1864
vn -0.8353 0.0444 0.5479
vn -0.5623 0.0264 0.8265
vn -0.2032 0.0118 0.9791
vn 0.1871 0.0028 0.9823
vn 0.5490 0.0006 0.8358
vn 0.8273 0.0059 0.5618
vn 0.8854 0.2082 -0.4156
vn 0.9803 0.1920 -0.0466
vn 0.6565 0.2270 -0.7194
vn 0.3289 0.2451 -0.9120
vn -0.0470 0.2601 -0.9644
vn -0.4139 0.2695 -0.8695
vn -0.7167 0.2722 -0.6421
vn -0.9100 0.2678 -0.3165
vn -0.9647 0.2566 0.0584
vn -0.8720 0.2407 0.4263
vn -0.6452 0.2221 0.7310
vn -0.3187 0.2036 0.9257
vn 0.0580 0.1884 0.9804
vn 0.4270 0.1785 0.8865
vn 0.7320 0.1757 0.6583
vn 0.9263 0.1803 0.3307
s 1
f 1/1/1 2/2/2 18/3/3
f 18/3/3 17/4/4 1/1/1
f 2/2/2 3/5/5 19/6/6
f 19/6/6 18/3/3 2/2/2
f 3/5/5 4/7/7 20/8/8
f 20/8/8 19/6/6 3/5/5
f 4/7/7 5/9/9 21/10/10
f 21/10/10 20/8/8 4/7/7
f 5/9/9 6/11/11 22/12/12
f 22/12/12 21/10/10 5/9/9
f 6/11/11 7/13/13 23/14/14
f 23/14/14 22/12/12 6/11/11
f 7/13/13 8/15/15 24/16/16
f 24/16/16 23/14/14 7/13/13
f 8/15/15 9/17/17 25/18/18
f 25/18/18 24/16/16 8/15/15
f 9/17/17 10/19/19 26/20/20
f 26/20/20 25/18/18 9/17/17
f 10/19/19 11/21/21 27/22/22
f 27/22/22 26/20/20 10/19/19
f 11/21/21 12/23/23 28/24/24
f 28/24/24 27/22/22 11/21/21
f 12/23/23 13/25/25 29/26/26
f 29/26/26 28/24/24 12/23/23
f 13/27/25 14/28/27 30/29/28
f 30/29/28 29/30/26 13/27/25
f 14/28/27 15/31/29 31/32/30
f 31/32/30 30/29/28 14/28/27
f 15/31/29 16/33/31 32/34/32
f 32/34/32 31/32/30 15/31/29
f 16/33/31 1/1/1 17/4/4
f 17/4/4 32/34/32 16/33/31
f 17/4/4 18/3/3 34/35/33
f 34/35/33 33/36/34 17/4/4
f 18/3/3 19/6/6 35/37/35
f 35/37/35 34/35/33 18/3/3
f 19/6/6 20/8/8 36/38/36
f 36/38/36 35/37/35 19/6/6
f 20/8/8 21/10/10 37/39/37
f 37/39/37 36/38/36 20/8/8
f 21/10/10 22/12/12 38/40/38
f 38/40/38 37/39/37 21/10/10
f 22/12/12 23/14/14 39/41/39
f 39/41/39 38/40/38 22/12/12
f 23/14/14 24/16/16 40/42/40
f 40/42/40 39/41/39 23/14/14
f 24/16/16 25/18/18 41/43/41
f 41/43/41 40/42/40 24/16/16
f 25/18/18 26/20/20 42/44/42
f 42/44/42 41/43/41 25/18/18
f 26/20/20 27/22/22 43/45/43
f 43/45/43 42/44/42 26/20/20
f 27/22/22 28/24/24 44/46/44
f 44/46/44 43/45/43 27/22/22
f 28/24/24 29/26/26 45/47/45
f 45/47/45 44/46/44 28/24/24
f 29/30/26 30/29/28 46/48/46
f 46/48/46 45/49/45 29/30/26
f 30/29/28 31/32/30 47/50/47
f 47/50/47 46/48/46 30/29/28
f 31/32/30 32/34/32 48/51/48
f 48/51/48 47/50/47 31/32/30
f 32/34/32 17/4/4 33/36/34
f 33/36/34 48/51/48 32/34/32
f 33/36/34 34/35/33 50/52/49
f 50/52/49 49/53/50 33/36/34
f 34/35/33 35/37/35 51/54/51
f 51/54/51 50/52/49 34/35/33
f 35/37/35 36/38/36 52/55/52
f 52/55/52 51/54/51 35/37/35
f 36/38/36 37/39/37 53/56/53
f 53/56/53 52/55/52 36/38/36
f 37/39/37 38/40/38 54/57/54
f 54/57/54 53/56/53 37/39/37
f 38/40/38 39/41/39 55/58/55
f 55/58/55 54/57/54 38/40/38
f 39/41/39 40/42/40 56/59/56
f 56/59/56 55/58/55 39/41/39
f 40/42/40 41/43/41 57/60/57
f 57/60/57 56/59/56 40/42/40
f 41/43/41 42/44/42 58/61/58
f 58/61/58 57/60/57 41/43/41
f 42/44/42 43/45/43 59/62/59
f 59/62/59 58/61/58 42/44/42
f 43/45/43 44/46/44 60/63/60
f 60/63/60 59/62/59 43/45/43
f 44/46/44 45/47/45 61/64/61
f 61/64/61 60/63/60 44/46/44
f 45/49/45 46/48/46 62/65/62
f 62/65/62 61/66/61 45/49/45
f 46/48/46 47/50/47 63/67/63
f 63/67/63 62/65/62 46/48/46
f 47/50/47 48/51/48 64/68/64
f 64/68/64 63/67/63 47/50/47
f 48/51/48 33/36/34 49/53/50
f 49/53/50 64/68/64 48/51/48
f 50/52/49 82/69/65 81/70/66
f 81/70/66 49/53/50 50/52/49
f 51/54/51 83/71/67 82/69/65
f 82/69/65 50/52/49 51/54/51
f 52/55/52 84/72/68 83/71/67
f 83/71/67 51/54/51 52/55/52
f 53/56/53 85/73/69 84/72/68
f 84/72/68 52/55/52 53/56/53
f 54/57/54 86/74/70 85/73/69
f 85/73/69 53/56/53 54/57/54
f 55/58/55 87/75/71 86/74/70
f 86/74/70 54/57/54 55/58/55
f 56/59/56 88/76/72 87/75/71
f 87/75/71 55/58/55 56/59/56
f 57/60/57 89/77/73 88/76/72
f 88/76/72 56/59/56 57/60/57
f 58/61/58 90/78/74 89/77/73
f 89/77/73 57/60/57 58/61/58
f 59/62/59 91/79/75 90/78/74
f 90/78/74 58/61/58 59/62/59
f 60/63/60 92/80/76 91/79/75
f 91/79/75 59/62/59 60/63/60
f 61/64/61 93/81/77 92/80/76
f 92/80/76 60/63/60 61/64/61
f 62/65/62 94/82/78 93/83/77
f 93/83/77 61/66/61 62/65/62
f 63/67/63 95/84/79 94/82/78
f 94/82/78 62/65/62 63/67/63
f 64/68/64 96/85/80 95/84/79
f 95/84/79 63/67/63 64/68/64
f 49/53/50 81/70/66 96/85/80
f 96/85/80 64/68/64 49/53/50
f 66/86/81 65/87/82 81/70/66
f 81/70/66 82/69/65 66/86/81
f 67/88/83 66/86/81 82/69/65
f 82/69/65 83/71/67 67/88/83
f 68/89/84 67/88/83 83/71/67
f 83/71/67 84/72/68 68/89/84
f 69/90/85 68/89/84 84/72/68
f 84/72/68 85/73/69 69/90/85
f 70/91/86 69/90/85 85/73/69
f 85/73/69 86/74/70 70/91/86
f 71/92/87 70/91/86 86/74/70
f 86/74/70 87/75/71 71/92/87
f 72/93/88 71/92/87 87/75/71
f 87/75/71 88/76/72 72/93/88
f 73/94/89 72/93/88 88/76/72
f 88/76/72 89/77/73 73/94/89
f 74/95/90 73/94/89 89/77/73
f 89/77/73 90/78/74 74/95/90
f 75/96/91 74/95/90 90/78/74
f 90/78/74 91/79/75 75/96/91
f 76/97/92 75/96/91 91/79/75
f 91/79/75 92/80/76 76/97/92
f 77/98/93 76/97/92 92/80/76
f 92/80/76 93/81/77 77/98/93
f 78/99/94 77/100/93 93/83/77
f 93/83/77 94/82/78 78/99/94
f 79/101/95 78/99/94 94/82/78
f 94/82/78 95/84/79 79/101/95
f 80/102/96 79/101/95 95/84/79
f 95/84/79 96/85/80 80/102/96
f 65/87/82 80/102/96 96/85/80
f 96/85/80 81/70/66 65/87/82
