# Blender v2.83.0 OBJ File: ''
# www.blender.org
o Rock_Flat_#1_Mesh.044
v -0.336948 -0.000000 0.693399
v 0.336948 -0.000000 0.693399
v -0.445723 0.000045 -0.237335
v 0.545669 0.000000 -0.228658
v -0.337671 0.379591 0.679987
v 0.229126 0.429822 0.694318
v -0.253183 0.940049 0.296176
v 0.189581 0.995627 0.326174
v -0.219885 0.964294 -0.132696
v 0.016998 1.123545 -0.057575
v 0.544726 0.844920 -0.270756
v 0.336948 0.000000 -0.487303
v -0.379917 -0.000022 -0.498114
v -0.384436 0.372935 -0.473696
v 0.337056 0.489796 -0.466090
v -0.440193 0.732658 -0.252744
v 0.570411 -0.000000 0.193928
v 0.516499 0.624648 0.194388
v -0.546084 -0.000017 0.160374
v -0.511257 0.697762 0.030470
v -0.545534 0.477247 0.163741
vt 0.250635 0.773877
vt 0.222860 0.807219
vt 0.195958 0.740789
vt 0.262093 0.711064
vt 0.236726 0.600066
vt 0.259238 0.522560
vt 0.434612 0.598069
vt 0.343664 0.674390
vt 0.362207 0.826746
vt 0.430794 0.896177
vt 0.219423 0.982872
vt 0.221173 0.912118
vt 0.108743 0.789553
vt 0.197446 0.842079
vt 0.103344 0.937940
vt 0.023281 0.801059
vt 0.111779 0.653648
vt 0.355196 0.757179
vt 0.144799 0.805638
vt 0.496130 0.760206
vt 0.070862 0.606614
vn -0.3638 0.8402 -0.4022
vn -0.4555 0.7861 -0.4178
vn -0.1474 0.9889 0.0161
vn 0.0553 0.9978 -0.0363
vn 0.4633 0.0540 0.8846
vn 0.5855 0.1452 0.7976
vn 0.9410 -0.1858 0.2828
vn 0.8087 0.2249 0.5435
vn 0.2731 -0.0391 -0.9612
vn 0.2926 -0.4118 -0.8630
vn -0.6017 0.0299 -0.7982
vn -0.5737 0.1968 -0.7951
vn -0.9705 0.2407 -0.0122
vn -0.7216 0.3625 -0.5899
vn -0.9694 0.0015 -0.2456
vn -0.9977 -0.0020 0.0672
vn -0.2485 0.3213 0.9138
vn 0.4397 0.8137 -0.3802
vn -0.6538 0.6832 0.3251
vn 0.8746 -0.3596 -0.3251
vn -0.5559 0.0015 0.8312
s 1
f 10/1/1 9/2/2 7/3/3
f 7/3/3 8/4/4 10/1/1
f 6/5/5 2/6/6 17/7/7
f 17/7/7 18/8/8 6/5/5
f 15/9/9 12/10/10 13/11/11
f 13/11/11 14/12/12 15/9/9
f 21/13/13 16/14/14 3/15/15
f 3/15/15 19/16/16 21/13/13
f 6/5/5 8/4/4 7/3/3
f 7/3/3 5/17/17 6/5/5
f 11/18/18 10/1/1 8/4/4
f 8/4/4 18/8/8 11/18/18
f 16/14/14 9/2/2 10/1/1
f 10/1/1 11/18/18 16/14/14
f 9/2/2 20/19/19 7/3/3
f 14/12/12 13/11/11 3/15/15
f 3/15/15 16/14/14 14/12/12
f 15/9/9 14/12/12 16/14/14
f 16/14/14 11/18/18 15/9/9
f 12/10/10 15/9/9 11/18/18
f 11/18/18 4/20/20 12/10/10
f 1/21/21 2/6/6 6/5/5
f 5/17/17 1/21/21 6/5/5
f 11/18/18 18/8/8 17/7/7
f 17/7/7 4/20/20 11/18/18
f 5/17/17 21/13/13 19/16/16
f 19/16/16 1/21/21 5/17/17
f 20/19/19 16/14/14 21/13/13
f 9/2/2 16/14/14 20/19/19
f 5/17/17 7/3/3 20/19/19
f 20/19/19 21/13/13 5/17/17
f 8/4/4 6/5/5 18/8/8
