# Blender v2.83.0 OBJ File: ''
# www.blender.org
o Rock_Tall_#1_Mesh.317
v -0.157265 -0.003237 0.407146
v 0.208499 -0.003114 0.329173
v -0.397237 -0.003370 -0.042307
v 0.225085 -0.003264 -0.119989
v -0.152742 1.246493 0.402934
v 0.349132 1.299629 0.131666
v -0.386271 1.200845 -0.048463
v 0.143331 1.287632 -0.330407
v -0.348401 -0.003284 0.222023
v 0.338671 -0.003752 0.135187
v -0.146413 -0.003187 -0.348794
v 0.142910 -0.003506 -0.304583
v -0.261868 1.273326 0.292818
v 0.226733 1.321081 0.321844
v -0.111263 1.343081 -0.383648
v 0.274029 1.254267 -0.036109
v -0.044034 1.390202 0.101409
v -0.065222 1.353700 -0.210352
v 0.318248 0.628321 0.349533
v -0.179315 0.628438 0.410204
v 0.219071 0.628576 -0.146597
v -0.117135 0.628411 -0.380772
v 0.436673 0.628892 0.244986
v -0.436672 0.730196 0.271945
v 0.101729 0.628609 -0.410201
v -0.428077 0.628552 -0.000822
vt 0.691141 0.142060
vt 0.695976 0.019269
vt 0.773144 0.019269
vt 0.783723 0.143796
vt 0.807969 0.144316
vt 0.824027 0.019269
vt 0.882686 0.019269
vt 0.890648 0.143962
vt 0.944808 0.143902
vt 0.924224 0.019269
vt 0.981462 0.019269
vt 0.986307 0.142895
vt 0.590842 0.141256
vt 0.583913 0.019269
vt 0.640171 0.019269
vt 0.638956 0.160360
vt 0.817257 0.402375
vt 0.798902 0.319380
vt 0.867203 0.348579
vt 0.928711 0.271696
vt 0.965355 0.318454
vt 0.928084 0.325234
vt 0.850861 0.411733
vt 0.929716 0.408132
vt 0.823289 0.275063
vt 0.864011 0.268968
vt 0.691922 0.263769
vt 0.656954 0.267988
vt 0.496938 0.141186
vt 0.505241 0.019269
vt 0.772963 0.279256
vt 0.978992 0.283688
vt 0.582428 0.253428
vt 0.495912 0.280694
vn -0.2025 -0.1437 0.9687
vn -0.2668 -0.0140 0.9637
vn 0.5278 -0.1291 0.8395
vn 0.2637 -0.0062 0.9646
vn 0.9675 -0.1439 0.2079
vn 0.9733 -0.2289 0.0188
vn 0.8963 -0.0738 -0.4373
vn 0.9145 -0.0055 -0.4046
vn 0.4917 -0.1633 -0.8553
vn 0.6418 -0.0855 -0.7621
vn -0.4476 -0.1765 -0.8766
vn -0.4751 -0.0110 -0.8798
vn -0.9382 -0.1615 -0.3061
vn -0.9628 -0.0294 -0.2686
vn -0.7556 -0.4982 0.4253
vn -0.9624 -0.1563 -0.2223
vn -0.2291 0.4543 0.8609
vn 0.3107 0.7346 0.6033
vn -0.2805 0.8497 0.4465
vn 0.5690 0.5651 -0.5974
vn -0.2445 0.8527 -0.4618
vn 0.3189 0.9033 -0.2869
vn -0.3889 0.9049 0.1727
vn -0.8859 0.4419 -0.1410
vn 0.7897 0.5774 -0.2072
vn 0.6881 0.5074 -0.5187
s 1
f 20/1/1 1/2/2 2/3/3
f 2/3/3 19/4/4 20/1/1
f 23/5/5 10/6/6 4/7/7
f 4/7/7 21/8/8 23/5/5
f 25/9/9 12/10/10 11/11/11
f 11/11/11 22/12/12 25/9/9
f 26/13/13 3/14/14 9/15/15
f 9/15/15 24/16/16 26/13/13
f 5/17/17 14/18/18 17/19/19
f 8/20/20 15/21/21 18/22/22
f 13/23/23 17/19/19 18/22/22
f 18/22/22 7/24/24 13/23/23
f 6/25/25 16/26/26 18/22/22
f 18/22/22 17/19/19 6/25/25
f 19/4/4 2/3/3 10/6/6
f 10/6/6 23/5/5 19/4/4
f 20/1/1 5/27/17 13/28/23
f 13/28/23 24/16/16 20/1/1
f 21/8/8 4/7/7 12/10/10
f 12/10/10 25/9/9 21/8/8
f 22/29/12 11/30/11 3/14/14
f 3/14/14 26/13/13 22/29/12
f 17/19/19 13/23/23 5/17/17
f 14/18/18 6/25/25 17/19/19
f 18/22/22 15/21/21 7/24/24
f 18/22/22 16/26/26 8/20/20
f 20/1/1 19/4/4 14/31/18
f 14/31/18 5/27/17 20/1/1
f 23/5/5 21/8/8 16/26/26
f 16/26/26 6/25/25 23/5/5
f 25/9/9 22/12/12 15/32/21
f 15/32/21 8/20/20 25/9/9
f 26/13/13 24/16/16 13/28/23
f 13/28/23 7/33/24 26/13/13
f 19/4/4 23/5/5 6/25/25
f 6/25/25 14/31/18 19/4/4
f 20/1/1 24/16/16 9/15/15
f 9/15/15 1/2/2 20/1/1
f 21/8/8 25/9/9 8/20/20
f 8/20/20 16/26/26 21/8/8
f 22/29/12 26/13/13 7/33/24
f 7/33/24 15/34/21 22/29/12
