# Blender v2.83.0 OBJ File: ''
# www.blender.org
o Rock_Small_#2_Mesh.1070
v -0.238979 -0.009692 0.202275
v 0.160424 -0.009692 0.202275
v -0.122032 -0.009692 -0.104751
v 0.160424 -0.009692 -0.202275
v -0.110778 0.313390 0.081902
v 0.107127 0.234080 0.121689
v -0.049316 0.291020 -0.059276
v 0.107127 0.234080 -0.116759
v 0.238981 -0.009692 -0.000000
v 0.150637 0.218243 0.002465
vt 0.176200 0.388398
vt 0.153518 0.431786
vt 0.151272 0.374230
vt 0.258418 0.377268
vt 0.168306 0.490109
vt 0.081158 0.452038
vt 0.130623 0.414305
vt 0.122225 0.385813
vt 0.062528 0.359568
vt 0.162589 0.301128
vn -0.4478 0.8492 0.2797
vn 0.4539 0.6898 0.5641
vn -0.3052 0.7977 -0.5201
vn -0.7169 0.4419 0.5392
vn 0.5237 0.3684 0.7681
vn 0.9962 -0.0092 -0.0871
vn 0.6989 0.6870 0.1989
vn 0.3919 0.6612 -0.6397
vn 0.4256 0.3301 -0.8425
vn -0.6967 0.2222 -0.6821
s 1
f 5/1/1 6/2/2 7/3/3
f 6/2/2 5/1/1 1/4/4
f 1/4/4 2/5/5 6/2/2
f 6/2/2 2/5/5 9/6/6
f 9/6/6 10/7/7 6/2/2
f 7/3/3 8/8/8 4/9/9
f 4/9/9 3/10/10 7/3/3
f 5/1/1 7/3/3 3/10/10
f 3/10/10 1/4/4 5/1/1
f 10/7/7 9/6/6 4/9/9
f 4/9/9 8/8/8 10/7/7
f 7/3/3 6/2/2 10/7/7
f 10/7/7 8/8/8 7/3/3
