# Blender v2.83.0 OBJ File: ''
# www.blender.org
o Tree_Stump_#2_Mesh.016
v 0.050396 0.000401 -0.370195
v -0.176114 0.000401 -0.357547
v -0.155523 0.087256 -0.324799
v 0.068922 0.099699 -0.369609
v -0.088464 0.222739 -0.223505
v 0.104901 0.246959 -0.268393
v 0.254922 0.222740 -0.199546
v 0.274122 0.099699 -0.258893
v 0.041872 0.000401 0.237142
v 0.304633 0.000401 0.134382
v 0.303617 0.087257 0.122574
v 0.066301 0.087256 0.258333
v 0.217011 0.222740 0.137689
v 0.396165 0.000401 -0.032017
v 0.341282 0.246959 -0.009764
v -0.266041 0.224620 -0.094706
v -0.195336 0.162021 0.045806
v -0.163167 0.222740 0.093118
v -0.193661 0.245254 -0.056498
v -0.237646 0.210661 -0.171244
v -0.264176 0.112715 -0.250766
v -0.338409 -0.000110 -0.258195
v -0.239209 0.067220 0.058946
v 0.300420 0.000401 -0.290051
v -0.201028 0.222740 0.292578
v -0.027835 0.193805 0.287615
v -0.007498 0.087256 0.350171
v -0.031928 0.000401 0.326370
v -0.287590 0.000401 0.238819
v -0.256278 0.116807 0.236528
v 0.373175 0.102737 -0.022696
v 0.131365 0.142944 0.230743
v 0.223236 0.153090 0.190913
v 0.045964 0.193805 0.192832
v -0.087908 0.351508 -0.235568
v 0.105025 0.421730 -0.282911
v 0.251305 0.474972 -0.206605
v 0.216122 0.462166 0.148106
v 0.046060 0.400269 0.206450
v -0.162056 0.324520 0.100991
v -0.289965 0.155348 0.446614
v -0.135136 0.126414 0.480325
v -0.111490 0.064907 0.517195
v -0.115097 0.000401 0.519081
v -0.370759 0.000401 0.431531
v -0.363579 0.049415 0.429238
v -0.352107 0.000401 0.608855
v -0.225492 0.000401 0.621936
v -0.141049 0.000401 0.574964
v -0.384746 0.000401 0.524979
v 0.138777 0.000401 0.370388
v 0.344756 0.000402 0.315195
v 0.343960 0.037981 0.315408
v 0.157927 0.037981 0.365256
v 0.208931 0.103606 0.351589
v 0.274730 0.099145 0.327150
v 0.253068 0.000402 0.506288
v 0.415858 0.000402 0.444720
v 0.291759 0.063806 0.459867
v 0.357558 0.062722 0.435429
v -0.338409 0.205892 -0.096162
v -0.338409 0.166507 0.017055
v -0.338409 0.199548 -0.162582
v -0.338409 0.105010 -0.235713
v -0.338408 -0.000110 0.040680
v -0.338409 0.070963 0.036008
v -0.477485 -0.007578 -0.207511
v -0.477485 0.086075 -0.098960
v -0.477484 0.049512 -0.010894
v -0.477485 0.080185 -0.150624
v -0.477484 -0.007782 0.003849
v -0.613874 -0.007537 -0.179853
v -0.613874 0.079024 -0.101704
v -0.613874 0.045230 -0.038302
v -0.613874 0.073581 -0.138899
v -0.613874 -0.007726 -0.027688
v 0.176206 0.154997 -0.314250
v 0.104538 0.000401 -0.462602
v 0.121328 0.038839 -0.454772
v 0.307302 0.038839 -0.368051
v 0.331137 0.000401 -0.356938
v 0.218561 0.094138 -0.409432
v 0.190936 0.007024 -0.527663
v 0.205119 0.039494 -0.521049
v 0.362215 0.039494 -0.447794
v 0.369944 0.007024 -0.444653
v 0.268405 0.086206 -0.459821
v -0.085581 0.485186 -0.259922
v 0.131618 0.564240 -0.313220
v 0.296297 0.624179 -0.227316
v 0.256689 0.609762 0.172009
v 0.065237 0.540080 0.237691
v 0.397889 0.661155 -0.004672
v -0.169054 0.454804 0.118969
v -0.027863 0.497745 -0.212569
v 0.145696 0.572939 -0.255158
v 0.277288 0.616554 -0.186514
v 0.245638 0.605034 0.132579
v 0.092653 0.553633 0.185062
v 0.358468 0.646660 -0.008605
v -0.094565 0.473467 0.090195
v -0.006500 0.351185 -0.163969
v 0.118633 0.351185 -0.194675
v 0.213508 0.351185 -0.145184
v 0.190689 0.351185 0.084876
v 0.080389 0.351185 0.122716
v -0.029887 0.351185 0.064219
v -0.169554 0.454623 -0.117335
v -0.094964 0.473322 -0.098630
v -0.192966 0.313270 -0.057178
v -0.191673 0.446572 0.003228
v -0.112639 0.466889 -0.002292
v -0.074639 0.351185 -0.048268
v 0.341547 0.507817 -0.008835
v 0.351861 0.573968 -0.082598
v 0.319584 0.561877 -0.070873
v 0.237288 0.351185 -0.028044
vt 0.095926 0.378914
vt 0.034925 0.378914
vt 0.052305 0.476453
vt 0.105679 0.476453
vt 0.132263 0.312336
vt 0.046009 0.312336
vt 0.031495 0.378914
vt 0.470477 0.312336
vt 0.400299 0.312336
vt 0.414001 0.378914
vt 0.446920 0.378914
vt 0.536057 0.476453
vt 0.612435 0.476453
vt 0.612435 0.378914
vt 0.539400 0.378914
vt 0.492166 0.378914
vt 0.483925 0.476453
vt 0.305302 0.312336
vt 0.223072 0.312336
vt 0.206888 0.378914
vt 0.283127 0.378914
vt 0.177031 0.378914
vt 0.132263 0.378914
vt 0.132263 0.476453
vt 0.176202 0.526647
vt 0.281468 0.544270
vt 0.242386 0.619032
vt 0.181995 0.579829
vt 0.082595 0.561650
vt 0.123906 0.553347
vt 0.134604 0.606597
vt 0.093407 0.614262
vt 0.351261 0.577182
vt 0.398148 0.601265
vt 0.332989 0.662291
vt 0.293211 0.631099
vt 0.317650 0.545449
vt 0.132263 0.221106
vt 0.059648 0.221106
vt 0.020309 0.221106
vt 0.020309 0.312336
vt 0.462088 0.221106
vt 0.400068 0.221106
vt 0.540066 0.312336
vt 0.612435 0.312336
vt 0.612435 0.224290
vt 0.527766 0.221106
vt 0.307743 0.221106
vt 0.218756 0.221106
vt 0.393941 0.378914
vt 0.230374 0.690141
vt 0.173037 0.674013
vt 0.147812 0.690416
vt 0.123503 0.703121
vt 0.285079 0.737879
vt 0.269469 0.722613
vt 0.214309 0.788354
vt 0.162223 0.762740
vt 0.135955 0.728154
vt 0.253185 0.770072
vt 0.263021 0.389077
vt 0.287946 0.371102
vt 0.305687 0.442090
vt 0.293699 0.448045
vt 0.368320 0.372641
vt 0.399162 0.378240
vt 0.389126 0.429293
vt 0.360907 0.423936
vt 0.431027 0.383392
vt 0.403158 0.433552
vt 0.332283 0.371900
vt 0.336173 0.426880
vt 0.315726 0.494767
vt 0.374229 0.486974
vt 0.351979 0.467823
vt 0.332217 0.472075
vt 0.157102 0.530265
vt 0.227834 0.553256
vt 0.226304 0.587428
vt 0.180126 0.593751
vt 0.265480 0.547047
vt 0.251587 0.590798
vt 0.311074 0.584069
vt 0.294437 0.614634
vt 0.331532 0.645861
vt 0.122073 0.569964
vt 0.145843 0.613850
vt 0.117685 0.632075
vt 0.223169 0.673550
vt 0.177566 0.679908
vt 0.246745 0.677326
vt 0.286324 0.702578
vt 0.152842 0.696159
vt 0.220340 0.724727
vt 0.202516 0.732474
vt 0.230589 0.728096
vt 0.254254 0.753353
vt 0.191578 0.753749
vt 0.020309 0.378914
vt 0.027991 0.399830
vt 0.061053 0.380246
vt 0.060121 0.435874
vt 0.046389 0.446160
vt 0.106312 0.374841
vt 0.144135 0.393505
vt 0.132537 0.447166
vt 0.100653 0.428343
vt 0.159145 0.434754
vt 0.143822 0.458313
vt 0.081346 0.473495
vt 0.073667 0.483964
vt 0.120287 0.475332
vt 0.102274 0.456852
vt 0.125637 0.487388
vt 0.132263 0.069744
vt 0.075311 0.069744
vt 0.020309 0.071336
vt 0.423219 0.069744
vt 0.371096 0.069744
vt 0.516981 0.069744
vt 0.479674 0.069744
vt 0.222174 0.069744
vt 0.288445 0.069744
vt 0.132263 0.022099
vt 0.082726 0.022099
vt 0.020309 0.022099
vt 0.376600 0.022099
vt 0.324667 0.022099
vt 0.509607 0.022099
vt 0.466845 0.022099
vt 0.168127 0.022099
vt 0.240849 0.022099
vt 0.098858 0.959208
vt 0.186888 0.959208
vt 0.168366 0.819089
vt 0.090689 0.819089
vt 0.025280 0.959208
vt 0.028412 0.819089
vt 0.380002 0.959208
vt 0.458749 0.959208
vt 0.478713 0.819089
vt 0.408382 0.819089
vt 0.546960 0.959208
vt 0.553717 0.959208
vt 0.549230 0.819089
vt 0.246697 0.959208
vt 0.248134 0.819089
vt 0.286471 0.959208
vt 0.333928 0.819089
vt 0.932410 0.078404
vt 0.967393 0.175418
vt 0.725579 0.277388
vt 0.223086 0.069744
vt 0.193530 0.022099
vt 0.250579 0.959208
vt 0.269644 0.819089
vt 0.219532 0.067217
vt 0.222787 0.022099
vt 0.612435 0.069744
vt 0.612435 0.022099
vt 0.507955 0.022099
vt 0.616274 0.959208
vt 0.610415 0.819089
vt 0.924568 0.277846
vt 0.824885 0.320099
vt 0.673142 0.189995
vt 0.710480 0.102395
vt 0.816356 0.046823
vn 0.0243 0.4957 -0.8682
vn -0.3837 0.1280 -0.9146
vn -0.5105 -0.1632 -0.8443
vn -0.3127 0.1562 -0.9369
vn -0.1146 0.1746 -0.9779
vn -0.0068 -0.1996 -0.9798
vn 0.0578 0.6290 -0.7752
vn 0.1955 0.2050 0.9590
vn 0.5622 0.1048 0.8204
vn 0.1370 0.8971 0.4200
vn 0.3522 0.9320 0.0851
vn 0.9570 -0.2889 -0.0244
vn 0.9959 -0.0909 0.0013
vn 0.9356 0.3509 -0.0401
vn 0.9658 -0.2591 -0.0109
vn 0.9233 -0.0571 0.3797
vn 0.9851 -0.0201 -0.1710
vn -0.8114 0.4928 -0.3142
vn -0.9279 0.0590 -0.3681
vn -0.0198 0.8721 0.4889
vn -0.3723 0.7220 0.5831
vn -0.0835 0.9792 -0.1848
vn -0.1275 0.6371 -0.7602
vn -0.4626 0.1470 -0.8743
vn 0.3513 0.9181 -0.1835
vn 0.6833 0.7301 0.0139
vn 0.5453 -0.0002 0.8382
vn -0.4446 0.1291 0.8864
vn 0.9542 -0.2021 0.2208
vn 0.7143 -0.4811 0.5082
vn -0.9468 0.1035 0.3046
vn -0.2093 0.0111 0.9778
vn -0.9392 0.3378 0.0615
vn -0.8420 0.3520 -0.4088
vn -0.1858 -0.3327 -0.9245
vn 0.1328 -0.5268 -0.8396
vn 0.5184 -0.4634 -0.7187
vn 0.3890 0.3006 -0.8708
vn 0.3205 -0.2709 0.9077
vn 0.2575 -0.4487 0.8558
vn 0.8663 0.0869 -0.4919
vn 0.6576 -0.7481 0.0890
vn -0.9302 -0.3325 0.1554
vn -0.9754 -0.1350 -0.1744
vn 0.1134 0.9920 -0.0560
vn 0.5048 0.8403 0.1975
vn 0.9639 0.1884 0.1880
vn 0.9111 -0.0527 0.4087
vn -0.9555 -0.0214 -0.2943
vn -0.7586 0.4567 -0.4647
vn -0.5788 0.3928 0.7146
vn 0.0029 0.4640 0.8859
vn 0.5927 -0.0716 0.8022
vn -0.9237 0.2801 0.2612
vn 0.7115 0.3047 -0.6332
vn 0.9243 0.1545 -0.3491
vn -0.6257 0.6047 0.4928
vn -0.4586 0.8869 0.0559
vn -0.6927 0.1989 0.6932
vn 0.2602 0.9480 -0.1830
vn 0.8226 -0.2916 0.4882
vn -0.2415 0.0669 0.9681
vn -0.3084 0.9248 0.2230
vn 0.0783 0.9733 -0.2159
vn -0.1635 0.8795 0.4469
vn 0.3118 0.5957 0.7403
vn -0.0411 0.9922 -0.1173
vn -0.1602 0.6547 -0.7387
vn -0.2662 0.0443 0.9629
vn -0.0906 0.9411 0.3257
vn 0.0874 0.7335 0.6741
vn 0.0180 0.9481 -0.3175
vn -0.3615 0.2618 -0.8949
vn -0.2511 0.1234 0.9601
vn -0.4997 0.8025 0.3259
vn -0.4162 0.5366 0.7341
vn -0.3832 0.8228 -0.4197
vn -0.6604 0.3464 -0.6663
vn -0.7391 0.1324 0.6604
vn -0.8311 0.4551 -0.3197
vn -0.7525 0.2455 -0.6111
vn 0.3820 0.8984 0.2167
vn -0.0881 0.9803 0.1769
vn 0.9551 0.2079 0.2113
vn -0.4009 0.4634 -0.7902
vn -0.2291 0.2894 -0.9294
vn 0.4731 0.8631 -0.1768
vn -0.0992 0.9951 0.0001
vn 0.9632 0.1609 -0.2154
vn -0.3241 0.4836 -0.8130
vn -0.0935 0.2592 -0.9613
vn 0.6639 0.3027 -0.6838
vn 0.2263 0.5096 0.8301
vn -0.2369 0.1769 0.9553
vn 0.7876 0.3795 -0.4855
vn 0.9721 0.1851 -0.1443
vn -0.8409 0.5202 0.1491
vn -0.8356 0.1531 0.5276
vn 0.5391 0.8421 0.0169
vn -0.5946 0.7477 -0.2955
vn -0.0216 0.9680 -0.2498
vn -0.7022 0.6753 -0.2255
vn -0.4454 0.8623 -0.2411
vn -0.5202 0.7851 0.3363
vn -0.5264 0.5080 -0.6818
vn 0.2441 0.9667 -0.0765
vn -0.1542 0.9362 -0.3158
vn 0.4002 0.8353 0.3770
vn -0.2604 0.7676 0.5856
vn -0.5884 0.7476 0.3079
vn -0.2968 0.8402 -0.4539
vn 0.1768 0.7815 -0.5983
vn -0.5286 0.8475 -0.0474
vn 0.3946 0.9179 -0.0417
vn 0.4684 0.8467 -0.2522
vn -0.7689 0.5315 -0.3554
vn 0.2014 0.8074 -0.5546
s 1
f 3/1/1 4/2/2 1/3/3
f 1/3/3 2/4/4 3/1/1
f 4/2/2 3/1/1 5/5/5
f 5/5/5 6/6/6 4/2/2
f 6/6/6 77/7/7 4/2/2
f 13/8/8 34/9/9 32/10/10
f 32/10/10 33/11/11 13/8/8
f 14/12/12 24/13/13 8/14/14
f 8/14/14 31/15/15 14/12/12
f 11/16/16 10/17/17 14/12/12
f 14/12/12 31/15/15 11/16/16
f 18/18/18 19/19/19 16/20/20
f 16/20/20 17/21/21 18/18/18
f 19/19/19 5/5/5 20/22/22
f 20/22/22 16/20/20 19/19/19
f 5/5/5 3/1/1 21/23/23
f 21/23/23 20/22/22 5/5/5
f 3/1/1 2/4/4 22/24/24
f 22/24/24 21/23/23 3/1/1
f 34/25/9 18/26/18 25/27/25
f 25/27/25 26/28/26 34/25/9
f 9/29/27 12/30/28 27/31/29
f 27/31/29 28/32/30 9/29/27
f 12/30/28 34/25/9 26/28/26
f 26/28/26 27/31/29 12/30/28
f 23/33/31 65/34/32 29/35/33
f 29/35/33 30/36/34 23/33/31
f 17/37/21 23/33/31 30/36/34
f 18/26/18 17/37/21 30/36/34
f 30/36/34 25/27/25 18/26/18
f 6/6/6 5/5/5 35/38/35
f 35/38/35 36/39/36 6/6/6
f 6/6/6 36/39/36 37/40/37
f 37/40/37 7/41/38 6/6/6
f 13/8/8 38/42/39 39/43/40
f 39/43/40 34/9/9 13/8/8
f 15/44/41 7/45/38 37/46/37
f 37/46/37 114/47/42 15/44/41
f 15/44/41 114/47/42 38/42/39
f 38/42/39 13/8/8 15/44/41
f 19/19/19 18/18/18 40/48/43
f 40/48/43 110/49/44 19/19/19
f 19/19/19 110/49/44 35/38/35
f 35/38/35 5/5/5 19/19/19
f 18/18/18 34/9/9 39/43/40
f 39/43/40 40/48/43 18/18/18
f 15/44/41 31/15/15 8/14/14
f 8/14/14 7/45/38 15/44/41
f 15/44/41 13/8/8 11/16/16
f 11/16/16 31/15/15 15/44/41
f 34/9/9 12/50/28 32/10/10
f 33/11/11 11/16/16 13/8/8
f 26/28/26 25/27/25 41/51/45
f 41/51/45 42/52/46 26/28/26
f 28/32/30 27/31/29 43/53/47
f 43/53/47 44/54/48 28/32/30
f 27/31/29 26/28/26 42/52/46
f 42/52/46 43/53/47 27/31/29
f 30/36/34 29/35/33 45/55/49
f 45/55/49 46/56/50 30/36/34
f 25/27/25 30/36/34 46/56/50
f 46/56/50 41/51/45 25/27/25
f 42/52/46 41/51/45 47/57/51
f 47/57/51 48/58/52 42/52/46
f 44/54/48 43/53/47 49/59/53
f 43/53/47 42/52/46 48/58/52
f 48/58/52 49/59/53 43/53/47
f 46/56/50 45/55/49 50/60/54
f 41/51/45 46/56/50 50/60/54
f 50/60/54 47/57/51 41/51/45
f 10/61/17 11/62/16 53/63/55
f 53/63/55 52/64/56 10/61/17
f 32/65/10 12/66/28 54/67/57
f 54/67/57 55/68/58 32/65/10
f 12/66/28 9/69/27 51/70/59
f 51/70/59 54/67/57 12/66/28
f 33/71/11 32/65/10 55/68/58
f 55/68/58 56/72/60 33/71/11
f 11/62/16 33/71/11 56/72/60
f 56/72/60 53/63/55 11/62/16
f 52/64/56 53/63/55 58/73/61
f 55/68/58 54/67/57 57/74/62
f 57/74/62 59/75/63 55/68/58
f 54/67/57 51/70/59 57/74/62
f 56/72/60 55/68/58 59/75/63
f 59/75/63 60/76/64 56/72/60
f 53/63/55 56/72/60 60/76/64
f 60/76/64 58/73/61 53/63/55
f 60/76/64 59/75/63 57/74/62
f 57/74/62 58/73/61 60/76/64
f 17/77/21 16/78/20 61/79/65
f 61/79/65 62/80/66 17/77/21
f 16/78/20 20/81/22 63/82/67
f 63/82/67 61/79/65 16/78/20
f 20/81/22 21/83/23 64/84/68
f 64/84/68 63/82/67 20/81/22
f 21/83/23 22/85/24 64/84/68
f 23/86/31 66/87/69 65/88/32
f 23/86/31 17/77/21 62/80/66
f 62/80/66 66/87/69 23/86/31
f 62/80/66 61/79/65 68/89/70
f 68/89/70 69/90/71 62/80/66
f 61/79/65 63/82/67 70/91/72
f 70/91/72 68/89/70 61/79/65
f 63/82/67 64/84/68 67/92/73
f 67/92/73 70/91/72 63/82/67
f 64/84/68 22/85/24 67/92/73
f 65/88/32 66/87/69 71/93/74
f 66/87/69 62/80/66 69/90/71
f 69/90/71 71/93/74 66/87/69
f 69/90/71 68/89/70 73/94/75
f 73/94/75 74/95/76 69/90/71
f 68/89/70 70/91/72 75/96/77
f 75/96/77 73/94/75 68/89/70
f 70/91/72 67/92/73 72/97/78
f 72/97/78 75/96/77 70/91/72
f 71/93/74 69/90/71 74/95/76
f 74/95/76 76/98/79 71/93/74
f 76/98/79 74/95/76 75/96/77
f 75/96/77 72/97/78 76/98/79
f 73/94/75 75/96/77 74/95/76
f 6/6/6 7/41/38 8/99/14
f 8/99/14 77/7/7 6/6/6
f 1/100/3 4/101/2 79/102/80
f 79/102/80 78/103/81 1/100/3
f 77/104/7 8/105/14 80/106/82
f 80/106/82 82/107/83 77/104/7
f 8/105/14 24/108/13 81/109/84
f 81/109/84 80/106/82 8/105/14
f 4/101/2 77/104/7 82/107/83
f 82/107/83 79/102/80 4/101/2
f 78/103/81 79/102/80 84/110/85
f 84/110/85 83/111/86 78/103/81
f 82/107/83 80/106/82 85/112/87
f 85/112/87 87/113/88 82/107/83
f 80/106/82 81/109/84 86/114/89
f 86/114/89 85/112/87 80/106/82
f 79/102/80 82/107/83 87/113/88
f 87/113/88 84/110/85 79/102/80
f 84/110/85 85/112/87 86/114/89
f 86/114/89 83/111/86 84/110/85
f 85/112/87 84/110/85 87/113/88
f 36/39/36 35/38/35 88/115/90
f 88/115/90 89/116/91 36/39/36
f 37/40/37 36/39/36 89/116/91
f 89/116/91 90/117/92 37/40/37
f 39/43/40 38/42/39 91/118/93
f 91/118/93 92/119/94 39/43/40
f 114/47/42 115/120/95 93/121/96
f 38/42/39 114/47/42 93/121/96
f 93/121/96 91/118/93 38/42/39
f 35/38/35 110/49/44 108/122/97
f 108/122/97 88/115/90 35/38/35
f 40/48/43 39/43/40 92/119/94
f 92/119/94 94/123/98 40/48/43
f 89/116/91 88/115/90 95/124/99
f 95/124/99 96/125/100 89/116/91
f 90/117/92 89/116/91 96/125/100
f 96/125/100 97/126/101 90/117/92
f 92/119/94 91/118/93 98/127/102
f 98/127/102 99/128/103 92/119/94
f 115/120/95 116/129/104 100/130/105
f 100/130/105 93/121/96 115/120/95
f 91/118/93 93/121/96 100/130/105
f 100/130/105 98/127/102 91/118/93
f 88/115/90 108/122/97 109/131/106
f 109/131/106 95/124/99 88/115/90
f 94/123/98 92/119/94 99/128/103
f 99/128/103 101/132/107 94/123/98
f 96/133/100 95/134/99 102/135/108
f 102/135/108 103/136/109 96/133/100
f 97/137/101 96/133/100 103/136/109
f 103/136/109 104/138/110 97/137/101
f 99/139/103 98/140/102 105/141/111
f 105/141/111 106/142/112 99/139/103
f 100/143/105 116/144/104 117/145/113
f 98/140/102 100/143/105 117/145/113
f 117/145/113 105/141/111 98/140/102
f 109/146/106 113/147/114 102/135/108
f 102/135/108 95/134/99 109/146/106
f 101/148/107 99/139/103 106/142/112
f 106/142/112 107/149/115 101/148/107
f 113/150/114 107/151/115 117/152/113
f 40/48/43 94/123/98 111/153/116
f 111/153/116 110/49/44 40/48/43
f 111/153/116 94/123/98 101/132/107
f 101/132/107 112/154/117 111/153/116
f 112/155/117 101/148/107 107/149/115
f 107/149/115 113/156/114 112/155/117
f 111/153/116 112/154/117 113/157/114
f 113/157/114 110/49/44 111/153/116
f 113/158/114 109/131/106 108/122/97
f 108/122/97 110/49/44 113/158/114
f 114/47/42 37/46/37 90/159/92
f 90/159/92 115/120/95 114/47/42
f 115/120/95 90/159/92 97/160/101
f 97/160/101 116/161/104 115/120/95
f 97/162/101 104/163/110 117/145/113
f 117/145/113 116/144/104 97/162/101
f 106/164/112 105/165/111 117/152/113
f 117/152/113 107/151/115 106/164/112
f 104/166/110 103/167/109 102/168/108
f 102/168/108 113/150/114 104/166/110
f 113/150/114 117/152/113 104/166/110
