# Blender v2.83.0 OBJ File: ''
# www.blender.org
o Water_Lily_Mesh.304
v 0.202716 0.000000 0.000000
v 0.143342 0.000000 -0.143342
v -0.000000 0.000000 -0.202716
v -0.143342 0.000000 -0.143342
v -0.202716 0.000000 0.000000
v -0.143342 0.000000 0.143342
v 0.000000 0.000000 0.202716
v 0.143342 0.000000 0.143342
v -0.037850 -0.033861 0.000000
v -0.013710 -0.020337 0.000000
v -0.020900 -0.020337 -0.017356
v -0.038256 -0.020337 -0.024545
v -0.055612 -0.020337 -0.017356
v -0.062801 -0.020337 0.000000
v -0.055612 -0.020337 0.017356
v -0.038256 -0.020337 0.024545
v -0.020900 -0.020337 0.017356
v 0.075159 0.019032 0.000000
v 0.041941 0.019032 -0.080197
v -0.038256 0.019032 -0.113415
v -0.118452 0.019032 -0.080197
v -0.151671 0.019032 0.000000
v -0.118452 0.019032 0.080197
v -0.038256 0.019032 0.113415
v 0.041941 0.019032 0.080197
v 0.003094 0.003581 -0.041350
v 0.020222 0.003581 0.000000
v -0.038256 0.003581 -0.058477
v -0.079606 0.003581 -0.041350
v -0.096733 0.003581 0.000000
v -0.079606 0.003581 0.041350
v -0.038256 0.003581 0.058477
v 0.003094 0.003581 0.041350
v -0.021383 -0.020337 0.000000
v -0.022003 0.036518 0.000000
v -0.026763 0.036518 -0.011493
v -0.026325 -0.020337 -0.011931
v -0.038256 0.036518 -0.016253
v -0.038256 -0.020337 -0.016873
v -0.049749 0.036518 -0.011493
v -0.050187 -0.020337 -0.011931
v -0.054509 0.036518 0.000000
v -0.055129 -0.020337 0.000000
v -0.049749 0.036518 0.011493
v -0.050187 -0.020337 0.011931
v -0.038256 0.036518 0.016253
v -0.038256 -0.020337 0.016873
v -0.026763 0.036518 0.011493
v -0.026325 -0.020337 0.011931
v -0.015252 -0.020337 0.000000
v 0.005962 0.008170 0.000000
v -0.006989 0.008170 -0.031267
v -0.021990 -0.020337 -0.016266
v -0.038256 0.008170 -0.044218
v -0.038256 -0.020337 -0.023003
v -0.069522 0.008170 -0.031267
v -0.054522 -0.020337 -0.016266
v -0.082474 0.008170 0.000000
v -0.061259 -0.020337 0.000000
v -0.069522 0.008170 0.031267
v -0.054522 -0.020337 0.016266
v -0.038256 0.008170 0.044218
v -0.038256 -0.020337 0.023004
v -0.006989 0.008170 0.031267
v -0.021990 -0.020337 0.016266
v 0.038557 0.025660 -0.000000
v 0.016059 0.025660 -0.054315
v -0.038256 0.025660 -0.076813
v -0.092571 0.025660 -0.054315
v -0.115069 0.025660 -0.000000
v -0.092571 0.025660 0.054315
v -0.038256 0.025660 0.076813
v 0.016059 0.025660 0.054315
v -0.018312 0.010110 -0.000000
v -0.024153 0.010110 -0.014102
v -0.038256 0.010110 -0.019944
v -0.052358 0.010110 -0.014102
v -0.058200 0.010110 0.000000
v -0.052358 0.010110 0.014102
v -0.038256 0.010110 0.019944
v -0.024153 0.010110 0.014102
v -0.031850 -0.033861 0.000000
v -0.040850 -0.033861 0.005196
v -0.040850 -0.033861 -0.005196
v -0.031963 -0.109902 -0.000515
v -0.040340 -0.108340 0.005434
v -0.041246 -0.108340 -0.004919
v -0.007045 -0.183861 -0.013013
v -0.016045 -0.183861 -0.007817
v -0.016045 -0.183861 -0.018209
v 0.003394 -0.258861 -0.013013
v -0.005606 -0.258861 -0.007817
v -0.005606 -0.258861 -0.018209
v -0.007045 -0.333861 0.004203
v -0.016045 -0.333861 0.009399
v -0.016045 -0.333861 -0.000993
vt 0.593975 0.780268
vt 0.433656 0.940559
vt 0.300141 0.617421
vt 0.206950 0.940179
vt 0.047269 0.779574
vt 0.047945 0.553472
vt 0.207872 0.394108
vt 0.433646 0.394108
vt 0.593721 0.553791
vt 0.755606 0.308782
vt 0.779194 0.283779
vt 0.853956 0.316761
vt 0.785238 0.385254
vt 0.721028 0.309955
vt 0.688046 0.385135
vt 0.695668 0.286467
vt 0.619330 0.316341
vt 0.694280 0.252088
vt 0.619422 0.219161
vt 0.717657 0.226984
vt 0.688254 0.150642
vt 0.752198 0.226207
vt 0.785191 0.150862
vt 0.777740 0.249522
vt 0.853971 0.219598
vt 0.833023 0.500409
vt 0.969170 0.364283
vt 0.640411 0.500409
vt 0.504156 0.364187
vt 0.504221 0.171525
vt 0.640549 0.035527
vt 0.832852 0.035705
vt 0.969046 0.171706
vt 0.677419 0.702226
vt 0.803142 0.702920
vt 0.803142 0.758175
vt 0.677419 0.757153
vt 0.677419 0.646406
vt 0.803142 0.646189
vt 0.677419 0.589692
vt 0.803142 0.586935
vt 0.677419 0.532183
vt 0.803142 0.523034
vt 0.677419 0.917453
vt 0.803142 0.922868
vt 0.803142 0.982640
vt 0.677419 0.969223
vt 0.677419 0.864605
vt 0.803142 0.867121
vt 0.677419 0.811242
vt 0.803142 0.812653
vt 0.758644 0.311462
vt 0.781459 0.283813
vt 0.862186 0.320828
vt 0.788839 0.393954
vt 0.723120 0.313822
vt 0.685557 0.393424
vt 0.696296 0.289805
vt 0.612976 0.319771
vt 0.694154 0.253434
vt 0.613569 0.216232
vt 0.717402 0.225848
vt 0.687052 0.143226
vt 0.752849 0.223161
vt 0.790395 0.143828
vt 0.779319 0.247307
vt 0.862727 0.217400
vt 0.834196 0.500972
vt 0.969915 0.364621
vt 0.641705 0.501118
vt 0.505685 0.364843
vt 0.505773 0.172333
vt 0.641828 0.036104
vt 0.834290 0.036253
vt 0.969915 0.172447
vt 0.912896 0.709621
vt 0.912896 0.762813
vt 0.912896 0.655644
vt 0.912896 0.600952
vt 0.912896 0.545755
vt 0.912896 0.918113
vt 0.912896 0.968201
vt 0.912896 0.866942
vt 0.912896 0.815229
vt 0.110560 0.441338
vt 0.064306 0.441800
vt 0.066667 0.338478
vt 0.110239 0.337067
vt 0.069826 0.440886
vt 0.067788 0.339739
vt 0.073665 0.238096
vt 0.117422 0.239761
vt 0.076480 0.241391
vt 0.070594 0.136813
vt 0.113835 0.139529
vt 0.072389 0.142189
vt 0.068734 0.022464
vt 0.114101 0.026506
vt 0.071752 0.030461
vn -0.0601 0.9962 -0.0626
vn -0.0834 0.9965 -0.0000
vn -0.0933 0.9904 -0.1018
vn -0.0601 0.9962 0.0626
vn 0.0033 0.9953 0.0971
vn 0.0818 0.9936 0.0776
vn 0.1219 0.9925 0.0000
vn 0.0818 0.9936 -0.0776
vn 0.0033 0.9953 -0.0971
vn -0.2195 0.9030 0.3693
vn -0.4163 0.9030 0.1059
vn -0.5911 0.8022 -0.0835
vn -0.4276 0.7964 0.4276
vn 0.1059 0.9030 0.4163
vn -0.0000 0.7964 0.6048
vn 0.3693 0.9030 0.2195
vn 0.4276 0.7964 0.4276
vn 0.4163 0.9030 -0.1059
vn 0.6048 0.7964 0.0000
vn 0.2195 0.9030 -0.3693
vn 0.4276 0.7964 -0.4276
vn -0.1059 0.9030 -0.4163
vn 0.0000 0.7964 -0.6048
vn -0.3693 0.9030 -0.2195
vn -0.4276 0.7964 -0.4276
vn -0.0931 0.9835 0.1548
vn -0.1753 0.9835 0.0436
vn 0.0436 0.9835 0.1753
vn 0.1548 0.9835 0.0931
vn 0.1753 0.9835 -0.0436
vn 0.0931 0.9835 -0.1548
vn -0.0436 0.9835 -0.1753
vn -0.1548 0.9835 -0.0931
vn 0.5502 -0.5170 -0.6558
vn 0.9518 0.0201 -0.3061
vn 0.8975 -0.4082 -0.1673
vn 0.8527 -0.5170 -0.0747
vn -0.0747 -0.5170 -0.8527
vn 0.4565 0.0201 -0.8895
vn -0.6558 -0.5170 -0.5502
vn -0.3061 0.0201 -0.9518
vn -0.8527 -0.5170 0.0747
vn -0.8895 0.0201 -0.4565
vn -0.5502 -0.5170 0.6558
vn -0.9518 0.0201 0.3061
vn 0.0747 -0.5170 0.8527
vn -0.4565 0.0201 0.8895
vn 0.6558 -0.5170 0.5502
vn 0.3061 0.0201 0.9518
vn -0.3401 0.7530 0.5633
vn -0.6388 0.7530 0.1578
vn -0.8239 0.5529 -0.1247
vn -0.5962 0.5376 0.5962
vn 0.1578 0.7530 0.6388
vn 0.0000 0.5376 0.8432
vn 0.5633 0.7530 0.3401
vn 0.5962 0.5376 0.5962
vn 0.6388 0.7530 -0.1578
vn 0.8432 0.5376 0.0000
vn 0.3401 0.7530 -0.5633
vn 0.5962 0.5376 -0.5962
vn -0.1578 0.7530 -0.6388
vn 0.0000 0.5376 -0.8432
vn -0.5633 0.7530 -0.3401
vn -0.5962 0.5376 -0.5962
vn -0.1759 0.9437 0.2802
vn -0.3225 0.9437 0.0737
vn 0.0737 0.9437 0.3225
vn 0.2802 0.9437 0.1759
vn 0.3225 0.9437 -0.0737
vn 0.1759 0.9437 -0.2802
vn -0.0737 0.9437 -0.3225
vn -0.2802 0.9437 -0.1759
vn 0.5397 0.5495 -0.6378
vn 0.8326 0.5495 -0.0693
vn -0.0693 0.5495 -0.8326
vn -0.6378 0.5495 -0.5397
vn -0.8326 0.5495 0.0693
vn -0.5397 0.5495 0.6378
vn 0.0693 0.5495 0.8326
vn 0.6378 0.5495 0.5397
vn 0.9987 0.0453 0.0232
vn -0.5188 0.0434 0.8538
vn -0.4481 -0.0144 0.8939
vn 0.9544 0.2979 -0.0171
vn -0.4816 0.0403 -0.8755
vn -0.6411 0.1413 -0.7543
vn -0.4774 -0.1029 0.8726
vn 0.9499 0.3122 -0.0148
vn -0.4888 0.1270 -0.8631
vn -0.4805 0.2033 0.8531
vn 0.9915 0.1177 -0.0552
vn -0.4499 0.0830 -0.8892
vn -0.4850 0.2592 0.8352
vn 0.9851 -0.1060 0.1355
vn -0.6123 -0.0949 -0.7849
s 1
f 8/1/1 1/2/2 9/3/3
f 1/2/2 2/4/4 9/3/3
f 2/4/4 3/5/5 9/3/3
f 3/5/5 4/6/6 9/3/3
f 4/6/6 5/7/7 9/3/3
f 5/7/7 6/8/8 9/3/3
f 6/8/8 7/9/9 9/3/3
f 7/9/9 8/1/1 9/3/3
f 11/10/10 10/11/11 27/12/12
f 27/12/12 26/13/13 11/10/10
f 12/14/14 11/10/10 26/13/13
f 26/13/13 28/15/15 12/14/14
f 13/16/16 12/14/14 28/15/15
f 28/15/15 29/17/17 13/16/16
f 14/18/18 13/16/16 29/17/17
f 29/17/17 30/19/19 14/18/18
f 15/20/20 14/18/18 30/19/19
f 30/19/19 31/21/21 15/20/20
f 16/22/22 15/20/20 31/21/21
f 31/21/21 32/23/23 16/22/22
f 17/24/24 16/22/22 32/23/23
f 32/23/23 33/25/25 17/24/24
f 10/11/11 17/24/24 33/25/25
f 33/25/25 27/12/12 10/11/11
f 19/26/26 26/13/13 27/12/12
f 27/12/12 18/27/27 19/26/26
f 20/28/28 28/15/15 26/13/13
f 26/13/13 19/26/26 20/28/28
f 21/29/29 29/17/17 28/15/15
f 28/15/15 20/28/28 21/29/29
f 22/30/30 30/19/19 29/17/17
f 29/17/17 21/29/29 22/30/30
f 23/31/31 31/21/21 30/19/19
f 30/19/19 22/30/30 23/31/31
f 24/32/32 32/23/23 31/21/21
f 31/21/21 23/31/31 24/32/32
f 25/33/33 33/25/25 32/23/23
f 32/23/23 24/32/32 25/33/33
f 18/27/27 27/12/12 33/25/25
f 33/25/25 25/33/33 18/27/27
f 37/34/34 75/35/35 74/36/36
f 74/36/36 34/37/37 37/34/34
f 39/38/38 76/39/39 75/35/35
f 75/35/35 37/34/34 39/38/38
f 41/40/40 77/41/41 76/39/39
f 76/39/39 39/38/38 41/40/40
f 43/42/42 78/43/43 77/41/41
f 77/41/41 41/40/40 43/42/42
f 45/44/44 79/45/45 78/46/43
f 78/46/43 43/47/42 45/44/44
f 47/48/46 80/49/47 79/45/45
f 79/45/45 45/44/44 47/48/46
f 49/50/48 81/51/49 80/49/47
f 80/49/47 47/48/46 49/50/48
f 34/37/37 74/36/36 81/51/49
f 81/51/49 49/50/48 34/37/37
f 53/52/50 50/53/51 51/54/52
f 51/54/52 52/55/53 53/52/50
f 55/56/54 53/52/50 52/55/53
f 52/55/53 54/57/55 55/56/54
f 57/58/56 55/56/54 54/57/55
f 54/57/55 56/59/57 57/58/56
f 59/60/58 57/58/56 56/59/57
f 56/59/57 58/61/59 59/60/58
f 61/62/60 59/60/58 58/61/59
f 58/61/59 60/63/61 61/62/60
f 63/64/62 61/62/60 60/63/61
f 60/63/61 62/65/63 63/64/62
f 65/66/64 63/64/62 62/65/63
f 62/65/63 64/67/65 65/66/64
f 50/53/51 65/66/64 64/67/65
f 64/67/65 51/54/52 50/53/51
f 67/68/66 52/55/53 51/54/52
f 51/54/52 66/69/67 67/68/66
f 68/70/68 54/57/55 52/55/53
f 52/55/53 67/68/66 68/70/68
f 69/71/69 56/59/57 54/57/55
f 54/57/55 68/70/68 69/71/69
f 70/72/70 58/61/59 56/59/57
f 56/59/57 69/71/69 70/72/70
f 71/73/71 60/63/61 58/61/59
f 58/61/59 70/72/70 71/73/71
f 72/74/72 62/65/63 60/63/61
f 60/63/61 71/73/71 72/74/72
f 73/75/73 64/67/65 62/65/63
f 62/65/63 72/74/72 73/75/73
f 66/69/67 51/54/52 64/67/65
f 64/67/65 73/75/73 66/69/67
f 36/76/74 35/77/75 74/36/36
f 74/36/36 75/35/35 36/76/74
f 38/78/76 36/76/74 75/35/35
f 75/35/35 76/39/39 38/78/76
f 40/79/77 38/78/76 76/39/39
f 76/39/39 77/41/41 40/79/77
f 42/80/78 40/79/77 77/41/41
f 77/41/41 78/43/43 42/80/78
f 44/81/79 42/82/78 78/46/43
f 78/46/43 79/45/45 44/81/79
f 46/83/80 44/81/79 79/45/45
f 79/45/45 80/49/47 46/83/80
f 48/84/81 46/83/80 80/49/47
f 80/49/47 81/51/49 48/84/81
f 35/77/75 48/84/81 81/51/49
f 81/51/49 74/36/36 35/77/75
f 82/85/82 83/86/83 86/87/84
f 86/87/84 85/88/85 82/85/82
f 83/86/83 84/89/86 87/90/87
f 87/90/87 86/87/84 83/86/83
f 84/89/86 82/85/82 85/88/85
f 85/88/85 87/90/87 84/89/86
f 85/88/85 86/87/84 89/91/88
f 89/91/88 88/92/89 85/88/85
f 86/87/84 87/90/87 90/93/90
f 90/93/90 89/91/88 86/87/84
f 87/90/87 85/88/85 88/92/89
f 88/92/89 90/93/90 87/90/87
f 88/92/89 89/91/88 92/94/91
f 92/94/91 91/95/92 88/92/89
f 89/91/88 90/93/90 93/96/93
f 93/96/93 92/94/91 89/91/88
f 90/93/90 88/92/89 91/95/92
f 91/95/92 93/96/93 90/93/90
f 91/95/92 92/94/91 95/97/94
f 95/97/94 94/98/95 91/95/92
f 92/94/91 93/96/93 96/99/96
f 96/99/96 95/97/94 92/94/91
f 93/96/93 91/95/92 94/98/95
f 94/98/95 96/99/96 93/96/93
